<?xml version="1.0" encoding="utf-8"?>
<!-- Generator: Adobe Illustrator 22.0.0, SVG Export Plug-In . SVG Version: 6.00 Build 0)  -->
<svg version="1.1" id="Layer_1" xmlns="http://www.w3.org/2000/svg" xmlns:xlink="http://www.w3.org/1999/xlink" x="0px" y="0px"
	 viewBox="0 0 217.6 160.3" style="enable-background:new 0 0 217.6 160.3;" xml:space="preserve">
<style type="text/css">
	.st0{fill:#BBE2F2;}
	.st1{fill:#1193A3;}
	.st2{fill:#009CF8;}
	.st3{fill:#006BDE;}
	.st4{fill:#18315B;}
	.st5{fill:#000B29;}
	.st6{fill:#F97853;}
	.st7{fill:#EA5143;}
	.st8{fill:#FFA681;}
	.st9{fill:#FFFFFF;}
	.st10{fill:#264CBE;}
	.st11{fill:#E3E3E3;}
	.st12{fill:#042535;}
</style>
<title>paypal-seeklogo.com</title>
<g>
	<g>
		<path class="st0" d="M94.5,35c-7.3-26.4-40.1-35-59-15.2c-0.3,0.3-0.5,0.6-0.8,0.9c-27,29.3-14.2,101.6,42.1,120
			c56.3,18.3,114.9-15.1,118.2-45.1c3.3-29.9-22.7-39.3-63-30.9C109.2,69.3,99.1,51.4,94.5,35z"/>
		<path class="st0" d="M141.4,39.5c-7.5,1.2-9.6,7.9-3.8,12.6c1.9,1.6,4.7,2.9,8.6,3.5C161.1,58.1,169,51.5,163,43
			C159.3,37.7,148.8,38.3,141.4,39.5z"/>
		<path class="st0" d="M21.2,92.9c-4.7-6-11.5-4.7-12.9,2.7c-0.5,2.4-0.3,5.5,1,9.2c5,14.3,14.5,18.1,19.2,8.7
			C31.4,107.8,25.9,98.9,21.2,92.9z"/>
		<path class="st0" d="M200.3,99c-0.7,3.6,2.3,6.2,5.7,4.8c1.1-0.5,2.3-1.4,3.3-2.9c3.8-6,1.9-11.1-3.5-10.6
			C202.6,90.7,201,95.4,200.3,99z"/>
		<path class="st0" d="M181.3,60.7c3.6,0.8,6.2-2.2,4.9-5.6c-0.4-1.1-1.3-2.3-2.9-3.3c-5.9-3.9-11.1-2.1-10.6,3.3
			C173,58.3,177.7,59.9,181.3,60.7z"/>
		<path class="st0" d="M93.3,21.8c2.9,2.3,6.6,0.9,6.9-2.7c0.1-1.2-0.1-2.6-1-4.3c-3.4-6.2-8.9-6.9-10.9-2
			C87,15.8,90.4,19.5,93.3,21.8z"/>
	</g>
	<g>
		<path class="st1" d="M209.3,117.2c5.8-5.8,10.1-12.3,5.8-13.3c-4.4-1-11.7,10.4-13,20.7l-1.3,3.4c1.1-7.5-1.5-16.7-5.3-17.1
			c-3.8-0.4-1.5,5.6,1.5,10.7c2.3,3.9,2.9,6.9,3,8.5l-6,16.2c1.6-11.9-2.4-26.4-8.4-27c-6-0.6-2.4,8.9,2.4,16.9
			c3.6,6.1,4.5,10.9,4.8,13.5l-1.2,3.2c0.5,0.3,1.1,0.6,1.6,0.9l7.2-19.2c1.4-1,3.5-2.3,6.5-3.3c5.6-1.9,11.2-4.9,8.1-7.1
			c-2.7-1.9-9,1.7-13.3,6.9l2.5-6.6C205.3,122.4,206.8,119.7,209.3,117.2z"/>
		<path class="st1" d="M28,41.8c0.7-7,0.2-13.7-3.3-12.1c-3.5,1.7-2.3,13.3,2.5,20.9l1,3c-3.3-5.6-10-10.4-12.8-8.6
			c-2.7,1.8,2,4.5,6.8,6.4c3.6,1.4,5.7,3.1,6.6,4.1l4.7,14.1c-5.3-8.9-15.9-16.4-20.2-13.6C8.9,58.7,16.4,63.1,24,66
			c5.7,2.2,8.9,4.9,10.5,6.5l0.9,2.8c0.5-0.1,1-0.2,1.5-0.3l-5.5-16.8c0.4-1.4,1.1-3.4,2.6-5.7c2.7-4.3,4.9-9.3,1.6-9.1
			c-2.8,0.2-5.1,6-5.2,11.8l-1.9-5.8C28.1,47.5,27.7,44.8,28,41.8z"/>
		<g>
			<g>
				<path class="st2" d="M170.5,136.4c0.1,0.4,0.2,0.8,0.3,1.3l0,0c1,4.8,3.6,12.7,9.3,14.2c0,0-3.1-16.2,8-20.5
					c11.1-4.2,9.9-8.3,9.2-15.4c-0.6-7.2-3.1-8.5,4.6-15.2c7.7-6.7,6.2-16.7,6.2-16.7s-7.3,11.4-15.1,11.7
					c-7.8,0.3-9.1,6.9-8.8,11.9s-6.3,5.5-9.9,8.4s-4.3,17.9-4.3,17.9S170.2,134.9,170.5,136.4z"/>
			</g>
			<g>
				<path class="st3" d="M170.5,136.4c0.1,0.4,0.2,0.8,0.3,1.3c0.8-2.4,1.9-4.4,3-6c2.5-3.7,6-6.7,9.1-7.9c5-1.9,7.5-6.8,7.9-16
					c0.3-5.3,5.8-8.4,5.9-8.5c0.2-0.1,0.2-0.3,0.1-0.5c-0.1-0.2-0.3-0.2-0.5-0.1c-0.2,0.1-5.9,3.3-6.2,9c-0.5,8.8-2.8,13.6-7.5,15.4
					c-3.3,1.3-6.9,4.3-9.5,8.2C172.3,132.7,171.3,134.4,170.5,136.4z"/>
			</g>
		</g>
		<g>
			<g>
				<path class="st3" d="M47.7,151.9h7.8c-4.2-0.7-14.7-5.2-15.6-14.2c-1.2-11.4-5.2-11.2-12.1-12.4c-6.8-1.2-8.7,0.8-13.1-8.1
					c-4.3-8.8-14-10-14-10s8.8,9.6,7.1,16.9c-1.7,7.3,4.2,10.2,8.8,11.2c4.7,0.9,3.6,7.2,5.3,11.3c0.8,1.8,4.1,3.8,7.5,5.3H47.7z"/>
			</g>
			<g>
				<path class="st1" d="M30.8,140.6c0.3,3.4,2.3,7.5,5.2,10.9c0.1,0.1,0.2,0.2,0.3,0.4h0.9c-0.3-0.3-0.5-0.5-0.7-0.8
					c-2.8-3.2-4.8-7.3-5.1-10.5c-0.5-5.1-4.5-8.7-12.9-11.4c-4.9-1.6-6.4-7.5-6.4-7.6c0-0.2-0.2-0.3-0.4-0.2c-0.2,0-0.3,0.2-0.2,0.4
					c0.1,0.3,1.6,6.4,6.9,8.1C26.5,132.4,30.3,135.8,30.8,140.6z"/>
			</g>
		</g>
		<g>
			<g>
				<path class="st2" d="M51.9,130.7c-0.2,0.6-0.4,1.2-0.6,1.8l0,0c-2.2,6.7-6.8,18-15.2,19.3c0,0,6.6-23.1-8.5-30.9
					s-12.8-13.3-10.8-23.4c2-10.1,5.7-11.7-4.2-22.5c-10-10.8-6.3-24.8-6.3-24.8s8.6,17.4,19.7,19s12,11.3,10.8,18.3
					c-1.2,7,8.1,8.8,12.8,13.4c4.7,4.6,3.3,26.2,3.3,26.2S52.5,128.6,51.9,130.7z"/>
			</g>
			<g>
				<path class="st3" d="M51.9,130.7c-0.2,0.6-0.4,1.2-0.6,1.8c-0.8-3.6-2.1-6.6-3.3-9c-3-5.6-7.5-10.5-11.8-12.7
					c-6.9-3.5-9.6-10.9-8.9-24c0.4-7.6-7-12.9-7.1-13c-0.2-0.2-0.3-0.5-0.1-0.7c0.2-0.2,0.5-0.3,0.7-0.1c0.3,0.2,8,5.7,7.5,13.8
					c-0.7,12.7,1.9,19.8,8.4,23.1c4.6,2.3,9.1,7.2,12.3,13.1C50,125.1,51.1,127.7,51.9,130.7z"/>
			</g>
		</g>
	</g>
	<g>
		<g>
			<path class="st4" d="M57.9,146.4c0,1.8,0.1,3.6,0.1,5.4h17c0-2,0.1-4,0.1-5.8c0.1-4.9,0.1-9,0.1-11.5c0-1.8,0-2.8,0-2.8
				l-17.3-0.2c0,0,0,1.5,0,3.9C57.8,138.2,57.8,142.1,57.9,146.4z"/>
			<path class="st5" d="M57.8,135.5c0,2.7,0,6.6,0.1,10.9c5.3,0.4,11.2,0.4,17.1-0.3c0.1-4.9,0.1-9,0.1-11.5L57.8,135.5z"/>
		</g>
		<g>
			<path class="st4" d="M36.5,142.5c0,2.8,0.1,5.9,0.1,9.3h17c0-2,0.1-4,0.1-5.8c0.1-4,0.1-7.7,0.1-10.3c0-2.6,0-4.2,0-4.2
				l-17.3,0.2c0,0,0,1.8,0,4.9C36.5,138.3,36.5,140.3,36.5,142.5z"/>
			<path class="st5" d="M36.5,136.7c0,1.6,0,3.6,0,5.9c3.4,1,9.6,2.6,17.2,3.5c0.1-4,0.1-7.7,0.1-10.3L36.5,136.7z"/>
		</g>
		<g>
			<path class="st4" d="M64.9,40.6c0,0,2.7-2.6,2.7-5.2c0-2.6-1.8-1.8-2.7-4.2c-0.9-2.4-3.8-3.9-5.3-3.6c-1.5,0.3-4.8-5.7-9.2-4.7
				c-4.4,1.1-4,6.7-5.9,7.5c-1.9,0.8-1.4,4.2-0.4,4.9c1,0.8,1.4,3.8,2,3.8C46.7,39,64.9,40.6,64.9,40.6z"/>
			<g>
				<path class="st6" d="M46.6,40.5c0,0-1.7-2.3-3-0.4c-1.3,1.9,0.5,7.5,3.6,6.1L46.6,40.5z"/>
				<g>
					<path class="st7" d="M46.6,44.5c-0.1,0-0.2-0.1-0.3-0.2c-0.5-1.7-2.3-2.4-2.3-2.4c-0.1-0.1-0.2-0.2-0.2-0.3
						c0.1-0.1,0.2-0.2,0.3-0.2c0.1,0,2.1,0.8,2.6,2.8C46.9,44.3,46.8,44.4,46.6,44.5C46.6,44.5,46.6,44.5,46.6,44.5z"/>
				</g>
				<g>
					<path class="st7" d="M44.8,43.6c0,0-0.1,0-0.1,0c-0.1-0.1-0.2-0.2-0.1-0.4c0,0,0.3-0.5,1-0.8c0.1-0.1,0.3,0,0.3,0.1
						c0.1,0.1,0,0.3-0.1,0.3c-0.5,0.2-0.8,0.6-0.8,0.6C44.9,43.6,44.9,43.6,44.8,43.6z"/>
				</g>
			</g>
			<g>
				<path class="st6" d="M64.3,40.5c0,0,1.7-2.3,3-0.4c1.3,1.9-0.5,7.5-3.6,6.1L64.3,40.5z"/>
				<g>
					<path class="st7" d="M64.3,44.5c0.1,0,0.2-0.1,0.3-0.2c0.5-1.7,2.3-2.4,2.3-2.4c0.1-0.1,0.2-0.2,0.2-0.3
						c-0.1-0.1-0.2-0.2-0.3-0.2c-0.1,0-2.1,0.8-2.6,2.8C64,44.3,64.1,44.4,64.3,44.5C64.2,44.5,64.2,44.5,64.3,44.5z"/>
				</g>
				<g>
					<g>
						<path class="st7" d="M66.1,43.6c0,0,0.1,0,0.1,0c0.1-0.1,0.2-0.2,0.1-0.4c0,0-0.3-0.5-1-0.8c-0.1-0.1-0.3,0-0.3,0.1
							c-0.1,0.1,0,0.3,0.1,0.3c0.5,0.2,0.8,0.6,0.8,0.6C65.9,43.6,66,43.6,66.1,43.6z"/>
					</g>
				</g>
			</g>
			<path class="st8" d="M59.6,50.9v5.5c0,0-1.7,2.8-3.9,3c-2.2,0.2-4.2-2.4-4.2-2.4v-5.7L59.6,50.9z"/>
			<path class="st6" d="M59.6,50.9v2.5c-1.5,1.7-4.2,2.1-8.1,1.5v-3.6L59.6,50.9z"/>
			<path class="st8" d="M65.5,36.7c-0.1,2.2-0.3,4.9-0.7,7c-0.1,0.5-0.2,1-0.3,1.5c-1.2,4.1-4.1,11.1-12.3,8.2
				c-3.6-1.3-5.3-5.3-6-9.4c-0.5-2.8-0.6-5.6-0.5-7.6c0-2,1.2-3.9,2.9-4.9c4.8-2.7,9.9-1.7,13.3-0.4C64.1,31.9,65.6,34.2,65.5,36.7z
				"/>
			<path class="st4" d="M46.1,44c0,0,0.8,4.7,1.5,6.5c0.8,1.7,2.8,2,3.6,3.5c1.1,2.1,2.8,3.7,5.5,2.7c2.3-0.8,2.2-2,3.5-2.9
				c2.2-1.6,3.3-3.3,3.4-4.7c0.1-1.4,1.2-5.4,1.2-5.4l-1.2-0.1c0,0-0.7,1.4-1.7,2.9c-1-2.2-5.8-0.6-5.8-0.6l-0.9,0.3l-0.9-0.3
				c0,0-4.8-1.5-5.8,0.8c-0.6-0.9-1.1-1.9-1.3-3L46.1,44z M55.3,47c5.5-0.9,4.5,2.3,4.5,2.4v0c0,0,0,0,0,0c-0.4,0.4-0.7,0.7-1.1,0.9
				c-2.1,1.1-2.4,1-3.2,1c-0.9,0-2-0.2-3.2-0.9c-0.4-0.2-0.9-0.6-1.5-1.2C50.6,49.2,49.8,46.2,55.3,47z"/>
			<path class="st4" d="M52,41.2c0,0.6-0.3,1.1-0.7,1.1c-0.4,0-0.7-0.5-0.7-1.1c0-0.6,0.3-1.1,0.7-1.1C51.7,40.1,52,40.6,52,41.2z"
				/>
			<path class="st4" d="M60.1,41.2c0,0.6-0.3,1.1-0.7,1.1c-0.4,0-0.7-0.5-0.7-1.1c0-0.6,0.3-1.1,0.7-1.1
				C59.8,40.1,60.1,40.6,60.1,41.2z"/>
			<path class="st4" d="M62.1,37.7c0,0-2.8-1.1-5-0.2l0.2,1.2c0,0,3.2-0.3,4.8,0.4C62.2,38.6,62.3,38.2,62.1,37.7z"/>
			<path class="st4" d="M48.7,37.7c0,0,2.8-1.1,5-0.2l-0.2,1.2c0,0-3.2-0.3-4.8,0.4C48.5,38.6,48.5,38.2,48.7,37.7z"/>
			<g>
				<path class="st6" d="M55.5,45.7c0.4,0,0.9-0.2,1-0.2c0.1-0.1,0.2-0.2,0.1-0.3C56.6,45,56.4,45,56.3,45c-0.2,0.1-0.8,0.2-1.1,0.1
					c0,0-0.1-0.1-0.1-0.2c-0.1-0.9,0.2-4,0.2-4c0-0.1-0.1-0.3-0.2-0.3c-0.1,0-0.3,0.1-0.3,0.2c0,0.1-0.3,3.2-0.2,4.1
					c0,0.4,0.2,0.6,0.4,0.6C55.1,45.7,55.3,45.7,55.5,45.7z"/>
			</g>
			<path class="st9" d="M52.2,47.5c0.2,1,0.9,2.9,3.1,2.9c2.2,0,2.9-1.7,3.1-2.9H52.2z"/>
			<path class="st4" d="M65.5,36.7c-0.1,2.2-0.3,4.9-0.7,7l-1.2-0.1c0,0,0.3-1.8,0.4-3c0.1-1.2,0.4-3.4-0.7-3.7
				c-1-0.3-0.4-2.8-1.8-3.9c-1.4-1.1-4.5-2.1-6.6-0.8c-2.1,1.3-4.4,0.6-5.4,0.8c-1,0.2-2.3,1.5-1.9,2.8c0.4,1.2-0.7,2-1,3.3
				c-0.3,1.3,0.6,4.7,0.6,4.7L46.1,44c-0.5-2.8-0.6-5.6-0.5-7.6c0-2,1.2-3.9,2.9-4.9c4.8-2.7,9.9-1.7,13.3-0.4
				C64.1,31.9,65.6,34.2,65.5,36.7z"/>
		</g>
		<g>
			<g>
				<path class="st3" d="M78.7,140.1c-5.3,1.4-10.7,2.2-16,2.6c-0.2,0-0.5,0-0.7,0.1c-0.7,0-1.5,0.1-2.2,0.1
					c-3.6,0.2-7.3,0.1-10.9-0.2c-0.7-0.1-1.5-0.1-2.2-0.2c-0.2,0-0.5,0-0.7-0.1c-4.3-0.5-8.7-1.3-13-2.3c0-4,0-16.6,0.3-30.3
					c0-1.6,0.1-3.3,0.1-5c0.4-18.1,1.1-36.4,2.5-38.2c1.3-1.8,5.1-4,8.8-6c0.2-0.1,0.4-0.2,0.7-0.4c0.8-0.5,1.6-0.9,2.4-1.3
					c1.6-0.9,3-1.7,3.9-2.3v0.5c0,0,2,2.6,4.2,2.4c2-0.2,3.6-2.5,3.9-3c1,0.7,2.7,1.6,4.7,2.7c0.6,0.3,1.1,0.6,1.7,0.9
					c0.2,0.1,0.4,0.2,0.7,0.3c4.1,2.2,8.5,4.6,9.8,6.4c0.1,0.1,0.2,0.4,0.3,0.7c0.8,2.6,1.3,11.4,1.6,22c0,0,0,0.1,0,0.1
					c0,0.4,0,0.9,0,1.3c0,0.1,0,0.1,0,0.2c0.1,3.7,0.2,7.6,0.2,11.6c0,0.3,0,0.6,0,0.9c0,0.2,0,0.3,0,0.5c0,0.8,0,1.6,0,2.3
					c0,0.6,0,1.1,0,1.7C78.8,122.4,78.7,135.9,78.7,140.1z"/>
			</g>
			<g>
				<path class="st10" d="M78.3,91c-1.3-2.1-2.7-4.2-4-6.1c0,0,0,0,0,0c-0.5-0.8-1.1-1.5-1.6-2.2c0,0,0,0,0,0
					c-0.2-0.2-0.3-0.4-0.5-0.6c0,0,0-0.1-0.1-0.1l0,0c0-0.1,0-0.3,0.1-0.4c0.2-0.1,0.4-0.1,0.5,0.1c1.6,2.1,3.6,5,5.4,8.1
					c0,0,0,0.1,0,0.1C78.3,90.1,78.3,90.6,78.3,91z"/>
			</g>
			<path class="st3" d="M76.5,66.6c0,0,8,14.7,12.9,22.2c0,0,2.8-2.6,6.4-6c3.9-3.7,9.3-9.9,9.3-9.9l3,3.5c0,0-12.1,21.7-17.5,24.5
				c-5.4,2.7-15.4-16.6-15.4-16.6L76.5,66.6z"/>
			<g>
				<path class="st10" d="M42.4,124.7C42.4,124.7,42.4,124.7,42.4,124.7c-0.2,0-0.4-0.2-0.4-0.4c0.4-11.9-5.7-15.8-5.8-15.8
					c-0.2-0.1-0.2-0.3-0.1-0.5c0.1-0.2,0.3-0.2,0.5-0.1c0.1,0,1.7,1,3.3,3.6c1.4,2.3,3.1,6.4,2.9,12.9
					C42.8,124.5,42.6,124.7,42.4,124.7z"/>
			</g>
			<g>
				<path class="st10" d="M68.8,113.5c-0.2,0-0.3-0.1-0.4-0.3c-0.2-2.5,0.6-4.3,1.7-6.6c0.3-0.7,0.6-1.4,0.9-2.2
					c2-4.9,1-10.5,1-10.6c0-0.2,0.1-0.4,0.3-0.4c0.2,0,0.4,0.1,0.4,0.3c0,0.2,1.1,5.9-1,11c-0.3,0.8-0.6,1.5-1,2.2
					c-1,2.3-1.8,4-1.6,6.3C69.2,113.3,69,113.5,68.8,113.5C68.8,113.5,68.8,113.5,68.8,113.5z"/>
			</g>
			<g>
				<path class="st9" d="M47.6,58.9c0.2,1.2,0.4,2.7,0.6,4.4c0.1,0.5,0.2,1,0.2,1.6c0.3,1.8,0.5,3.7,0.7,5.7
					c0.1,0.5,0.1,1.1,0.2,1.6c0.2,1.9,0.3,3.9,0.4,5.7c0,0.5,0,1.1,0,1.6c0,1.4-0.1,2.6-0.2,3.7c-0.1,0.7-0.2,1.3-0.3,2
					c-0.1,0.5-0.1,1.1-0.2,1.6c-0.2,2-0.3,3.9-0.3,5.7c0,0.5,0,1.1,0,1.6c0,2,0.1,3.9,0.3,5.7c0,0.5,0.1,1.1,0.2,1.6
					c0.2,2,0.5,3.8,0.7,5.7c0.1,0.5,0.1,1.1,0.2,1.6c0.1,0.8,0.2,1.7,0.3,2.5c0.1,0.9,0.2,1.9,0.2,3.1c0,0.5,0,1,0,1.6
					c0,1.7,0,3.7-0.1,5.7c0,0.5,0,1.1-0.1,1.6c-0.1,1.9-0.2,3.8-0.3,5.7c0,0.5-0.1,1.1-0.1,1.6c-0.1,2-0.3,3.9-0.5,5.7
					c0,0.5-0.1,1.1-0.1,1.6c-0.2,2-0.4,3.7-0.5,5.1c3.6,0.3,7.3,0.3,10.9,0.2c0.1-1.5,0.3-3.9,0.5-6.7c0-0.5,0.1-1.1,0.1-1.6
					c0.1-1.8,0.3-3.7,0.3-5.7c0-0.5,0-1.1,0.1-1.6c0.1-1.9,0.1-3.9,0-5.7c0-0.5-0.1-1.1-0.1-1.6c0-0.5-0.1-1.1-0.2-1.6
					c-0.2-1.4-0.2-2.8-0.2-4.1c0-0.5,0-1.1,0-1.6c0.1-1.8,0.3-3.7,0.5-5.7c0.1-0.5,0.1-1.1,0.2-1.6c0.2-1.7,0.4-3.6,0.6-5.6
					c0-0.5,0.1-1.1,0.1-1.6c0.1-1.7,0.2-3.6,0.2-5.6c0-0.5,0-1.1,0-1.6c0-1.8-0.1-3.6-0.2-5.7c0-0.2,0-0.4,0-0.5
					c0-0.4,0-0.7-0.1-1.1c-0.1-1.9-0.1-3.8,0-5.7c0-0.5,0.1-1.1,0.1-1.6c0.1-1.9,0.4-3.8,0.6-5.6c0.1-0.5,0.1-1.1,0.2-1.6
					c0.3-2,0.6-3.8,0.9-5.5c0.1-0.5,0.2-1.1,0.3-1.6c0.2-1.1,0.4-2.1,0.5-3c-2-1.1-3.7-2-4.7-2.7c-0.3,0.4-1.8,2.8-3.9,3
					c-2.2,0.2-4.2-2.4-4.2-2.4v-0.5C50.7,57.2,49.2,58,47.6,58.9z"/>
				<g>
					<g>
						<path class="st11" d="M48.2,63.3c0.1,0.5,0.2,1,0.2,1.6c2,0,4.4-0.3,7.2-0.9c3-0.7,5.7-0.6,7.8-0.2c0.1-0.5,0.2-1.1,0.3-1.6
							c-2.3-0.4-5.2-0.5-8.5,0.2C52.5,63.1,50.2,63.4,48.2,63.3z"/>
					</g>
					<g>
						<path class="st11" d="M49.2,70.6c0.1,0.5,0.1,1.1,0.2,1.6c1.8,0,3.9-0.3,6.3-0.9c2.5-0.6,4.8-0.6,6.7-0.4
							c0.1-0.5,0.1-1.1,0.2-1.6c-2.1-0.3-4.5-0.2-7.3,0.4C53,70.2,50.9,70.5,49.2,70.6z"/>
					</g>
					<g>
						<path class="st11" d="M49.8,77.8c0,0.5,0,1.1,0,1.6c1.7-0.1,3.6-0.4,5.9-0.9c2.2-0.5,4.2-0.6,6-0.4c0-0.5,0.1-1.1,0.1-1.6
							c-1.9-0.2-4.1-0.1-6.4,0.5C53.2,77.4,51.4,77.7,49.8,77.8z"/>
					</g>
					<g>
						<path class="st11" d="M49.1,86.7c1.9,0,4-0.3,6.6-0.9c2.2-0.5,4.3-0.6,6.1-0.4c0-0.2,0-0.4,0-0.5c0-0.4,0-0.7-0.1-1.1
							c-1.9-0.1-4,0-6.3,0.5c-2.3,0.5-4.3,0.8-6,0.9C49.2,85.6,49.1,86.2,49.1,86.7z"/>
					</g>
					<g>
						<path class="st11" d="M48.7,93.9c1.9,0,4.2-0.3,6.9-0.9c2.3-0.5,4.5-0.6,6.3-0.4c0-0.5,0-1.1,0-1.6c-1.9-0.2-4.2-0.1-6.6,0.5
							c-2.6,0.6-4.7,0.9-6.6,0.9C48.7,92.9,48.7,93.4,48.7,93.9z"/>
					</g>
					<g>
						<path class="st11" d="M49,99.6c0,0.5,0.1,1.1,0.2,1.6c1.8,0,4-0.3,6.5-0.9c2.2-0.5,4.2-0.6,6-0.4c0-0.5,0.1-1.1,0.1-1.6
							c-1.9-0.2-4.1-0.1-6.4,0.5C52.9,99.3,50.8,99.6,49,99.6z"/>
					</g>
					<g>
						<path class="st11" d="M49.9,106.9c0.1,0.5,0.1,1.1,0.2,1.6c1.6-0.1,3.4-0.4,5.5-0.9c1.9-0.4,3.6-0.6,5.2-0.5
							c0.1-0.5,0.1-1.1,0.2-1.6c-1.7-0.1-3.6,0-5.7,0.5C53.3,106.5,51.5,106.8,49.9,106.9z"/>
					</g>
					<g>
						<path class="st11" d="M50.6,114.1c0,0.5,0,1,0,1.6c1.5-0.1,3.2-0.4,5-0.8c1.7-0.4,3.2-0.5,4.6-0.5c0-0.5,0-1.1,0-1.6
							c-1.5,0-3.2,0.1-5,0.5C53.6,113.7,52,114,50.6,114.1z"/>
					</g>
					<g>
						<path class="st11" d="M50.4,123c1.5-0.1,3.3-0.4,5.2-0.9c1.8-0.4,3.6-0.5,5.1-0.5c0-0.5-0.1-1.1-0.1-1.6
							c-1.6,0-3.4,0.1-5.4,0.5c-1.8,0.4-3.4,0.7-4.8,0.8C50.5,121.9,50.5,122.4,50.4,123z"/>
					</g>
					<g>
						<path class="st11" d="M50,130.3c1.7-0.1,3.5-0.4,5.7-0.9c1.8-0.4,3.5-0.5,5.1-0.5c0-0.5,0-1.1,0.1-1.6
							c-1.6-0.1-3.5,0.1-5.5,0.5c-2,0.5-3.7,0.7-5.2,0.8C50.1,129.2,50,129.7,50,130.3z"/>
					</g>
					<g>
						<path class="st11" d="M49.4,137.6c1.8,0,3.9-0.3,6.3-0.9c1.6-0.4,3.2-0.5,4.6-0.5c0-0.5,0.1-1.1,0.1-1.6
							c-1.5,0-3.3,0.1-5.1,0.5c-2.2,0.5-4.1,0.8-5.8,0.9C49.5,136.5,49.4,137,49.4,137.6z"/>
					</g>
				</g>
			</g>
			<g>
				<g>
					<path class="st10" d="M61.9,142.8c0.2,0,0.5,0,0.7-0.1c1.4-8.4,0.6-20.8,0.3-24.6c-0.3-3.9,0.3-9,1.7-13.9
						c1.1-3.8,0.4-12.6-0.1-19.6c-0.1-2-0.3-3.9-0.4-5.4c-0.3-5,1.5-14.2,2.5-18.8c-0.2-0.1-0.4-0.2-0.7-0.3c-1,4.6-2.9,14-2.6,19.2
						c0.1,1.5,0.2,3.4,0.4,5.4c0.5,7,1.2,15.7,0.1,19.4c-1.4,5-2,10.1-1.7,14.1C62.6,122,63.4,134.4,61.9,142.8z"/>
				</g>
				<g>
					<path class="st10" d="M47.3,108.5c0.8,5.2,0.6,8.5,0.3,12.4c-0.1,1.3-0.2,2.6-0.3,4c-0.2,4.5-1,13.6-1.3,17.5
						c0.2,0,0.5,0.1,0.7,0.1c0.3-3.9,1.1-13,1.3-17.5c0.1-1.4,0.2-2.7,0.3-4c0.3-3.9,0.6-7.3-0.3-12.6c-0.2-1.1-0.4-2.3-0.6-3.4
						c-1-5.6-1.9-11.5-1.5-14.3c0.1-0.7,0.3-1.5,0.4-2.3c0.6-3.4,1.4-7.6,1.2-11.2c-0.2-3.6-1.7-13.4-2.3-17.1
						c-0.2,0.1-0.4,0.2-0.7,0.4c0.6,3.9,2,13.2,2.2,16.8c0.2,3.6-0.5,7.7-1.2,11c-0.2,0.8-0.3,1.6-0.4,2.3
						c-0.5,2.9,0.5,8.5,1.5,14.5C46.9,106.2,47.1,107.4,47.3,108.5z"/>
				</g>
			</g>
		</g>
		<g>
			<path class="st8" d="M33.4,72.5c0,0-7.2,24-9,32.6c-1.8,8.6-1.9,26.3-1.9,26.3s-3.1,6.5-3.2,9.4c-0.1,3.1,1.5,5.6,1.4,7.6
				c-0.2,2,2.3,0.9,1.6-3.2c-0.7-4.1,1.3-7.8,2.1-7.7c0.9,0.1-0.7,4.5,0.1,6.1c0.8,1.6,1.7-1.5,2.7-3.3c1-1.9,1-6.1,0.5-9.1
				c-0.5-3,5-21.2,5-26.5l6.9-23.3C39.5,81.4,37.2,71.7,33.4,72.5z"/>
			<path class="st3" d="M40.3,80.8c-0.2,1.5-1.1,4.2-2.2,7.5v0c-0.1,0.3-0.2,0.6-0.3,0.9c0,0,0,0,0,0c-0.3,0.8-0.6,1.7-0.9,2.6
				c0,0,0,0,0,0c-1.2,3.7-2.6,8-3.7,12.3c-0.4,1.5-0.8,3-1.1,4.5c-0.4,1.9-0.8,3.8-1,5.7c-0.9,6.7-2.7,15.3-2.7,15.3
				c-2.6,1.1-6.6-0.3-6.6-0.3s-0.1-12.3,0.5-17.1c0.7-5.9,1.6-10.1,2.7-14.9c3.1-13.3,8.5-26.3,10-29.7c0.1-0.3,0.2-0.5,0.3-0.6h1.3
				C39.2,68.5,41,76.7,40.3,80.8z"/>
			<path class="st2" d="M21.7,126.9l0.2,2.8c0,0,3.8,1.2,6.7,0.4l0.8-2.5C26.6,127.7,24,127.6,21.7,126.9z"/>
			<g>
				<path class="st10" d="M38.1,88.3L38.1,88.3c0,0,0,0.1,0,0.1c-0.1,0.2-0.2,0.5-0.3,0.7c0,0,0,0,0,0c-0.3,0.8-0.6,1.7-0.9,2.6
					c0,0,0,0,0,0c-1.5,4.8-3,10.8-3.7,14.6c0-0.8,0-1.5,0-2.3c-0.4,1.5-0.8,3-1.1,4.5c0.1-1.4,0.5-3.5,1.1-5.9
					c1.1-4.8,2.8-10.8,4.2-14.5c0.1-0.2,0.3-0.3,0.5-0.2C38.1,88.1,38.1,88.2,38.1,88.3z"/>
			</g>
		</g>
	</g>
	<g>
		<g>
			<g>
				<g>
					<path class="st4" d="M167,151.9h17c-0.1-1.2-0.1-2.3-0.2-3.4c-0.3-5.8-0.5-9.8-0.5-9.8l-13.8,0.6l-1.1,0.1l-2,0.1
						c0,0,0.2,3.5,0.5,8.7C166.8,149.3,166.9,150.6,167,151.9z"/>
				</g>
			</g>
			<path class="st5" d="M168.3,139.4l-2,0.1c0,0,0.2,3.5,0.5,8.7c5.3,0.4,11.1,0.6,17.1,0.3c-0.3-5.8-0.5-9.8-0.5-9.8l-13.8,0.6
				L168.3,139.4z"/>
			<g>
				<path class="st5" d="M170.1,151.9c-0.3-5.4-0.6-10-0.7-12.6l-1.1,0.1c0.1,2.5,0.4,7.1,0.7,12.5H170.1z"/>
			</g>
		</g>
		<g>
			<g>
				<g>
					<path class="st4" d="M162,151.9c0.1-1.5,0.2-2.8,0.2-4.1c0.3-4.9,0.5-8.3,0.5-8.3l-2.2-0.1l-1.1-0.1l-13.7-0.6
						c0,0-0.2,2.4-0.4,6.1c-0.1,2-0.2,4.4-0.4,7H162z"/>
				</g>
			</g>
			<path class="st5" d="M145.3,144.8c3.7,0.9,9.7,2.1,16.9,2.9c0.3-4.9,0.5-8.3,0.5-8.3l-2.2-0.1l-1.1-0.1l-13.7-0.6
				C145.7,138.7,145.5,141,145.3,144.8z"/>
			<g>
				<path class="st5" d="M159.8,151.9c0.3-5.4,0.6-10,0.7-12.5l-1.1-0.1c-0.1,2.6-0.4,7.2-0.7,12.6H159.8z"/>
			</g>
		</g>
		<g>
			<g>
				<g>
					<path class="st3" d="M185.7,141.3c-3.5,1-6.9,1.7-10.4,2.2c-1.2,0.2-2.4,0.3-3.6,0.4c-1.6,0.2-3.2,0.3-4.9,0.3
						c-2.7,0.1-5.4,0-8.1-0.2c-5.2-0.4-10.4-1.3-15.6-2.7c0-4.8,0-22.2,0.4-38.9c0-0.8,0-1.5,0.1-2.3c0-0.2,0-0.3,0-0.5
						c0-0.2,0-0.3,0-0.5c0-0.5,0-1.1,0-1.6c0-1.1,0.1-2.1,0.1-3.2c0-0.6,0-1.3,0.1-1.9c0-0.1,0-0.3,0-0.4c0-0.4,0-0.8,0-1.2
						c0,0,0,0,0,0c0-0.1,0-0.3,0-0.4c0-0.4,0-0.7,0-1.1c0-0.3,0-0.6,0-0.9c0.4-11.3,1-20.2,1.8-21.5c1.4-2.1,6.3-5,10.2-7.3
						c1.4-0.8,3.1-1.7,4-2.3c1.4,1.1,2.4,2.1,4.5,2.1c2.3-0.1,2.9-1.5,3.7-2.7c0.5,0.3,1.9,1.5,2.6,1.9c0.6,0.4,1.3,0.7,1.9,1.1
						c1.1,0.6,2.2,1.2,3.3,1.9c1.7,1,3.3,2,4.6,2.9c1.3,1,2.4,1.9,2.9,2.7c0.8,1.1,1.3,8.6,1.6,18.4c0,0.3,0,0.7,0,1
						c0,0,0,0.1,0,0.1c0,0.4,0,0.7,0,1.1c0,1.1,0.1,2.2,0.1,3.4c0,0.2,0,0.5,0,0.7c0,0.2,0,0.4,0,0.5c0,0.5,0,0.9,0,1.4
						c0,0.1,0,0.2,0,0.3c0,1.3,0.1,2.5,0.1,3.8c0,0.4,0,0.8,0,1.1C185.9,116.8,185.8,136.1,185.7,141.3z"/>
				</g>
			</g>
			<path class="st10" d="M185.6,99.2l-5.5,5.6l-5.1-5.2l-5.1,5.2l-5.1-5.2l-5.1,5.2l-5.2-5.2l-5.2,5.2l-5.6-5.7c0-0.5,0-1.1,0-1.6
				c0-1.1,0.1-2.1,0.1-3.2l5.5-5.5l5.2,5.2l5.2-5.2l5.1,5.2l5.1-5.2L175,94l5.1-5.2l5.4,5.5c0,1.3,0.1,2.5,0.1,3.8
				C185.6,98.5,185.6,98.9,185.6,99.2z"/>
			<g>
				<path class="st10" d="M176.1,127.9C176.1,127.9,176.1,127.9,176.1,127.9c-7.3,0-13.6-3.4-17.6-6.2c-4.3-3-6.9-6.1-6.9-6.1
					c-0.1-0.1-0.1-0.4,0-0.5c0.1-0.1,0.4-0.1,0.5,0c0,0,2.6,3,6.8,6c3.9,2.7,10,6,17.2,6c0.2,0,0.4,0.2,0.4,0.4
					C176.4,127.8,176.3,127.9,176.1,127.9z"/>
			</g>
			<g>
				<path class="st10" d="M171.5,123.6c-6.3-1.2-11.8-6-12-6.2c-0.1-0.1-0.2-0.4,0-0.5c0.1-0.1,0.4-0.2,0.5,0
					c0.1,0.1,6.6,5.7,13.2,6.3c0.2,0,0.3,0.2,0.3,0.4c0,0.2-0.2,0.3-0.4,0.3C172.6,123.8,172,123.7,171.5,123.6z"/>
			</g>
			<g>
				<path class="st10" d="M159,69.2c-0.2,0-0.3-0.1-0.3-0.3c0-0.2,0.1-0.4,0.3-0.4c9-1.7,11.7-7.5,11.7-7.5c0.1-0.2,0.3-0.3,0.5-0.2
					c0.2,0.1,0.3,0.3,0.2,0.5C171.1,61.5,168.4,67.4,159,69.2C159,69.2,159,69.2,159,69.2z"/>
			</g>
			<g>
				<path class="st10" d="M148.1,84.7L148.1,84.7c0,0,0,0.1,0,0.1c-0.1,0.2-0.3,0.4-0.4,0.7c0,0,0,0,0,0c-0.4,0.7-0.9,1.5-1.4,2.4
					c0,0,0,0,0,0c-0.8,1.3-1.5,2.7-2.3,4.2c0-0.4,0-0.8,0-1.2c0,0,0,0,0,0c0-0.1,0-0.3,0-0.4c1.2-2.3,2.5-4.4,3.5-6
					c0.1-0.2,0.3-0.2,0.5-0.1C148,84.4,148.1,84.6,148.1,84.7z"/>
			</g>
		</g>
		<g>
			<path class="st8" d="M193.2,71.6c0,0,11.5-3.7,14.8-11.2c1-2.2-7.1-24.3-7.1-24.3l-3.9,0.2c0,0,1.1,7.7,1.8,12
				c0.6,3.6,1.4,7.8,1.8,9.2c0.1,0.3,0.1,0.5,0.1,0.5c-0.2,0-0.4,0.1-0.6,0.1c-5.4,1.1-12.2,4.6-12.2,4.6L193.2,71.6z"/>
			<g>
				<g>
					<path class="st6" d="M203.6,60.2c0.2,0.1,0.4,0.1,0.5-0.1c0.1-0.2,0.1-0.4-0.1-0.5c-0.8-0.6-2.1-1.3-3.4-2
						c0.1,0.3,0.1,0.5,0.1,0.5c-0.2,0-0.4,0.1-0.6,0.1C201.4,58.9,202.7,59.6,203.6,60.2z"/>
				</g>
			</g>
			<path class="st3" d="M175.7,61.5c0,0-3.5,8.1,5.4,12.7c6.1,3.1,20-5,20-5l-5-10.5C196.1,58.6,183.3,63.8,175.7,61.5z"/>
			<path class="st8" d="M198.9,23.7c-0.3,0.2-0.3,1.7-0.1,3.1c0,0-0.1,0-0.1,0c-0.4-1.9-1.2-5.1-1.9-4.5c-0.5,0.4,0.2,3.2,0.6,4.8
				c-0.1,0-0.2,0.1-0.3,0.1c-0.5-2-1.7-5.7-2.4-5c-0.5,0.5,0.5,3.8,1,5.5c-0.1,0-0.1,0.1-0.2,0.1c-0.5-1.6-1.6-4.7-2.4-4
				c-0.7,0.7,1.3,5.4,1.3,5.4l0,0l0.5,1.8c0,0-0.6,0.3-1.6-0.8c-0.9-1.1-2.1-1.3-1.3,0.3c0.9,1.8,2.2,3,2.8,4.2
				c0.6,1.2,2.4,1.7,2.4,1.7l3.7-0.2c0,0,0.7-6.2-0.7-9.1l0,0C200,25.4,199.5,23.3,198.9,23.7z"/>
		</g>
		<g>
			<path class="st4" d="M153.7,38c0,6.2,3.8,10.5,10.1,10.5c6.2,0,10.6-4.6,10.6-10.9c0-1.7-0.3-3.3-0.8-4.7c0-0.1-0.1-0.2-0.1-0.3
				c-0.1-0.2-0.1-0.3-0.2-0.5c-0.1-0.2-0.2-0.5-0.4-0.7c-1.6-2.9-4.5-4.8-8.4-4.8C156.9,26.7,153.7,31.8,153.7,38z"/>
			<g>
				<path class="st6" d="M155.1,40.7c0,0-1.7-2.3-3-0.4c-1.3,1.9,0.5,7.6,3.7,6.2L155.1,40.7z"/>
				<g>
					<path class="st7" d="M155,44.7c-0.1,0-0.2-0.1-0.3-0.2c-0.5-1.7-2.3-2.4-2.3-2.5c-0.1-0.1-0.2-0.2-0.2-0.3
						c0.1-0.1,0.2-0.2,0.3-0.2c0.1,0,2.1,0.8,2.6,2.8C155.3,44.5,155.2,44.7,155,44.7C155.1,44.7,155.1,44.7,155,44.7z"/>
				</g>
				<g>
					<path class="st7" d="M153.2,43.8c0,0-0.1,0-0.1,0c-0.1-0.1-0.2-0.2-0.1-0.4c0,0,0.3-0.5,1-0.8c0.1-0.1,0.3,0,0.4,0.1
						c0.1,0.1,0,0.3-0.1,0.4c-0.5,0.2-0.8,0.6-0.8,0.6C153.4,43.8,153.3,43.8,153.2,43.8z"/>
				</g>
			</g>
			<g>
				<path class="st6" d="M172.9,40.7c0,0,1.7-2.3,3-0.4c1.3,1.9-0.5,7.6-3.7,6.2L172.9,40.7z"/>
				<g>
					<path class="st7" d="M172.9,44.7c0.1,0,0.2-0.1,0.3-0.2c0.5-1.7,2.3-2.4,2.3-2.5c0.1-0.1,0.2-0.2,0.2-0.3
						c-0.1-0.1-0.2-0.2-0.3-0.2c-0.1,0-2.1,0.8-2.6,2.8C172.6,44.5,172.7,44.7,172.9,44.7C172.9,44.7,172.9,44.7,172.9,44.7z"/>
				</g>
				<g>
					<g>
						<g>
							<path class="st7" d="M174.7,43.8c0,0,0.1,0,0.1,0c0.1-0.1,0.2-0.2,0.1-0.4c0,0-0.3-0.5-1-0.8c-0.1-0.1-0.3,0-0.4,0.1
								c-0.1,0.1,0,0.3,0.1,0.4c0.5,0.2,0.8,0.6,0.8,0.6C174.6,43.8,174.7,43.8,174.7,43.8z"/>
						</g>
					</g>
				</g>
			</g>
			<path class="st8" d="M168.2,51.2v5.6c0,0-1.7,2.9-3.9,3.1c-2.3,0.2-4.3-2.5-4.3-2.5v-5.8L168.2,51.2z"/>
			<path class="st6" d="M168.2,51.2v2.5c-1.5,1.7-4.2,2.1-8.2,1.5v-3.6L168.2,51.2z"/>
			<path class="st8" d="M174.2,36.8c-0.1,2.2-0.3,4.9-0.7,7.1c-0.1,0.5-0.2,1.1-0.4,1.5c-1.2,4.1-4.1,11.2-12.4,8.3
				c-3.7-1.3-5.3-5.4-6.1-9.5c-0.5-2.8-0.6-5.6-0.6-7.7c0-2.1,1.2-4,3-5c4.9-2.8,10-1.7,13.4-0.4C172.8,32,174.3,34.3,174.2,36.8z"
				/>
			<path class="st4" d="M160.4,41.4c0,0.6-0.3,1.1-0.7,1.1c-0.4,0-0.7-0.5-0.7-1.1c0-0.6,0.3-1.1,0.7-1.1
				C160.1,40.3,160.4,40.8,160.4,41.4z"/>
			<path class="st4" d="M168.6,41.4c0,0.6-0.3,1.1-0.7,1.1c-0.4,0-0.7-0.5-0.7-1.1c0-0.6,0.3-1.1,0.7-1.1
				C168.2,40.3,168.6,40.8,168.6,41.4z"/>
			<path class="st4" d="M170.1,37.7c0,0-2.2-0.9-3.8-0.1l0.2,0.9c0,0,2.5-0.2,3.7,0.3C170.2,38.4,170.3,38,170.1,37.7z"/>
			<path class="st4" d="M157.4,37.7c0,0,2.2-0.9,3.8-0.1l-0.2,0.9c0,0-2.5-0.2-3.7,0.3C157.3,38.4,157.3,38,157.4,37.7z"/>
			<g>
				<path class="st6" d="M164.1,46c0.4,0,0.9-0.2,1-0.2c0.1-0.1,0.2-0.2,0.1-0.3c-0.1-0.1-0.2-0.2-0.3-0.1c-0.2,0.1-0.8,0.3-1.1,0.1
					c0,0-0.1-0.1-0.1-0.2c-0.1-0.9,0.2-4,0.2-4.1c0-0.1-0.1-0.3-0.2-0.3c-0.1,0-0.3,0.1-0.3,0.2c0,0.1-0.3,3.2-0.2,4.2
					c0,0.4,0.2,0.6,0.4,0.7C163.7,45.9,163.9,46,164.1,46z"/>
			</g>
			<path class="st9" d="M160.5,47.3c0.4,1.5,1.7,3.1,3.4,3.1c1.7,0,3-1.6,3.4-3.1H160.5z"/>
			<g>
				<path class="st6" d="M163.8,52.1c0.7,0,1.3-0.3,1.3-0.4c0.1-0.1,0.2-0.2,0.1-0.4c-0.1-0.1-0.2-0.2-0.4-0.1c0,0-0.5,0.3-1,0.3
					c-0.5,0-1-0.3-1-0.3c-0.1-0.1-0.3,0-0.4,0.1c-0.1,0.1,0,0.3,0.1,0.4C162.6,51.7,163.1,52.1,163.8,52.1z"/>
			</g>
			<path class="st4" d="M173.9,40.7h-1.2c0.1-1.2,0.3-3.3-0.7-3.7c-3.1-1,0.9-3.2-0.5-4.3c-1.4-1.1-5-0.6-7.4-0.7
				c-2.5-0.1-6.4,0-7.4,0.2c-1,0.2-0.4,1.8-0.1,3.1c0.4,1.2-1.2,2.6-1.4,3.9c-0.1,0.4-0.1,0.9,0,1.5h-1c-0.1-1.6-0.1-3-0.1-4.2
				c0-2.1,1.2-4,3-5c4.9-2.8,10-1.7,13.4-0.4c2.4,0.9,3.9,3.2,3.7,5.7C174.1,38,174,39.4,173.9,40.7z"/>
			<g>
				<g>
					<path class="st9" d="M159.6,44.5c-1.7,0-3-1.4-3-3c0-1.7,1.4-3,3-3c1.7,0,3,1.4,3,3C162.6,43.2,161.3,44.5,159.6,44.5z
						 M159.6,39c-1.4,0-2.5,1.1-2.5,2.5c0,1.4,1.1,2.5,2.5,2.5c1.4,0,2.5-1.1,2.5-2.5C162.2,40.1,161,39,159.6,39z"/>
				</g>
				<g>
					<path class="st9" d="M167.9,44.5c-1.7,0-3-1.4-3-3c0-1.7,1.4-3,3-3c1.7,0,3,1.4,3,3C170.9,43.2,169.5,44.5,167.9,44.5z
						 M167.9,39c-1.4,0-2.5,1.1-2.5,2.5c0,1.4,1.1,2.5,2.5,2.5c1.4,0,2.5-1.1,2.5-2.5C170.4,40.1,169.3,39,167.9,39z"/>
				</g>
				<g>
					<path class="st9" d="M157.1,40.6c-0.1,0-0.1,0-0.2-0.1l0,0c0,0-1.4-1.3-3.2-0.9c-0.1,0-0.3,0-0.3-0.2c0-0.1,0-0.3,0.2-0.3
						c2.1-0.5,3.6,1,3.6,1c0.1,0.1,0.1,0.2,0,0.3C157.2,40.5,157.2,40.6,157.1,40.6z"/>
				</g>
				<g>
					<path class="st9" d="M170.4,40.6c-0.1,0-0.2,0-0.2-0.1c-0.1-0.1,0-0.3,0.1-0.3c0.1-0.1,2.2-1.4,4-1.1c0.1,0,0.2,0.1,0.2,0.3
						c0,0.1-0.1,0.2-0.3,0.2c-1.6-0.3-3.7,1.1-3.7,1.1C170.5,40.5,170.5,40.6,170.4,40.6z"/>
				</g>
				<g>
					<path class="st9" d="M165,40.9c0,0-0.6-0.8-1.3-0.8c-0.7,0-1.2,0.8-1.2,0.8l-0.4-0.3c0,0,0.6-1,1.6-1c1,0,1.7,0.9,1.7,1
						L165,40.9z"/>
				</g>
			</g>
		</g>
		<g>
			<path class="st8" d="M147.1,84.3c0,0-3.2,6.2-6.9,11c-1.1,1.4-2.3,2.8-3.4,3.8c-1.8,1.7-3.6,2.5-5.1,1.8
				c-5.4-2.7-17.5-24.5-17.5-24.5l3-3.5c0,0,5.4,6.2,9.3,9.9c3.6,3.4,6.4,6,6.4,6c0.5-0.8,1-1.6,1.6-2.5c0.6-0.9,1.2-1.9,1.8-3
				c4.5-7.4,9.6-16.4,9.6-16.4L147.1,84.3z"/>
			<path class="st6" d="M140.1,95.3c-1.1,1.4-2.3,2.8-3.4,3.8l-2.3-12.8c0.6-0.9,1.2-1.9,1.8-3L140.1,95.3z"/>
			<path class="st3" d="M145.8,67L135,84.1l3.6,15l9-14.6C147.6,84.5,148.7,74.5,145.8,67z"/>
		</g>
	</g>
	<g>
		<g>
			<path class="st3" d="M132.2,151.9c-0.8-4.3-1.5-9.1-2.2-13.9c-0.2-1-0.3-2.1-0.4-3.1c-0.6-3.9-1.1-7.6-1.5-10.6
				c-0.2-1.2-0.3-2.2-0.4-3.2c-0.4-3.1-0.6-5-0.6-5l-17.2,0.6l-17.2-0.6c0,0-0.4,3.8-1.2,9.2c-0.1,1-0.3,2-0.4,3.1
				c-0.4,2.9-0.8,6-1.3,9.2c0,0,0,0.1,0,0.1c-0.1,1-0.3,2-0.5,3c0,0,0,0,0,0v0c-0.4,2.4-0.8,4.9-1.1,7.2c-0.2,1-0.3,1.9-0.5,2.9
				c-0.1,0.3-0.1,0.6-0.2,0.9H132.2z"/>
			<g>
				<path class="st10" d="M96.6,121.3c0,0.9-0.7,1.6-1.6,1.6c-0.9,0-1.6-0.7-1.6-1.6c0-0.9,0.7-1.6,1.6-1.6
					C95.9,119.7,96.6,120.4,96.6,121.3z"/>
				<path class="st10" d="M100.6,127.5c0,0.9-0.7,1.6-1.6,1.6c-0.9,0-1.6-0.7-1.6-1.6c0-0.9,0.7-1.6,1.6-1.6
					C99.9,125.9,100.6,126.6,100.6,127.5z"/>
				<path class="st10" d="M108.5,124.3c0,0.9-0.7,1.6-1.6,1.6c-0.9,0-1.6-0.7-1.6-1.6c0-0.9,0.7-1.6,1.6-1.6
					C107.8,122.7,108.5,123.4,108.5,124.3z"/>
				<path class="st10" d="M96,134.2c0,0.9-0.7,1.6-1.6,1.6c-0.9,0-1.6-0.7-1.6-1.6s0.7-1.6,1.6-1.6C95.3,132.6,96,133.3,96,134.2z"
					/>
				<path class="st10" d="M105.9,133.5c0,0.9-0.7,1.6-1.6,1.6c-0.9,0-1.6-0.7-1.6-1.6c0-0.9,0.7-1.6,1.6-1.6
					C105.2,131.9,105.9,132.6,105.9,133.5z"/>
				<path class="st10" d="M92.5,126.8c0,0.8-0.6,1.5-1.5,1.6c0.1-1.1,0.3-2.1,0.4-3.1C92.1,125.5,92.5,126.1,92.5,126.8z"/>
				<path class="st10" d="M122,143c0,0.9-0.7,1.6-1.6,1.6c-0.9,0-1.6-0.7-1.6-1.6c0-0.9,0.7-1.6,1.6-1.6
					C121.3,141.4,122,142.1,122,143z"/>
				<path class="st10" d="M121.2,134.2c0,0.9-0.7,1.6-1.6,1.6c-0.9,0-1.6-0.7-1.6-1.6s0.7-1.6,1.6-1.6
					C120.5,132.6,121.2,133.3,121.2,134.2z"/>
				<path class="st10" d="M129.9,138c-0.2,0.1-0.4,0.1-0.6,0.1c-0.9,0-1.6-0.7-1.6-1.6c0-0.9,0.7-1.6,1.6-1.6c0.1,0,0.1,0,0.2,0
					C129.6,135.9,129.8,137,129.9,138z"/>
				<path class="st10" d="M122.8,149.4c0,0.9-0.7,1.6-1.6,1.6c-0.9,0-1.6-0.7-1.6-1.6c0-0.9,0.7-1.6,1.6-1.6
					C122.1,147.8,122.8,148.6,122.8,149.4z"/>
				<path class="st10" d="M129.7,146.9c0,0.9-0.7,1.6-1.6,1.6c-0.9,0-1.6-0.7-1.6-1.6s0.7-1.6,1.6-1.6
					C129,145.2,129.7,146,129.7,146.9z"/>
				<path class="st10" d="M115.4,151.9c-0.3-0.4-0.8-0.7-1.3-0.7s-1,0.3-1.3,0.7H115.4z"/>
				<path class="st10" d="M95,144.4c0,0.9-0.7,1.6-1.6,1.6c-0.9,0-1.6-0.7-1.6-1.6c0-0.9,0.7-1.6,1.6-1.6
					C94.3,142.8,95,143.5,95,144.4z"/>
				<path class="st10" d="M90.7,139.3c0,0.8-0.6,1.5-1.4,1.6c0,0,0,0,0,0c0.2-1,0.3-2,0.5-3C90.3,138.1,90.7,138.6,90.7,139.3z"/>
				<path class="st10" d="M88.8,149.4c0,0.7-0.5,1.3-1.2,1.5c0.2-0.9,0.3-1.9,0.5-2.9C88.6,148.4,88.8,148.9,88.8,149.4z"/>
				<path class="st10" d="M99,150.1c0,0.9-0.7,1.6-1.6,1.6c-0.9,0-1.6-0.7-1.6-1.6c0-0.9,0.7-1.6,1.6-1.6
					C98.3,148.5,99,149.2,99,150.1z"/>
				<path class="st10" d="M107.5,148.9c0,0.9-0.7,1.6-1.6,1.6c-0.9,0-1.6-0.7-1.6-1.6c0-0.9,0.7-1.6,1.6-1.6
					C106.8,147.2,107.5,148,107.5,148.9z"/>
				<path class="st10" d="M101.4,140.9c0,0.9-0.7,1.6-1.6,1.6c-0.9,0-1.6-0.7-1.6-1.6c0-0.9,0.7-1.6,1.6-1.6
					C100.7,139.3,101.4,140,101.4,140.9z"/>
				<path class="st10" d="M110.1,139.3c0,0.9-0.7,1.6-1.6,1.6c-0.9,0-1.6-0.7-1.6-1.6s0.7-1.6,1.6-1.6
					C109.4,137.7,110.1,138.4,110.1,139.3z"/>
				<path class="st10" d="M114,130.8c0,0.9-0.7,1.6-1.6,1.6c-0.9,0-1.6-0.7-1.6-1.6c0-0.9,0.7-1.6,1.6-1.6
					C113.3,129.2,114,129.9,114,130.8z"/>
				<path class="st10" d="M128,124.3c-0.1,0-0.2,0-0.3,0c-0.9,0-1.6-0.7-1.6-1.6c0-0.9,0.7-1.6,1.5-1.6
					C127.7,122,127.9,123.1,128,124.3z"/>
				<path class="st10" d="M119.6,124.3c0,0.9-0.7,1.6-1.6,1.6c-0.9,0-1.6-0.7-1.6-1.6c0-0.9,0.7-1.6,1.6-1.6
					C118.9,122.7,119.6,123.4,119.6,124.3z"/>
				<path class="st10" d="M125.5,130.1c0,0.9-0.7,1.6-1.6,1.6c-0.9,0-1.6-0.7-1.6-1.6c0-0.9,0.7-1.6,1.6-1.6
					C124.8,128.4,125.5,129.2,125.5,130.1z"/>
				<path class="st10" d="M115.6,144.4c0,0.9-0.7,1.6-1.6,1.6c-0.9,0-1.6-0.7-1.6-1.6c0-0.9,0.7-1.6,1.6-1.6
					C114.9,142.8,115.6,143.5,115.6,144.4z"/>
			</g>
			<path class="st2" d="M128,116.5c-9,5.9-25.7,5.4-36.1,0c1-6.2,2.3-12.4,2-20.7c0-0.9-0.1-1.8-0.1-2.7c0-0.8-0.1-1.5-0.1-2.3
				c-0.9-13.8-3.2-25-2.1-26.5c0.5-0.6,1.3-1.3,2.4-2c0.4-0.3,0.8-0.6,1.3-0.8c1.1-0.7,2.3-1.3,3.5-2c2.9-1.5,5.8-3,7.2-3.9
				c1.4,0.6,2.6,1,3.8,1c0,0,0.1,0,0.1,0c0,0,0.1,0,0.1,0c1.2,0,2.4-0.3,3.8-1c1.4,0.9,3.9,2.2,6.5,3.5c1.9,1,3.9,2.1,5.4,3.1
				c1,0.7,1.8,1.3,2.3,2c0.6,0.7,0.3,3.9-0.2,8.6c-0.5,4.6-1.2,10.7-1.6,17.4c-0.1,1.9-0.2,3.8-0.3,5.7
				C125.7,104.1,127,110.3,128,116.5z"/>
			<g>
				<path class="st3" d="M122.5,109.7C122.5,109.7,122.5,109.7,122.5,109.7c-7.3,0-13.5-3.3-17.4-6.1c-4.3-3-6.8-6-6.9-6.1
					c-0.1-0.1-0.1-0.4,0-0.5c0.1-0.1,0.4-0.1,0.5,0c0,0,2.6,3,6.7,6c3.8,2.7,9.9,6,17,6c0.2,0,0.3,0.2,0.3,0.4
					C122.9,109.5,122.7,109.7,122.5,109.7z"/>
			</g>
			<g>
				<path class="st3" d="M117.7,105.4c-6.2-1.2-11.7-6-11.9-6.2c-0.1-0.1-0.2-0.3,0-0.5c0.1-0.1,0.3-0.2,0.5,0
					c0.1,0.1,6.5,5.6,13.1,6.2c0.2,0,0.3,0.2,0.3,0.4c0,0.2-0.2,0.3-0.4,0.3C118.7,105.6,118.2,105.5,117.7,105.4z"/>
			</g>
			<g>
				<path class="st3" d="M108.5,73.3c-0.2,0-0.3-0.1-0.3-0.3c0-0.2,0.1-0.4,0.3-0.4c8.9-1.7,11.6-7.4,11.6-7.5
					c0.1-0.2,0.3-0.3,0.5-0.2c0.2,0.1,0.3,0.3,0.2,0.5C120.6,65.7,117.8,71.6,108.5,73.3C108.5,73.3,108.5,73.3,108.5,73.3z"/>
			</g>
			<path class="st8" d="M120.5,59.1c-1.8,4-6.1,8.2-11.7,7.2c-5.5-0.9-8-3.8-9.9-6.8c2.9-1.5,5.8-3,7.2-3.9c1.4,0.6,2.6,1,3.8,1
				c0,0,0.1,0,0.1,0c0,0,0.1,0,0.1,0c1.2,0,2.4-0.3,3.8-1C115.3,56.5,117.9,57.8,120.5,59.1z"/>
			<g>
				<path class="st9" d="M115.7,55.9c-0.2,0-0.3,0.1-0.3,0.3c0,0.2-0.1,5.5-4.9,6c-4.4,0.4-6.3-3.9-6.8-5.6c0-0.1-0.1-0.2-0.2-0.2
					h-0.1c-0.2,0-0.3,0.2-0.2,0.3c0.6,1.8,2.5,6.2,7,6c0.1,0,0.2,0,0.4,0c5.3-0.5,5.4-6.4,5.4-6.5C116,56,115.9,55.9,115.7,55.9z"/>
			</g>
		</g>
		<g>
			<path class="st4" d="M119.1,27.7c0,0,4.3,6.6,3.8,13.5c-0.5,6.9,0.6,14.8-5.5,14.5c-6.2-0.3-17.1,2.5-20.6-2.9
				C93.3,47.4,119.1,27.7,119.1,27.7z"/>
			<path class="st5" d="M120.7,39.8c0,0,1.1,10-3.6,12.7c-4.7,2.7-8.2-0.3-8.2-0.3S118.9,38.3,120.7,39.8z"/>
			<g>
				<g>
					<path class="st6" d="M101,39.8c0,0-1.7-2.3-3-0.4c-1.3,1.9,0.5,7.4,3.6,6.1L101,39.8z"/>
					<g>
						<path class="st7" d="M101,43.7c-0.1,0-0.2-0.1-0.3-0.2c-0.5-1.7-2.2-2.4-2.3-2.4c-0.1-0.1-0.2-0.2-0.2-0.3
							c0.1-0.1,0.2-0.2,0.3-0.2c0.1,0,2,0.8,2.6,2.8C101.3,43.5,101.2,43.7,101,43.7C101.1,43.7,101,43.7,101,43.7z"/>
					</g>
					<g>
						<path class="st7" d="M99.2,42.8c0,0-0.1,0-0.1,0c-0.1-0.1-0.2-0.2-0.1-0.4c0,0,0.3-0.5,1-0.8c0.1-0.1,0.3,0,0.3,0.1
							c0.1,0.1,0,0.3-0.1,0.3c-0.5,0.2-0.8,0.6-0.8,0.6C99.4,42.8,99.3,42.8,99.2,42.8z"/>
					</g>
				</g>
				<g>
					<path class="st6" d="M118.6,39.8c0,0,1.7-2.3,3-0.4c1.3,1.9-0.5,7.4-3.6,6.1L118.6,39.8z"/>
					<g>
						<path class="st7" d="M118.6,43.7c0.1,0,0.2-0.1,0.3-0.2c0.5-1.7,2.2-2.4,2.3-2.4c0.1-0.1,0.2-0.2,0.2-0.3
							c-0.1-0.1-0.2-0.2-0.3-0.2c-0.1,0-2,0.8-2.6,2.8C118.3,43.5,118.4,43.7,118.6,43.7C118.5,43.7,118.5,43.7,118.6,43.7z"/>
					</g>
					<g>
						<path class="st7" d="M120.4,42.8c0,0,0.1,0,0.1,0c0.1-0.1,0.2-0.2,0.1-0.4c0,0-0.3-0.5-1-0.8c-0.1-0.1-0.3,0-0.3,0.1
							c-0.1,0.1,0,0.3,0.1,0.3c0.5,0.2,0.8,0.6,0.8,0.6C120.2,42.8,120.3,42.8,120.4,42.8z"/>
					</g>
				</g>
				<path class="st8" d="M114,50.1v5.5c0,0-1.6,2.8-3.9,3c-2.2,0.2-4.2-2.4-4.2-2.4v-5.7L114,50.1z"/>
				<path class="st6" d="M114,50.1v2.4c-1.5,1.7-4.1,2.2-8,1.7l0-3.7L114,50.1z"/>
				<path class="st8" d="M119.8,36c-0.1,2.1-0.3,4.8-0.7,7c-0.1,0.5-0.2,1-0.3,1.5c-1.2,4.1-4.1,11-12.2,8.1c-3.6-1.3-5.2-5.3-6-9.3
					c-0.5-2.8-0.6-5.5-0.5-7.5c0-2,1.1-3.9,2.9-4.9c4.8-2.7,9.8-1.7,13.2-0.4C118.4,31.2,119.9,33.5,119.8,36z"/>
				<path class="st4" d="M106.2,40.1c0,0.6-0.3,1.1-0.7,1.1c-0.4,0-0.7-0.5-0.7-1.1c0-0.6,0.3-1.1,0.7-1.1
					C105.9,39,106.2,39.5,106.2,40.1z"/>
				<path class="st4" d="M114.6,40.1c0,0.6-0.3,1.1-0.7,1.1c-0.4,0-0.7-0.5-0.7-1.1c0-0.6,0.3-1.1,0.7-1.1
					C114.3,39,114.6,39.5,114.6,40.1z"/>
				<path class="st4" d="M104.2,36.9c0.6-0.2,1.7-0.4,2.9-0.4c0.3,0,0.6,0.3,0.5,0.6l0,0c0,0.2-0.3,0.4-0.5,0.4c-0.8,0-3,0.1-4,0.5
					c0-0.2,0.1-0.4,0.2-0.5C103.6,37.2,103.9,37,104.2,36.9z"/>
				<path class="st4" d="M115.1,36.9c-0.6-0.2-1.7-0.4-2.9-0.4c-0.3,0-0.6,0.3-0.5,0.6l0,0c0,0.2,0.3,0.4,0.5,0.4c0.8,0,3,0.1,4,0.5
					c0-0.2-0.1-0.4-0.2-0.5C115.8,37.2,115.5,37,115.1,36.9z"/>
				<g>
					<path class="st6" d="M109.9,44.9c-0.2,0-0.4,0-0.6-0.1c-0.2-0.1-0.3-0.3-0.4-0.6c-0.1-1,0.1-4,0.2-4.1c0-0.1,0.1-0.3,0.3-0.2
						c0.1,0,0.3,0.1,0.2,0.3c0,0-0.3,3.1-0.2,4c0,0.2,0.1,0.2,0.1,0.2c0.2,0.1,0.8,0,1-0.1c0.1-0.1,0.3,0,0.3,0.1
						c0.1,0.1,0,0.3-0.1,0.3C110.8,44.8,110.3,44.9,109.9,44.9z"/>
				</g>
				<path class="st9" d="M106.6,46.6c0.2,1,0.9,2.8,3.1,2.8c2.2,0,2.8-1.7,3.1-2.8H106.6z"/>
				<g>
					<path class="st6" d="M109.6,50.9c-0.6,0-1.2-0.3-1.2-0.4c-0.1-0.1-0.2-0.2-0.1-0.4c0.1-0.1,0.2-0.2,0.4-0.1l0,0
						c0,0,0.5,0.3,1,0.3c0.5,0,1-0.3,1-0.3c0.1-0.1,0.3,0,0.4,0.1c0.1,0.1,0,0.3-0.1,0.4C110.9,50.6,110.3,50.9,109.6,50.9z"/>
				</g>
			</g>
			<path class="st4" d="M120.8,35.6c-0.1,0.2-0.3,0.4-0.6,0.5c0,0.6,0,1.3-0.1,1.9c-0.3,3.8-1.3,4.4-1.5,3.5
				c-0.1-0.6-0.1-4.2-0.1-5.3c-0.7,0-1.4-0.2-1.4-0.2l-0.9-3.7l-0.3,3.6c-1.3,0.5-4.4-0.3-4.4-0.3l-1-3.6l-0.6,3.5
				c-2,1-4.4,0.3-4.4,0.3l-0.6-3.8l-1.3,3.8c0,0-4.2,1.5-4.3,0c0-0.9,0.6-3.4,1.2-5.3c0.6-2.1,2-3.9,3.8-4.9
				c5.2-2.8,10.7-1.3,12.6-0.2C121,27.9,120.8,35.6,120.8,35.6z"/>
			<path class="st4" d="M101.7,27.9c0,0-3.5,4.1-4.6,11.5c-1.1,7.4-2.7,12.8,1.7,15.2c4.8,2.6,4.4-2.8,4.3-4.2
				c-0.1-1.5-4.2-5.5-1.4-16.8C102.6,30,101.7,27.9,101.7,27.9z"/>
			<path class="st5" d="M100.9,43.1C100.9,43.1,100.9,43.1,100.9,43.1c0,0.1,0,0.4,0,0.8c0,0.3,0,0.6,0.1,1c0.2,2.5,0.6,6.8,2.1,8.2
				c0.6,0.6,1.6,0.9,2.9,1v-1.9c-1.3-0.6-2.4-1.7-3.2-3c-0.5-1.1-1.4-2.8-1.8-5.4L100.9,43.1z"/>
			<path class="st9" d="M119.8,45.5c0,0.3-0.3,0.6-0.6,0.6s-0.6-0.3-0.6-0.6c0-0.3,0.3-0.6,0.6-0.6S119.8,45.2,119.8,45.5z"/>
		</g>
		<g>
			<path class="st2" d="M132.3,91.7c-1.7,5-9.5,4.6-18.4,1.9c0,0,0,0,0,0c0,0-0.1,0-0.1,0l-1.2-0.4c-0.2-0.1-0.3-0.1-0.5-0.2
				c-1-0.3-1.9-0.7-2.9-1c-3.2-1.2-6.3-2.6-9.4-4.1l0-0.1l0.9-2.4l0.3-0.8c0,0,16.4,1.8,24.7,0.1c0.1,0,0.3-0.1,0.4-0.1
				c0-0.2,0-0.4-0.1-0.5c-4.4-14.9,0.4-17.7,2-19.8C128.1,64.2,135.6,82.3,132.3,91.7z"/>
			<g>
				<path class="st3" d="M129.7,87.1c0,0-0.1,0-0.2,0c-0.1,0-0.3-0.1-0.3-0.2c-0.6-1.3-2.7-2-3.4-2.3c0.1,0,0.3-0.1,0.4-0.1
					c0-0.2-0.1-0.4-0.1-0.5c0.8,0.3,3,1.1,3.7,2.6C129.9,86.8,129.8,87,129.7,87.1z"/>
			</g>
			<g>
				<path class="st3" d="M106.7,86.5c-3.3,0-6.1-0.2-6.3-0.2c-0.2,0-0.3-0.2-0.3-0.4c0-0.2,0.2-0.3,0.4-0.3c0.1,0,12.4,0.9,17.3-1.1
					c0.2-0.1,0.4,0,0.5,0.2c0.1,0.2,0,0.4-0.2,0.5C115.3,86.2,110.6,86.5,106.7,86.5z"/>
			</g>
			<g>
				<path class="st3" d="M112.6,93.2C112.6,93.2,112.6,93.2,112.6,93.2c2.8-0.8,5.4-1.5,6.8-2c2-0.7,3.7-2.7,4.5-4.5
					c0.1-0.2,0.3-0.3,0.5-0.2c0.2,0.1,0.3,0.3,0.2,0.5c-0.8,1.9-2.7,4.1-4.9,4.9c-1.1,0.3-2.7,0.8-4.6,1.4
					C114.3,93.4,113.4,93.4,112.6,93.2L112.6,93.2z"/>
			</g>
			<g>
				<path class="st2" d="M120.2,90.7c-25.4,8.5-33.2,3-33.2,3c-1.7-15.4,4.6-29.3,4.6-29.3c1.9,3.1,4,8.4,4,8.4l0.6,11.8l0,0.3
					l0,0.2L96,85.9l0,0c0.1,0,0.1,0,0.2,0c7.7,1.6,21.7-0.2,21.7-0.2L120.2,90.7z"/>
				<g>
					<path class="st3" d="M96.1,86c-1.4,1.1-2.7,2.5-3.8,4c-0.1,0.2-0.3,0.2-0.5,0.1c-0.2-0.1-0.2-0.3-0.1-0.5c0,0,0,0,0,0
						c1.3-1.7,2.8-3.2,4.3-4.4L96,85.9l0,0C96,85.9,96.1,86,96.1,86z"/>
				</g>
				<path class="st8" d="M117.8,85.8c0,0,2.8-6.4,7.1-5.8l1.3,4.6c-2.3,1-2.7,5-6,6.2L117.8,85.8z"/>
			</g>
			<path class="st8" d="M101.1,84.6c0,0-1.8-4.2-6.4-5.4c-4.7-1.2-7.6,1-8,1.8c-0.3,0.8,1.8,0,1.8,0s-1.3,0.4-2.1,1.7
				c-0.8,1.3,1.9-0.1,1.9-0.1s-1.9,0.8-2.1,1.6c-0.2,0.8,2.3-0.5,2.7-0.5c0,0-2.2,0.9-2.2,1.7c0,0.8,2.6-0.5,4.5-0.4
				c1.9,0.1,4.9,0.9,4.9,0.9c1.6,0.3,3.1,0.5,4.4,0.6L101.1,84.6z"/>
		</g>
	</g>
	<g>
		<g>
			<g>
				<g>
					<g>
						<path class="st3" d="M146.2,19.9c-1.7,0-3.1-1.4-3.1-3.1s1.4-3.1,3.1-3.1c1.7,0,3.1,1.4,3.1,3.1S147.9,19.9,146.2,19.9z
							 M146.2,14.6c-1.2,0-2.1,1-2.1,2.1c0,1.2,1,2.1,2.1,2.1c1.2,0,2.1-1,2.1-2.1C148.3,15.6,147.4,14.6,146.2,14.6z"/>
					</g>
					<g>
						<path class="st2" d="M173.5,14.6c-1.7,0-3.1-1.4-3.1-3.1s1.4-3.1,3.1-3.1c1.7,0,3.1,1.4,3.1,3.1S175.2,14.6,173.5,14.6z
							 M173.5,9.3c-1.2,0-2.1,1-2.1,2.1c0,1.2,1,2.1,2.1,2.1c1.2,0,2.1-1,2.1-2.1C175.7,10.3,174.7,9.3,173.5,9.3z"/>
					</g>
					<g>
						<g>
							<g>
								<path class="st3" d="M177.4,24.8c-0.3,0-0.5-0.2-0.5-0.5v-2.2c0-0.3,0.2-0.5,0.5-0.5s0.5,0.2,0.5,0.5v2.2
									C177.9,24.5,177.6,24.8,177.4,24.8z"/>
							</g>
							<g>
								<path class="st3" d="M177.4,28.6c-0.3,0-0.5-0.2-0.5-0.5v-2.2c0-0.3,0.2-0.5,0.5-0.5s0.5,0.2,0.5,0.5v2.2
									C177.9,28.3,177.6,28.6,177.4,28.6z"/>
							</g>
						</g>
						<g>
							<g>
								<path class="st3" d="M180.4,25.6h-1.9c-0.3,0-0.5-0.2-0.5-0.5s0.2-0.5,0.5-0.5h1.9c0.3,0,0.5,0.2,0.5,0.5
									S180.7,25.6,180.4,25.6z"/>
							</g>
							<g>
								<path class="st3" d="M176.3,25.6h-1.9c-0.3,0-0.5-0.2-0.5-0.5s0.2-0.5,0.5-0.5h1.9c0.3,0,0.5,0.2,0.5,0.5
									S176.6,25.6,176.3,25.6z"/>
							</g>
						</g>
					</g>
					<g>
						<g>
							<g>
								<g>
									<path class="st1" d="M160.8,11.6c-0.3,0-0.5-0.2-0.5-0.5V9c0-0.3,0.2-0.5,0.5-0.5s0.5,0.2,0.5,0.5v2.2
										C161.3,11.4,161.1,11.6,160.8,11.6z"/>
								</g>
								<g>
									<path class="st1" d="M160.8,15.4c-0.3,0-0.5-0.2-0.5-0.5v-2.2c0-0.3,0.2-0.5,0.5-0.5s0.5,0.2,0.5,0.5v2.2
										C161.3,15.2,161.1,15.4,160.8,15.4z"/>
								</g>
							</g>
							<g>
								<g>
									<path class="st1" d="M163.9,12.5h-1.9c-0.3,0-0.5-0.2-0.5-0.5c0-0.3,0.2-0.5,0.5-0.5h1.9c0.3,0,0.5,0.2,0.5,0.5
										C164.4,12.2,164.1,12.5,163.9,12.5z"/>
								</g>
								<g>
									<path class="st1" d="M159.7,12.5h-1.9c-0.3,0-0.5-0.2-0.5-0.5c0-0.3,0.2-0.5,0.5-0.5h1.9c0.3,0,0.5,0.2,0.5,0.5
										C160.2,12.2,160,12.5,159.7,12.5z"/>
								</g>
							</g>
						</g>
					</g>
				</g>
			</g>
			<g>
				<g>
					<g>
						<path class="st3" d="M34.2,8.8c0-1.7,1.4-3.1,3.1-3.1c1.7,0,3.1,1.4,3.1,3.1c0,1.7-1.4,3.1-3.1,3.1
							C35.6,12,34.2,10.6,34.2,8.8z M35.2,8.8c0,1.2,1,2.1,2.1,2.1c1.2,0,2.1-1,2.1-2.1c0-1.2-1-2.1-2.1-2.1
							C36.2,6.7,35.2,7.6,35.2,8.8z"/>
					</g>
					<g>
						<path class="st2" d="M21.7,20.8c0-1.7,1.4-3.1,3.1-3.1c1.7,0,3.1,1.4,3.1,3.1s-1.4,3.1-3.1,3.1C23.1,23.9,21.7,22.5,21.7,20.8
							z M22.6,20.8c0,1.2,1,2.1,2.1,2.1s2.1-1,2.1-2.1c0-1.2-1-2.1-2.1-2.1S22.6,19.6,22.6,20.8z"/>
					</g>
					<g>
						<g>
							<g>
								<path class="st3" d="M15.2,25.2c0.3,0,0.5-0.2,0.5-0.5v-2.2c0-0.3-0.2-0.5-0.5-0.5s-0.5,0.2-0.5,0.5v2.2
									C14.7,24.9,14.9,25.2,15.2,25.2z"/>
							</g>
							<g>
								<path class="st3" d="M15.2,29c0.3,0,0.5-0.2,0.5-0.5v-2.2c0-0.3-0.2-0.5-0.5-0.5s-0.5,0.2-0.5,0.5v2.2
									C14.7,28.7,14.9,29,15.2,29z"/>
							</g>
						</g>
						<g>
							<g>
								<path class="st3" d="M12.1,26h1.9c0.3,0,0.5-0.2,0.5-0.5c0-0.3-0.2-0.5-0.5-0.5h-1.9c-0.3,0-0.5,0.2-0.5,0.5
									C11.6,25.8,11.8,26,12.1,26z"/>
							</g>
							<g>
								<path class="st3" d="M16.2,26h1.9c0.3,0,0.5-0.2,0.5-0.5c0-0.3-0.2-0.5-0.5-0.5h-1.9c-0.3,0-0.5,0.2-0.5,0.5
									C15.8,25.8,16,26,16.2,26z"/>
							</g>
						</g>
					</g>
					<g>
						<g>
							<g>
								<g>
									<path class="st1" d="M26.5,8.5C26.7,8.5,27,8.3,27,8V5.9c0-0.3-0.2-0.5-0.5-0.5S26,5.6,26,5.9V8C26,8.3,26.2,8.5,26.5,8.5z
										"/>
								</g>
								<g>
									<path class="st1" d="M26.5,12.3c0.3,0,0.5-0.2,0.5-0.5V9.6c0-0.3-0.2-0.5-0.5-0.5S26,9.4,26,9.6v2.2
										C26,12.1,26.2,12.3,26.5,12.3z"/>
								</g>
							</g>
							<g>
								<g>
									<path class="st1" d="M23.4,9.3h1.9c0.3,0,0.5-0.2,0.5-0.5c0-0.3-0.2-0.5-0.5-0.5h-1.9c-0.3,0-0.5,0.2-0.5,0.5
										C22.9,9.1,23.2,9.3,23.4,9.3z"/>
								</g>
								<g>
									<path class="st1" d="M27.6,9.3h1.9c0.3,0,0.5-0.2,0.5-0.5c0-0.3-0.2-0.5-0.5-0.5h-1.9c-0.3,0-0.5,0.2-0.5,0.5
										C27.1,9.1,27.3,9.3,27.6,9.3z"/>
								</g>
							</g>
						</g>
					</g>
				</g>
			</g>
		</g>
		<g>
			<g>
				<g>
					<path class="st0" d="M120.1,9.1c-0.1,0-0.1,0-0.2,0c-0.6-0.3-0.9-0.4-0.9-0.4c-0.2-0.1-0.3-0.3-0.2-0.4
						c0.1-0.2,0.3-0.3,0.4-0.2c0,0,0.4,0.1,1,0.4c0.2,0.1,0.3,0.3,0.2,0.5C120.4,9,120.3,9,120.1,9.1z"/>
				</g>
				<g>
					<path class="st0" d="M137.9,27.8c0.2,0.6,0.5,1.3,0.7,1.9c0,0.2,0.2,0.3,0.4,0.2c0,0,0,0,0.1,0c0.2-0.1,0.3-0.3,0.2-0.4
						c-0.2-0.7-0.4-1.3-0.7-2c-0.1-0.2-0.3-0.3-0.4-0.2C137.9,27.4,137.8,27.6,137.9,27.8z"/>
					<path class="st0" d="M139.1,31.7c0.2,0.7,0.3,1.3,0.4,2c0,0.2,0.2,0.3,0.4,0.3c0,0,0,0,0,0c0.2,0,0.3-0.2,0.3-0.4
						c-0.1-0.7-0.3-1.4-0.4-2c0-0.2-0.2-0.3-0.4-0.3C139.2,31.3,139.1,31.5,139.1,31.7z"/>
					<path class="st0" d="M140.6,42.2c0.2,0,0.3-0.2,0.3-0.3c0-0.7,0-1.4,0-2.1c0-0.2-0.2-0.3-0.4-0.3c-0.2,0-0.3,0.2-0.3,0.4
						c0,0.7,0,1.4,0,2.1C140.2,42.1,140.3,42.2,140.6,42.2C140.6,42.2,140.6,42.2,140.6,42.2z"/>
					<path class="st0" d="M140.2,35.3c-0.2,0-0.3,0.2-0.3,0.4c0,0.3,0.1,0.6,0.1,0.9c0,0.4,0.1,0.7,0.1,1.1c0,0.2,0.2,0.3,0.4,0.3
						c0,0,0,0,0,0c0.2,0,0.3-0.2,0.3-0.4c0-0.4-0.1-0.7-0.1-1.1c0-0.3-0.1-0.6-0.1-1C140.5,35.4,140.4,35.3,140.2,35.3
						C140.2,35.3,140.2,35.3,140.2,35.3z"/>
					<path class="st0" d="M137.1,25.9c0.1,0.1,0.2,0.2,0.4,0.2c0,0,0.1,0,0.1,0c0.2-0.1,0.3-0.3,0.2-0.5c-0.3-0.6-0.6-1.3-0.9-1.9
						c-0.1-0.2-0.3-0.2-0.5-0.1c-0.2,0.1-0.2,0.3-0.1,0.5C136.6,24.6,136.9,25.3,137.1,25.9z"/>
					<path class="st0" d="M121.8,9.9c0.6,0.3,1.2,0.6,1.8,1c0.1,0,0.1,0.1,0.2,0c0.1,0,0.2-0.1,0.3-0.2c0.1-0.2,0-0.4-0.1-0.5
						c-0.6-0.4-1.2-0.7-1.8-1c-0.2-0.1-0.4,0-0.5,0.2C121.6,9.6,121.6,9.8,121.8,9.9z"/>
					<path class="st0" d="M127,13.2c0.1,0.1,0.2,0.1,0.2,0.1c0.1,0,0.2-0.1,0.2-0.1c0.1-0.2,0.1-0.4-0.1-0.5
						c-0.6-0.4-1.1-0.8-1.7-1.2c-0.2-0.1-0.4-0.1-0.5,0.1c-0.1,0.2-0.1,0.4,0.1,0.5C125.9,12.4,126.5,12.8,127,13.2z"/>
					<path class="st0" d="M132.9,18.9c0.1,0.1,0.2,0.1,0.3,0.1c0.1,0,0.1,0,0.2-0.1c0.2-0.1,0.2-0.3,0.1-0.5
						c-0.4-0.5-0.9-1.1-1.4-1.6c-0.1-0.1-0.4-0.2-0.5,0c-0.1,0.1-0.2,0.4,0,0.5C132,17.8,132.4,18.4,132.9,18.9z"/>
					<path class="st0" d="M130.1,15.9c0.1,0.1,0.2,0.1,0.3,0.1c0.1,0,0.2,0,0.2-0.1c0.1-0.1,0.1-0.4,0-0.5c-0.5-0.5-1-1-1.5-1.4
						c-0.1-0.1-0.4-0.1-0.5,0c-0.1,0.1-0.1,0.4,0,0.5C129.1,14.9,129.6,15.4,130.1,15.9z"/>
					<path class="st0" d="M135.2,22.2c0.1,0.1,0.2,0.2,0.3,0.2c0,0,0.1,0,0.1,0c0.2-0.1,0.2-0.3,0.1-0.5c-0.4-0.6-0.7-1.2-1.1-1.8
						c-0.1-0.2-0.3-0.2-0.5-0.1c-0.2,0.1-0.2,0.3-0.1,0.5C134.5,21.1,134.9,21.7,135.2,22.2z"/>
				</g>
			</g>
			<g>
				<g>
					<polygon class="st2" points="120.1,6.7 121.7,1 102.9,1.2 					"/>
					<polygon class="st3" points="102.9,1.2 119.2,8 119.3,8.1 120,9.2 120.1,6.7 					"/>
					<polygon class="st3" points="120,9.2 118.4,9 119.3,8.1 					"/>
					<polygon class="st2" points="117.2,7.2 119.3,8.1 115,12.8 102.9,1.2 					"/>
				</g>
			</g>
		</g>
	</g>
	<g>
		<path class="st1" d="M206.1,155.4v0.3c0,2-1.6,3.6-3.6,3.6H17.9c-2,0-3.6-1.6-3.6-3.6v-0.3c0-2,1.6-3.6,3.6-3.6h184.7
			C204.5,151.9,206.1,153.4,206.1,155.4z"/>
		<path class="st3" d="M206.1,155.4v0.2H14.3v-0.2c0-2,1.6-3.6,3.6-3.6h184.7C204.5,151.9,206.1,153.4,206.1,155.4z"/>
	</g>
	<g>
		<path class="st4" d="M136.7,140.7H82.3c-2.4,0-4.3-1.9-4.3-4.3v-26.7c0-2.4,1.9-4.3,4.3-4.3h54.3c2.4,0,4.3,1.9,4.3,4.3v26.7
			C141,138.7,139.1,140.7,136.7,140.7z"/>
		<rect x="104.6" y="140.6" class="st5" width="9.8" height="11.1"/>
		<circle class="st12" cx="109.4" cy="123.4" r="4.8"/>
		<path class="st4" d="M121.9,151.7H96.7l0,0c0-2.2,1.8-3.9,3.9-3.9H118C120.1,147.8,121.9,149.6,121.9,151.7L121.9,151.7z"/>
	</g>
</g>
</svg>
