<?xml version="1.0" encoding="utf-8"?>
<!-- Generator: Adobe Illustrator 22.0.0, SVG Export Plug-In . SVG Version: 6.00 Build 0)  -->
<svg version="1.1" id="Layer_1" xmlns="http://www.w3.org/2000/svg" xmlns:xlink="http://www.w3.org/1999/xlink" x="0px" y="0px"
	 viewBox="0 0 217.6 205" style="enable-background:new 0 0 217.6 205;" xml:space="preserve">
<style type="text/css">
	.st0{fill:#25687A;}
	.st1{opacity:0.2;}
	.st2{clip-path:url(#SVGID_2_);}
	.st3{fill:url(#SVGID_3_);}
	.st4{fill:url(#SVGID_4_);}
	.st5{fill:url(#SVGID_5_);}
	.st6{fill:url(#SVGID_6_);}
	.st7{fill:url(#SVGID_7_);}
	.st8{opacity:0.3;fill:url(#SVGID_8_);}
	.st9{fill:url(#SVGID_9_);}
	.st10{fill:url(#SVGID_10_);}
	.st11{fill:url(#SVGID_11_);}
	.st12{fill:url(#SVGID_12_);}
	.st13{fill:url(#SVGID_13_);}
	.st14{opacity:0.3;fill:url(#SVGID_14_);}
	.st15{fill:url(#SVGID_15_);}
	.st16{fill:url(#SVGID_16_);}
	.st17{fill:url(#SVGID_17_);}
	.st18{fill:url(#SVGID_18_);}
	.st19{fill:url(#SVGID_19_);}
	.st20{opacity:0.3;fill:url(#SVGID_20_);}
	.st21{fill:url(#SVGID_21_);}
	.st22{fill:url(#SVGID_22_);}
	.st23{fill:url(#SVGID_23_);}
	.st24{fill:#F47257;}
	.st25{fill:#3C8F7C;}
	.st26{fill:#96D9C9;}
	.st27{fill:#50BFA5;}
	.st28{fill:#B75742;}
	.st29{fill:#F7CC7F;}
	.st30{fill:url(#SVGID_24_);}
	.st31{fill:url(#SVGID_25_);}
	.st32{fill:url(#SVGID_26_);}
	.st33{fill:url(#SVGID_27_);}
	.st34{fill:url(#SVGID_28_);}
	.st35{opacity:0.3;fill:url(#SVGID_29_);}
	.st36{fill:url(#SVGID_30_);}
	.st37{fill:url(#SVGID_31_);}
	.st38{fill:url(#SVGID_32_);}
	.st39{fill:url(#SVGID_33_);}
	.st40{fill:url(#SVGID_34_);}
	.st41{opacity:0.3;fill:url(#SVGID_35_);}
	.st42{fill:url(#SVGID_36_);}
	.st43{fill:url(#SVGID_37_);}
	.st44{fill:url(#SVGID_38_);}
	.st45{fill:url(#SVGID_39_);}
	.st46{fill:url(#SVGID_40_);}
	.st47{opacity:0.3;fill:url(#SVGID_41_);}
	.st48{fill:none;stroke:#FFFFFF;stroke-width:9.879725e-02;stroke-linecap:round;stroke-miterlimit:10;}
	
		.st49{fill:none;stroke:#FFFFFF;stroke-width:9.879725e-02;stroke-linecap:round;stroke-miterlimit:10;stroke-dasharray:0.9241,0.9241,0.9241,0.9241;}
	
		.st50{fill:none;stroke:#FFFFFF;stroke-width:9.879725e-02;stroke-linecap:round;stroke-miterlimit:10;stroke-dasharray:0.9241,0.9241,0.9241,0.9241,0.9241,0.9241;}
	
		.st51{fill:none;stroke:#FFFFFF;stroke-width:9.879725e-02;stroke-linecap:round;stroke-miterlimit:10;stroke-dasharray:0.9888,0.9888,0.9888,0.9888;}
	
		.st52{fill:none;stroke:#FFFFFF;stroke-width:9.879725e-02;stroke-linecap:round;stroke-miterlimit:10;stroke-dasharray:0.9888,0.9888,0.9888,0.9888,0.9888,0.9888;}
	
		.st53{fill:none;stroke:#FFFFFF;stroke-width:9.879725e-02;stroke-linecap:round;stroke-miterlimit:10;stroke-dasharray:0.6637,0.6637,0.6637,0.6637;}
	
		.st54{fill:none;stroke:#FFFFFF;stroke-width:9.879725e-02;stroke-linecap:round;stroke-miterlimit:10;stroke-dasharray:0.5176,0.5176,0.5176,0.5176;}
	.st55{fill:#13375B;}
	.st56{fill:#FAE0B2;}
	.st57{fill:#BFC8D6;}
	.st58{fill:#FFFFFF;}
	.st59{fill:#D8DEE8;}
	.st60{opacity:0.48;fill:#FFFFFF;}
	.st61{fill:url(#SVGID_42_);}
	.st62{opacity:0.3;fill:#97A6B7;}
	.st63{fill:url(#SVGID_43_);}
	.st64{fill:url(#SVGID_44_);}
	.st65{fill:url(#SVGID_45_);}
	.st66{fill:url(#SVGID_46_);}
	.st67{fill:url(#SVGID_47_);}
	.st68{opacity:0.3;fill:url(#SVGID_48_);}
	.st69{fill:url(#SVGID_49_);}
	.st70{opacity:0.4;fill:url(#SVGID_50_);}
	.st71{fill:url(#SVGID_51_);}
	.st72{fill:url(#SVGID_52_);}
	.st73{fill:url(#SVGID_53_);}
	.st74{fill:url(#SVGID_54_);}
	.st75{fill:url(#SVGID_55_);}
	.st76{opacity:0.3;fill:url(#SVGID_56_);}
	.st77{fill:url(#SVGID_57_);}
	.st78{fill:url(#SVGID_58_);}
	.st79{fill:url(#SVGID_59_);}
	.st80{fill:url(#SVGID_60_);}
	.st81{fill:url(#SVGID_61_);}
	.st82{opacity:0.3;fill:url(#SVGID_62_);}
	.st83{fill:url(#SVGID_63_);}
	.st84{fill:url(#SVGID_64_);}
	.st85{fill:url(#SVGID_65_);}
	.st86{fill:#606060;}
	.st87{font-family:'Ubuntu-Regular';}
	.st88{font-size:4.4388px;}
</style>
<title>paypal-seeklogo.com</title>
<g>
	<path class="st0" d="M209.5,204.7H8.2c-4.3,0-7.7-3.5-7.7-7.7V8.1c0-4.3,3.5-7.7,7.7-7.7h201.3c4.3,0,7.7,3.5,7.7,7.7v188.9
		C217.2,201.2,213.7,204.7,209.5,204.7z"/>
	<g class="st1">
		<defs>
			<path id="SVGID_1_" class="st1" d="M209.5,204.7H8.2c-4.3,0-7.7-3.5-7.7-7.7V8.1c0-4.3,3.5-7.7,7.7-7.7h201.3
				c4.3,0,7.7,3.5,7.7,7.7v188.9C217.2,201.2,213.7,204.7,209.5,204.7z"/>
		</defs>
		<clipPath id="SVGID_2_">
			<use xlink:href="#SVGID_1_"  style="overflow:visible;"/>
		</clipPath>
		<g class="st2">
			<g>
				<linearGradient id="SVGID_3_" gradientUnits="userSpaceOnUse" x1="156.4139" y1="23.3093" x2="138.7524" y2="28.9774">
					<stop  offset="0" style="stop-color:#FCB148"/>
					<stop  offset="5.207239e-02" style="stop-color:#FDBA46"/>
					<stop  offset="0.1424" style="stop-color:#FFC244"/>
					<stop  offset="0.3183" style="stop-color:#FFC444"/>
					<stop  offset="0.4849" style="stop-color:#FDB946"/>
					<stop  offset="0.7754" style="stop-color:#F99C4D"/>
					<stop  offset="0.8658" style="stop-color:#F8924F"/>
					<stop  offset="1" style="stop-color:#F8924F"/>
				</linearGradient>
				<path class="st3" d="M176.7,22.7c0,8.2-6.4,14.6-14.6,14.4c-8.5-0.3-15.7-7.6-15.7-16.4c0-8.8,7.2-15.2,15.7-14.3
					C170.3,7.2,176.7,14.5,176.7,22.7z"/>
				<linearGradient id="SVGID_4_" gradientUnits="userSpaceOnUse" x1="170.7011" y1="5.7291" x2="154.9339" y2="40.5143">
					<stop  offset="0" style="stop-color:#FFDB44"/>
					<stop  offset="1" style="stop-color:#FEEF06"/>
				</linearGradient>
				<path class="st4" d="M179,22c0,8.2-6.4,14.6-14.6,14.4c-8.5-0.3-15.7-7.6-15.7-16.4c0-8.8,7.2-15.2,15.7-14.3
					C172.6,6.5,179,13.8,179,22z"/>
				<linearGradient id="SVGID_5_" gradientUnits="userSpaceOnUse" x1="167.8007" y1="42.4584" x2="164.7584" y2="25.8384">
					<stop  offset="0" style="stop-color:#FCB148"/>
					<stop  offset="5.207239e-02" style="stop-color:#FDBA46"/>
					<stop  offset="0.1424" style="stop-color:#FFC244"/>
					<stop  offset="0.3183" style="stop-color:#FFC444"/>
					<stop  offset="0.4849" style="stop-color:#FDB946"/>
					<stop  offset="0.7754" style="stop-color:#F99C4D"/>
					<stop  offset="0.8658" style="stop-color:#F8924F"/>
					<stop  offset="1" style="stop-color:#F8924F"/>
				</linearGradient>
				<path class="st5" d="M178.3,21.9c0,7.8-6.1,14-14,13.7c-8.1-0.3-14.9-7.3-14.9-15.7c0-8.4,6.8-14.5,14.9-13.7
					C172.2,7.1,178.3,14.1,178.3,21.9z"/>
				<linearGradient id="SVGID_6_" gradientUnits="userSpaceOnUse" x1="161.3504" y1="15.5572" x2="173.8882" y2="42.1723">
					<stop  offset="0" style="stop-color:#FCB148"/>
					<stop  offset="5.207239e-02" style="stop-color:#FDBA46"/>
					<stop  offset="0.1424" style="stop-color:#FFC244"/>
					<stop  offset="0.3183" style="stop-color:#FFC444"/>
					<stop  offset="0.4849" style="stop-color:#FDB946"/>
					<stop  offset="0.7754" style="stop-color:#F99C4D"/>
					<stop  offset="0.8658" style="stop-color:#F8924F"/>
					<stop  offset="1" style="stop-color:#F8924F"/>
				</linearGradient>
				<path class="st6" d="M177.9,21.9c0,7.6-5.9,13.5-13.5,13.3c-7.8-0.3-14.4-7-14.4-15.1s6.6-14,14.4-13.2
					C171.9,7.6,177.9,14.3,177.9,21.9z"/>
				<g>
					<linearGradient id="SVGID_7_" gradientUnits="userSpaceOnUse" x1="160.8509" y1="9.8299" x2="167.1553" y2="33.4577">
						<stop  offset="0" style="stop-color:#FFDB44"/>
						<stop  offset="1" style="stop-color:#FEEF06"/>
					</linearGradient>
					<path class="st7" d="M164.3,9.4L164.3,9.4c0.4,0,0.7,0.4,0.7,0.8v1.4c0.8,0.1,1.6,0.2,2.4,0.4c0.6,0.1,1.2,0.3,1.8,0.5
						c0.4,0.1,0.6,0.5,0.6,0.8l-0.2,1.7c0,0.5-0.5,0.7-0.9,0.5c-0.4-0.2-0.8-0.3-1.2-0.4c-0.7-0.2-1.5-0.4-2.2-0.4l-0.2,0v4
						c2.1,0.6,3.6,1.4,4.6,2.4c1,1,1.5,2.2,1.5,3.7c0,1.6-0.5,2.9-1.6,3.8c-1.1,1-2.6,1.5-4.6,1.6v1.5c0,0.4-0.3,0.7-0.7,0.7l0,0
						c-0.4,0-0.7-0.4-0.7-0.8v-1.5l-0.3,0c-0.9,0-1.8-0.1-2.7-0.3c-0.6-0.1-1.3-0.3-1.9-0.4c-0.4-0.1-0.6-0.5-0.6-0.8l0.2-2.2
						c0-0.5,0.5-0.8,1-0.6c0.5,0.2,1.1,0.4,1.6,0.5c0.9,0.2,1.7,0.4,2.6,0.4l0-4.4c-2-0.5-3.5-1.2-4.5-2.2c-1-1-1.5-2.2-1.5-3.8
						c0-1.6,0.5-2.8,1.6-3.7c1.1-0.9,2.6-1.3,4.6-1.3v-1.4C163.6,9.6,163.9,9.3,164.3,9.4z M163.6,14.7c-0.6,0-1.1,0.2-1.5,0.5
						c-0.3,0.3-0.5,0.7-0.5,1.2c0,0.5,0.2,0.9,0.5,1.2c0.3,0.3,0.8,0.6,1.5,0.8V14.7z M164.8,22.8v4.1c0.7,0,1.2-0.2,1.6-0.5
						c0.4-0.3,0.5-0.8,0.5-1.4c0-0.5-0.2-1-0.5-1.3C166.1,23.3,165.6,23,164.8,22.8z"/>
				</g>
				<linearGradient id="SVGID_8_" gradientUnits="userSpaceOnUse" x1="157.6619" y1="17.2796" x2="170.1743" y2="43.8411">
					<stop  offset="0" style="stop-color:#FCB148"/>
					<stop  offset="5.207239e-02" style="stop-color:#FDBA46"/>
					<stop  offset="0.1424" style="stop-color:#FFC244"/>
					<stop  offset="0.3183" style="stop-color:#FFC444"/>
					<stop  offset="0.4849" style="stop-color:#FDB946"/>
					<stop  offset="0.7754" style="stop-color:#F99C4D"/>
					<stop  offset="0.8658" style="stop-color:#F8924F"/>
					<stop  offset="1" style="stop-color:#F8924F"/>
				</linearGradient>
				<path class="st8" d="M161.9,23.7c0.5-4.5,4.6-6.4,4.1-10.5c-0.3-2.6-2.3-4.7-4.4-6.4c-6.5,0.7-11.6,6.1-11.6,13.2
					c0,8.1,6.6,14.9,14.4,15.1c0.8,0,1.5,0,2.2-0.1C163.5,31.9,161.5,27.6,161.9,23.7z"/>
			</g>
			<g>
				
					<linearGradient id="SVGID_9_" gradientUnits="userSpaceOnUse" x1="4145.1694" y1="32.0247" x2="4147.02" y2="42.8155" gradientTransform="matrix(1 0 0 1 -3995.7385 0)">
					<stop  offset="0" style="stop-color:#FFC444"/>
					<stop  offset="0.9964" style="stop-color:#F36F56"/>
				</linearGradient>
				<path class="st9" d="M146.2,36.3c0.6-0.5,1.4-1.3,1.9-2.5c0.5-1.3,0.1-1.9,0.8-2.7c0.8-1,2.4-1.5,3.6-1c0.2,0.1,0.5,0.3,0.7,0.6
					c0.5,0.8-0.6,2.3-1.5,3.1c-0.7,0.6-0.9,0.5-1.6,1c-0.7,0.5-1.6,1.3-2.3,2.9L146.2,36.3z"/>
				
					<linearGradient id="SVGID_10_" gradientUnits="userSpaceOnUse" x1="-5844.8691" y1="2039.7943" x2="-5843.0181" y2="2050.5857" gradientTransform="matrix(-0.9207 0.3902 0.3902 0.9207 -5998.7207 429.1825)">
					<stop  offset="0" style="stop-color:#FFC444"/>
					<stop  offset="0.9964" style="stop-color:#F36F56"/>
				</linearGradient>
				<path class="st10" d="M183.2,29.2c-0.8-0.2-1.8-0.6-2.7-1.6c-1-1-0.9-1.7-1.8-2.2c-1.1-0.6-2.8-0.4-3.7,0.5
					c-0.2,0.2-0.4,0.4-0.4,0.8c-0.1,1,1.5,1.9,2.6,2.3c0.8,0.3,1.1,0.1,1.9,0.3c0.8,0.2,2,0.6,3.2,1.8L183.2,29.2z"/>
				
					<linearGradient id="SVGID_11_" gradientUnits="userSpaceOnUse" x1="-6396.7095" y1="1514.1841" x2="-6382.1729" y2="1598.9424" gradientTransform="matrix(-0.9612 0.2758 0.2758 0.9612 -6382.3081 350.1443)">
					<stop  offset="0" style="stop-color:#FF9085"/>
					<stop  offset="1" style="stop-color:#FB6FBB"/>
				</linearGradient>
				<path class="st11" d="M179.7,30.4c-0.5,2.3,2,4.4,3.9,6.5c3.7,4.1,7.5,11.4,6.1,17.7c-0.8,3.4-3.2,7.1-6.7,8.9
					c-3.7,1.9-6,0.2-9.9,2.4c-0.3,0.2-5.2,3.1-5.4,7c-0.2,4.9,7,10,13.1,10.4c11.2,0.7,24.7-14.2,24.1-29c-0.7-16.1-18-28.9-23-26.7
					C181.1,28.1,180,29.1,179.7,30.4z"/>
				
					<linearGradient id="SVGID_12_" gradientUnits="userSpaceOnUse" x1="-7857.1543" y1="432.9048" x2="-7857.1543" y2="393.0532" gradientTransform="matrix(-0.9994 3.520000e-02 3.520000e-02 0.9994 -7691.5249 50.1706)">
					<stop  offset="0" style="stop-color:#FFC444"/>
					<stop  offset="0.9964" style="stop-color:#F36F56"/>
				</linearGradient>
				<polygon class="st12" points="174.7,197.1 174.3,201.2 176.2,200.9 177.5,197 				"/>
				
					<linearGradient id="SVGID_13_" gradientUnits="userSpaceOnUse" x1="-7860.8745" y1="356.3382" x2="-7864.1177" y2="429.3159" gradientTransform="matrix(-0.9994 3.520000e-02 3.520000e-02 0.9994 -7691.5249 50.1706)">
					<stop  offset="0" style="stop-color:#311944"/>
					<stop  offset="1" style="stop-color:#893976"/>
				</linearGradient>
				<path class="st13" d="M186.3,121.8c-0.2,7.2-1.1,13.4-2.2,18.5c-1.2,5.4-1.8,6.4-2.2,10.1c-0.8,8.2,1.9,9.4,2.3,18.6
					c0.5,10.2-2.2,18.3-3.3,21.4c-0.9,2.7-1.9,4.9-2.6,6.4c-0.9,0.8-2.4,0.5-3.9,0.2c-0.6-9.3-1.3-18-1.8-27.3
					c-1.8-13.9-3.6-27.9-5.4-41.8C173.6,125.9,180,123.8,186.3,121.8z"/>
				
					<linearGradient id="SVGID_14_" gradientUnits="userSpaceOnUse" x1="-7860.8745" y1="356.3382" x2="-7864.1177" y2="429.3159" gradientTransform="matrix(-0.9994 3.520000e-02 3.520000e-02 0.9994 -7691.5249 50.1706)">
					<stop  offset="0" style="stop-color:#311944"/>
					<stop  offset="1" style="stop-color:#893976"/>
				</linearGradient>
				<path class="st14" d="M174.5,197.1c-0.6-9.3-1.3-18-1.8-27.3c-1.8-13.9-3.6-27.9-5.4-41.8c6.3-2.1,12.7-4.1,19-6.2
					c0,0.5,0,0.9-0.1,1.4c-8.9,7.7-10.6,13.8-10.5,18c0.1,5.1,2.9,7.6,2.3,14.9c-0.4,5.2-2,6.2-2,10.9c0,6.1,2.6,9.5,3.9,13
					c1.2,3.4,1.7,8.2-0.7,15.1c-0.3,0.7-0.6,1.3-0.9,1.9C177.4,197.7,176,197.4,174.5,197.1z"/>
				
					<linearGradient id="SVGID_15_" gradientUnits="userSpaceOnUse" x1="-7853.8599" y1="433.1105" x2="-7860.5269" y2="411.1266" gradientTransform="matrix(-0.9994 3.520000e-02 3.520000e-02 0.9994 -7691.5249 50.1706)">
					<stop  offset="0" style="stop-color:#FF9085"/>
					<stop  offset="1" style="stop-color:#FB6FBB"/>
				</linearGradient>
				<path class="st15" d="M175.4,202.6c0.9-1.1,1.7-1,1.9-1.8c0.1-0.6-0.3-1.3-0.8-1.6c-0.8-0.4-1.7,0.3-1.9,0.4
					c-1.4,1-1,2.4-2.3,3.1c-0.3,0.1-0.7,0.3-1.1,0.7c-0.2,0.2-0.7,0.6-0.5,0.9c0.1,0.4,1,0.3,1.8,0.3c1,0,1.5-0.1,1.9-0.4
					C174.9,203.9,174.7,203.5,175.4,202.6z"/>
				
					<linearGradient id="SVGID_16_" gradientUnits="userSpaceOnUse" x1="-3978.6536" y1="3621.3115" x2="-3978.6536" y2="3585.9917" gradientTransform="matrix(-0.6521 0.7581 0.7581 0.6521 -5159.0981 826.5609)">
					<stop  offset="0" style="stop-color:#FFC444"/>
					<stop  offset="0.9964" style="stop-color:#F36F56"/>
				</linearGradient>
				<polygon class="st16" points="173.5,167.7 177.1,169.1 178.1,167.5 175.3,165.6 				"/>
				
					<linearGradient id="SVGID_17_" gradientUnits="userSpaceOnUse" x1="-3976.198" y1="3622.6467" x2="-3982.8655" y2="3600.6619" gradientTransform="matrix(-0.6521 0.7581 0.7581 0.6521 -5159.0981 826.5609)">
					<stop  offset="0" style="stop-color:#FF9085"/>
					<stop  offset="1" style="stop-color:#FB6FBB"/>
				</linearGradient>
				<path class="st17" d="M178.9,170c-0.2-1.4,0.4-2,0-2.6c-0.4-0.5-1.1-0.7-1.7-0.5c-0.8,0.3-1,1.4-1,1.7c-0.3,1.7,1.1,2.4,0.7,3.8
					c-0.1,0.3-0.3,0.7-0.3,1.3c0,0.3,0,0.9,0.3,1c0.4,0.1,0.9-0.5,1.4-1.1c0.6-0.7,0.9-1.1,1-1.6C179.5,171.2,179.1,171.1,178.9,170
					z"/>
				
					<linearGradient id="SVGID_18_" gradientUnits="userSpaceOnUse" x1="4200.0537" y1="144.0616" x2="4132.0322" y2="140.9696" gradientTransform="matrix(1 0 0 1 -3995.7385 0)">
					<stop  offset="0" style="stop-color:#311944"/>
					<stop  offset="1" style="stop-color:#893976"/>
				</linearGradient>
				<path class="st18" d="M158.1,115.3c-6.6,13.5-8.9,24.7-9.7,32.1c-0.5,4.7-0.5,7.6,0.9,10.6c4.9,10.5,21.9,11.2,24.5,11.3
					c0.9-1.7,1.7-3.5,2.6-5.2c-1.6-2.9-4.3-6.9-9-9.9c-3.6-2.3-5-1.8-5.9-3.3c-3.6-6.1,15.8-19.3,12.9-28.1
					C173.4,119.8,169.5,116.7,158.1,115.3z"/>
				
					<linearGradient id="SVGID_19_" gradientUnits="userSpaceOnUse" x1="4173.0264" y1="37.1534" x2="4189.9419" y2="135.7826" gradientTransform="matrix(1 0 0 1 -3995.7385 0)">
					<stop  offset="0" style="stop-color:#FF9085"/>
					<stop  offset="1" style="stop-color:#FB6FBB"/>
				</linearGradient>
				<path class="st19" d="M172.5,66.8c-7.2,1.2-12.6,2.5-15,6.3c-2.6,4,1.5,6.9,2.6,15.6c1.7,13.3-5.9,18.3-3.7,31.6
					c0.4,2.2,0.9,4.1,1.5,5.8c1,2.9,3,5.4,5.7,7c2,1.2,4.4,2.5,7.2,3.5c7.3,2.5,10.8,1.1,20.6,1.6c16,0.9,18.3,5.5,25.6,2.7
					c7.3-2.9,12.6-10.6,11-14c-0.9-2-3.8-0.7-8-3.2c-5.4-3.1-4.5-7.4-8.9-11.1c-6.3-5.3-12.3,0.1-17.7-4.6c-5.4-4.7-6.1-16-3.8-22.7
					c1.5-4.4,1.5-9.2,2.7-13.7c0.1-0.4,0.2-1-0.1-1.7c-0.9-2.6-5.6-3.1-9.2-3.4C177.3,66,173.1,66.7,172.5,66.8z"/>
				
					<linearGradient id="SVGID_20_" gradientUnits="userSpaceOnUse" x1="6944.2734" y1="1595.3717" x2="6977.2085" y2="1663.0972" gradientTransform="matrix(0.9781 -0.2085 0.2085 0.9781 -6974.2129 -36.4474)">
					<stop  offset="0" style="stop-color:#FF9085"/>
					<stop  offset="1" style="stop-color:#FB6FBB"/>
				</linearGradient>
				<path class="st20" d="M215.9,135.9c-2.2-1.5-1-5.6-4.3-7.9c-3-2.1-5.4,0.6-9.9-0.7c-5.7-1.8-5.4-7.3-10.9-9.1
					c-4-1.3-5.2,1.3-10.9,1.4c-5.7,0.1-13.2-2.2-17.9-8.3c-2-2.6-3.1-5.3-3.7-7.8c-1.5,4.9-3.2,9.7-2,16.9c0.5,2.9,1.3,5.4,2.1,7.3
					c0.7,1.8,2,3.4,3.6,4.5c2.2,1.5,5.1,3.2,8.6,4.4c7.3,2.5,10.8,1.1,20.6,1.6c16,0.9,18.3,5.5,25.6,2.7c4.7-1.8,8.5-5.7,10.2-9.1
					C220.7,136.4,217.6,136.9,215.9,135.9z"/>
				
					<linearGradient id="SVGID_21_" gradientUnits="userSpaceOnUse" x1="-7852.9697" y1="286.0837" x2="-7860.5762" y2="298.3879" gradientTransform="matrix(-0.9994 3.520000e-02 3.520000e-02 0.9994 -7691.5249 50.1706)">
					<stop  offset="0" style="stop-color:#FFC444"/>
					<stop  offset="0.9964" style="stop-color:#F36F56"/>
				</linearGradient>
				<path class="st21" d="M168.4,54.4c0,0-2,3.7-2.1,6.3c-0.1,2.6,2.8,2.4,2.8,2.4l-0.1,1.6c-0.1,1.4-1,2.6-2.3,3.1l-1.2,0.4
					c0,0,7.5,1.6,11.7-1.3l-1.2-0.1c-1.7-0.2-3-1.5-3.2-3.2l-0.1-0.7C172.7,63,174,54.9,168.4,54.4z"/>
				
					<linearGradient id="SVGID_22_" gradientUnits="userSpaceOnUse" x1="4144.5728" y1="48.6931" x2="4159.1089" y2="133.4502" gradientTransform="matrix(1 0 0 1 -3995.7385 0)">
					<stop  offset="0" style="stop-color:#FF9085"/>
					<stop  offset="1" style="stop-color:#FB6FBB"/>
				</linearGradient>
				<path class="st22" d="M149.8,37c1.1,2.1-0.7,4.8-1.9,7.3c-2.4,5-4.1,13.1-1,18.7c1.7,3.1,5.1,6,8.9,6.7
					c4.1,0.8,5.8-1.5,10.2-0.4c0.3,0.1,5.9,1.5,7.1,5.3c1.5,4.6-3.9,11.6-9.7,13.7c-10.6,3.8-27.7-6.8-31.1-21.2
					c-3.8-15.7,9.3-32.7,14.7-32C147.8,35.2,149.1,35.9,149.8,37z"/>
				
					<linearGradient id="SVGID_23_" gradientUnits="userSpaceOnUse" x1="-7895.2144" y1="337.62" x2="-7864.4644" y2="271.9143" gradientTransform="matrix(-0.9994 3.520000e-02 3.520000e-02 0.9994 -7691.5249 50.1706)">
					<stop  offset="0" style="stop-color:#444B8C"/>
					<stop  offset="0.9964" style="stop-color:#26264F"/>
				</linearGradient>
				<path class="st23" d="M169.5,58.1c0.4,0,0.7-0.5,1-0.4c0.3,0.2,0.2,0.9,0,1.4c-0.2,0.4-0.5,0.6-0.7,0.8c0.3,0.4,0.7,1.1,0.8,1.9
					c0.4,1.9-0.6,3.4-1.1,4.3c-1.9,4,1,10.3,4.2,13.4c2.6,2.6,3.8,1.5,5.4,3.7c3,4.1-1.1,8.6,0.4,14.1c2.4,8.4,15.6,10.9,16.2,11
					c0.2,0,0.4,0.1,0.6,0.1c6,0.9,15,2.4,21.3-2.5c4.8-3.7,6.9-10,6.6-15.6c-0.1-1.5-0.5-7.1-5.1-11.6c-0.7-0.7-5-5-10.8-5.1
					c-3.1,0-3.7,1.1-6,0.4c-3.2-0.9-5.2-3.8-6.4-5.6c-2.3-3.3-1.3-4-3-5.7c-3.2-3.2-6.9-0.7-10.3-3.5c-3.3-2.8-1.3-6.6-4.6-9
					c-3.3-2.5-9.7-1.6-11.1,1.3C165.8,54,168.3,58.2,169.5,58.1z"/>
			</g>
		</g>
	</g>
	<g>
		
			<image style="overflow:visible;opacity:0.2;" width="195" height="136" xlink:href="E2D0B757.png"  transform="matrix(1 0 0 1 10.3486 71.0361)">
		</image>
		<g>
			<g>
				<g>
					<rect x="116.4" y="145.3" class="st24" width="80.8" height="8.5"/>
					<g>
						<path class="st25" d="M175.7,175.2c-18.2-9.6-38-15.6-58.4-17.5c0.8-8.8,1.5-17.6,2.3-26.5c23.5,2.2,46.4,9.1,67.5,20.2
							C183.3,159.4,179.5,167.3,175.7,175.2z"/>
						<path class="st26" d="M119.2,152.9c0.5-5.5,1-11,1.5-16.5c2.1,0.2,4.1-1.2,4.3-3.1c19.6,2.5,38.7,8.2,56.6,17
							c-0.8,1.8,0.1,4,2.1,5c-2.3,5-4.7,9.9-7,14.9c-1.8-0.9-3.9-0.2-4.7,1.6c-15.7-7.7-32.5-12.7-49.7-14.9
							C122.5,154.9,121.1,153.1,119.2,152.9z"/>
						<g>
							<path class="st27" d="M161.2,153.8c-1.6,4.7-6.7,7.1-11.4,5.7c-4.7-1.5-7.7-6.4-6.7-11.3c1.1-4.9,6.3-7.8,11.6-6.2
								C160,143.7,162.9,149.1,161.2,153.8z"/>
							<path class="st25" d="M149.8,157.8c0.1-0.5,0.3-1.1,0.4-1.6c-0.7-0.2-1.4-0.6-1.9-0.9c-0.4-0.3-0.6-0.9-0.4-1.3
								c0,0,0,0,0-0.1c0.3-0.5,0.9-0.7,1.4-0.3c0.5,0.3,1.1,0.6,1.8,0.8c1,0.3,1.7,0.1,1.9-0.6c0.2-0.6-0.3-1.2-1.4-2
								c-1.7-1.1-2.8-2.3-2.4-3.9c0.3-1.5,1.7-2.4,3.7-2.2c0.1-0.5,0.3-1.1,0.4-1.6c0.6,0.2,1.2,0.3,1.7,0.5c-0.1,0.5-0.2,1-0.4,1.5
								c0.6,0.2,1.1,0.4,1.6,0.7c0.5,0.3,0.7,0.9,0.4,1.4l0,0c-0.3,0.5-0.9,0.6-1.4,0.3c-0.4-0.2-0.9-0.5-1.5-0.7
								c-1.1-0.3-1.6,0-1.7,0.5c-0.1,0.6,0.4,1.1,1.7,2c1.9,1.3,2.4,2.5,2,4c-0.4,1.5-1.8,2.4-3.8,2.2c-0.1,0.6-0.3,1.1-0.4,1.7
								C150.9,158.1,150.3,158,149.8,157.8z"/>
							<path class="st27" d="M140.4,148c-4.6-1.1-9.3-1.9-14.1-2.6c0.1-0.8,0.2-1.7,0.3-2.5c4.8,0.7,9.5,1.6,14.3,2.7
								C140.7,146.4,140.6,147.2,140.4,148z"/>
							<path class="st27" d="M176.6,160.9c-4.3-2.1-8.7-4-13.2-5.8c0.3-0.8,0.6-1.6,0.8-2.4c4.5,1.8,9,3.7,13.4,5.9
								C177.3,159.4,177,160.1,176.6,160.9z"/>
						</g>
					</g>
					<g>
						<path class="st25" d="M184.3,144.9c-18.8,3.9-36.7,11.8-52.8,23.2c-4.3-7.5-8.7-15-13-22.5c18.6-13.2,39.3-22.3,61-26.8
							C181.1,127.5,182.7,136.2,184.3,144.9z"/>
						<path class="st26" d="M130.1,163.2c-2.7-4.7-5.4-9.4-8-14.1c1.7-1.2,2.3-3.5,1.4-5.2c15.8-10.5,33.1-18.1,51.2-22.5
							c0.4,1.9,2.3,3.1,4.3,2.7c1,5.4,2.1,10.8,3.1,16.3c-1.8,0.4-2.9,2.3-2.5,4.3c-15.9,3.9-31,10.5-44.9,19.8
							C133.7,162.6,131.7,162.1,130.1,163.2z"/>
						<g>
							<path class="st27" d="M161.7,137.1c1.4,4.8-1,9.9-5.3,11.8c-4.3,1.8-9.2-0.2-11.2-4.7c-1.9-4.6,0.3-10.2,5.1-12.3
								C155.1,129.8,160.3,132.3,161.7,137.1z"/>
							<path class="st25" d="M155.5,147.6c-0.2-0.5-0.4-1-0.6-1.5c-0.7,0.3-1.3,0.4-1.9,0.5c-0.5,0.1-0.9-0.3-1-0.8c0,0,0,0,0-0.1
								c-0.1-0.6,0.3-1.1,0.9-1.2c0.6-0.1,1.2-0.2,1.7-0.5c0.9-0.4,1.3-1,1.1-1.7c-0.2-0.6-0.9-0.8-2.1-0.6
								c-1.9,0.2-3.3-0.1-3.9-1.6c-0.6-1.4-0.1-3,1.5-4.1c-0.2-0.5-0.4-1-0.6-1.5c0.5-0.2,1-0.5,1.6-0.7c0.2,0.5,0.4,0.9,0.5,1.4
								c0.6-0.2,1.1-0.4,1.5-0.4c0.5-0.1,1,0.3,1.1,0.8l0,0c0.1,0.6-0.3,1.1-0.9,1.2c-0.4,0.1-0.9,0.2-1.5,0.4c-1,0.5-1.2,1.1-1,1.5
								c0.2,0.5,0.9,0.6,2.4,0.5c2.1-0.2,3.2,0.4,3.7,1.9c0.5,1.4,0,3.1-1.6,4.2c0.2,0.5,0.4,1.1,0.6,1.6
								C156.4,147.2,155.9,147.4,155.5,147.6z"/>
							<path class="st27" d="M143.1,145.8c-4,2.1-8,4.4-11.8,6.9c-0.4-0.7-0.8-1.5-1.2-2.2c3.9-2.5,7.9-4.8,12-7
								C142.4,144.3,142.7,145,143.1,145.8z"/>
							<path class="st27" d="M177,133c-4.4,1.1-8.7,2.3-12.9,3.8c-0.2-0.8-0.5-1.6-0.7-2.5c4.3-1.5,8.7-2.8,13.1-3.9
								C176.6,131.3,176.8,132.2,177,133z"/>
						</g>
					</g>
					<g>
						<path class="st25" d="M187.3,161.4c-19.6-1.2-39.2,1.7-57.7,8.5c-2.6-8.4-5.1-16.8-7.7-25.2c21.5-7.8,44.1-11.2,66.8-9.8
							C188.2,143.7,187.7,152.5,187.3,161.4z"/>
						<path class="st26" d="M129.3,164.7c-1.6-5.3-3.1-10.5-4.7-15.8c2-0.7,3.1-2.8,2.6-4.7c18.1-6,37-8.7,56-8.2
							c0,2,1.6,3.6,3.7,3.8c-0.2,5.5-0.5,11-0.7,16.6c-1.9-0.1-3.5,1.5-3.5,3.5c-16.6-0.5-33.2,2-49.2,7.2
							C133,165.1,131.1,164,129.3,164.7z"/>
						<g>
							<path class="st27" d="M166.7,147.8c0.3,5-3.3,9.4-8,10c-4.7,0.6-9.1-2.6-10-7.5c-0.9-4.9,2.6-9.8,7.9-10.5
								C161.9,139,166.4,142.8,166.7,147.8z"/>
							<path class="st25" d="M158.1,156.3c-0.1-0.5-0.2-1.1-0.2-1.6c-0.7,0.1-1.4,0.1-2,0c-0.5-0.1-0.9-0.5-0.8-1.1c0,0,0,0,0-0.1
								c0-0.6,0.6-1,1.1-0.9c0.6,0.1,1.2,0.1,1.8,0c0.9-0.2,1.5-0.6,1.5-1.3c-0.1-0.6-0.7-1-2-1.2c-1.9-0.3-3.2-0.9-3.5-2.6
								c-0.2-1.5,0.6-2.9,2.4-3.5c-0.1-0.5-0.2-1.1-0.2-1.6c0.6-0.1,1.1-0.2,1.7-0.3c0.1,0.5,0.1,1,0.2,1.5c0.6-0.1,1.2-0.1,1.6,0
								c0.6,0.1,0.9,0.6,0.9,1.1l0,0c-0.1,0.6-0.6,1-1.2,0.9c-0.4-0.1-0.9-0.1-1.5,0c-1.1,0.2-1.4,0.7-1.3,1.2
								c0.1,0.6,0.7,0.8,2.3,1.1c2.1,0.4,3,1.2,3.2,2.8c0.2,1.5-0.7,3-2.6,3.6c0.1,0.6,0.2,1.2,0.2,1.7
								C159.1,156.2,158.6,156.3,158.1,156.3z"/>
							<path class="st27" d="M146.2,151.3c-4.5,1-8.9,2.1-13.3,3.5c-0.2-0.8-0.4-1.6-0.6-2.5c4.5-1.4,9-2.6,13.5-3.6
								C145.9,149.6,146.1,150.5,146.2,151.3z"/>
							<path class="st27" d="M182.8,147.9c-4.6-0.1-9.2,0-13.7,0.2c0-0.9-0.1-1.7-0.1-2.6c4.6-0.3,9.3-0.4,13.9-0.2
								C182.8,146.2,182.8,147,182.8,147.9z"/>
						</g>
					</g>
					<rect x="116.4" y="145.3" class="st24" width="80.8" height="35.6"/>
					<rect x="119.4" y="147" class="st28" width="73.6" height="2.8"/>
					<g>
						<path class="st25" d="M152.7,180.4H117c-0.8,0-1.5-0.7-1.5-1.5v-19.2c0-0.8,0.7-1.5,1.5-1.5h35.7c0.8,0,1.5,0.7,1.5,1.5v19.2
							C154.2,179.8,153.5,180.4,152.7,180.4z"/>
						<rect x="118" y="162.7" class="st29" width="9.5" height="5.5"/>
						<rect x="134.8" y="161.3" class="st29" width="16.9" height="1"/>
						<rect x="119.4" y="173.1" class="st29" width="31.1" height="1.3"/>
						<rect x="119.4" y="176.1" class="st29" width="31.1" height="1.3"/>
					</g>
					<rect x="120.3" y="154.4" class="st28" width="34.3" height="0.9"/>
					<g>
						
							<linearGradient id="SVGID_24_" gradientUnits="userSpaceOnUse" x1="156.414" y1="202.5215" x2="148.6272" y2="205.0205" gradientTransform="matrix(0.9988 4.952272e-02 -4.952272e-02 0.9988 25.2622 -68.4769)">
							<stop  offset="0" style="stop-color:#FCB148"/>
							<stop  offset="5.207239e-02" style="stop-color:#FDBA46"/>
							<stop  offset="0.1424" style="stop-color:#FFC244"/>
							<stop  offset="0.3183" style="stop-color:#FFC444"/>
							<stop  offset="0.4849" style="stop-color:#FDB946"/>
							<stop  offset="0.7754" style="stop-color:#F99C4D"/>
							<stop  offset="0.8658" style="stop-color:#F8924F"/>
							<stop  offset="1" style="stop-color:#F8924F"/>
						</linearGradient>
						<path class="st30" d="M180.4,141.7c-0.2,3.6-3.1,6.3-6.7,6c-3.7-0.3-6.7-3.7-6.5-7.6s3.5-6.5,7.2-6
							C177.9,134.7,180.6,138.1,180.4,141.7z"/>
						
							<linearGradient id="SVGID_25_" gradientUnits="userSpaceOnUse" x1="162.7131" y1="194.7705" x2="155.7615" y2="210.107" gradientTransform="matrix(0.9988 4.952272e-02 -4.952272e-02 0.9988 25.2622 -68.4769)">
							<stop  offset="0" style="stop-color:#FFDB44"/>
							<stop  offset="1" style="stop-color:#FEEF06"/>
						</linearGradient>
						<path class="st31" d="M181.4,141.4c-0.2,3.6-3.1,6.3-6.7,6c-3.7-0.3-6.7-3.7-6.5-7.6c0.2-3.9,3.5-6.5,7.2-6
							C178.9,134.5,181.6,137.8,181.4,141.4z"/>
						
							<linearGradient id="SVGID_26_" gradientUnits="userSpaceOnUse" x1="161.4343" y1="210.9642" x2="160.093" y2="203.6365" gradientTransform="matrix(0.9988 4.952272e-02 -4.952272e-02 0.9988 25.2622 -68.4769)">
							<stop  offset="0" style="stop-color:#FCB148"/>
							<stop  offset="5.207239e-02" style="stop-color:#FDBA46"/>
							<stop  offset="0.1424" style="stop-color:#FFC244"/>
							<stop  offset="0.3183" style="stop-color:#FFC444"/>
							<stop  offset="0.4849" style="stop-color:#FDB946"/>
							<stop  offset="0.7754" style="stop-color:#F99C4D"/>
							<stop  offset="0.8658" style="stop-color:#F8924F"/>
							<stop  offset="1" style="stop-color:#F8924F"/>
						</linearGradient>
						<path class="st32" d="M181.1,141.4c-0.2,3.4-3,6-6.4,5.7c-3.6-0.3-6.4-3.5-6.2-7.2c0.2-3.7,3.3-6.2,6.9-5.7
							C178.8,134.8,181.3,138,181.1,141.4z"/>
						
							<linearGradient id="SVGID_27_" gradientUnits="userSpaceOnUse" x1="158.5905" y1="199.1036" x2="164.1183" y2="210.838" gradientTransform="matrix(0.9988 4.952272e-02 -4.952272e-02 0.9988 25.2622 -68.4769)">
							<stop  offset="0" style="stop-color:#FCB148"/>
							<stop  offset="5.207239e-02" style="stop-color:#FDBA46"/>
							<stop  offset="0.1424" style="stop-color:#FFC244"/>
							<stop  offset="0.3183" style="stop-color:#FFC444"/>
							<stop  offset="0.4849" style="stop-color:#FDB946"/>
							<stop  offset="0.7754" style="stop-color:#F99C4D"/>
							<stop  offset="0.8658" style="stop-color:#F8924F"/>
							<stop  offset="1" style="stop-color:#F8924F"/>
						</linearGradient>
						<path class="st33" d="M180.9,141.4c-0.2,3.3-2.9,5.8-6.2,5.5c-3.4-0.3-6.2-3.4-6-7c0.2-3.6,3.2-6,6.6-5.5
							C178.6,135,181.1,138,180.9,141.4z"/>
						<g>
							
								<linearGradient id="SVGID_28_" gradientUnits="userSpaceOnUse" x1="158.3702" y1="196.5785" x2="161.1498" y2="206.9958" gradientTransform="matrix(0.9988 4.952272e-02 -4.952272e-02 0.9988 25.2622 -68.4769)">
								<stop  offset="0" style="stop-color:#FFDB44"/>
								<stop  offset="1" style="stop-color:#FEEF06"/>
							</linearGradient>
							<path class="st34" d="M175.2,135.6L175.2,135.6c0.2,0,0.3,0.2,0.3,0.4l0,0.6c0.4,0.1,0.7,0.1,1.1,0.2
								c0.3,0.1,0.5,0.2,0.8,0.3c0.2,0.1,0.3,0.2,0.2,0.4l-0.1,0.8c0,0.2-0.2,0.3-0.4,0.2c-0.2-0.1-0.3-0.2-0.5-0.2
								c-0.3-0.1-0.6-0.2-1-0.2l-0.1,0l-0.1,1.8c0.9,0.3,1.6,0.7,2,1.1c0.4,0.5,0.6,1,0.6,1.7c0,0.7-0.3,1.3-0.8,1.7
								c-0.5,0.4-1.2,0.6-2.1,0.6l0,0.7c0,0.2-0.2,0.3-0.3,0.3l0,0c-0.2,0-0.3-0.2-0.3-0.4l0-0.7l-0.1,0c-0.4,0-0.8-0.1-1.2-0.2
								c-0.3-0.1-0.5-0.1-0.8-0.2c-0.2-0.1-0.3-0.2-0.2-0.4l0.1-1c0-0.2,0.3-0.3,0.5-0.2c0.2,0.1,0.5,0.2,0.7,0.3
								c0.4,0.1,0.8,0.2,1.1,0.2l0.1-2c-0.9-0.3-1.5-0.6-1.9-1.1c-0.4-0.5-0.6-1-0.6-1.7c0-0.7,0.3-1.2,0.8-1.6
								c0.5-0.4,1.2-0.5,2-0.5l0-0.6C174.9,135.7,175,135.6,175.2,135.6z M174.8,137.9c-0.3,0-0.5,0.1-0.7,0.2
								c-0.2,0.1-0.2,0.3-0.3,0.5c0,0.2,0.1,0.4,0.2,0.5c0.1,0.1,0.3,0.3,0.6,0.4L174.8,137.9z M175.2,141.5l-0.1,1.8
								c0.3,0,0.5,0,0.7-0.2c0.2-0.1,0.3-0.3,0.3-0.6c0-0.2-0.1-0.4-0.2-0.6C175.7,141.7,175.5,141.6,175.2,141.5z"/>
						</g>
						
							<linearGradient id="SVGID_29_" gradientUnits="userSpaceOnUse" x1="156.9642" y1="199.863" x2="162.4809" y2="211.5738" gradientTransform="matrix(0.9988 4.952272e-02 -4.952272e-02 0.9988 25.2622 -68.4769)">
							<stop  offset="0" style="stop-color:#FCB148"/>
							<stop  offset="5.207239e-02" style="stop-color:#FDBA46"/>
							<stop  offset="0.1424" style="stop-color:#FFC244"/>
							<stop  offset="0.3183" style="stop-color:#FFC444"/>
							<stop  offset="0.4849" style="stop-color:#FDB946"/>
							<stop  offset="0.7754" style="stop-color:#F99C4D"/>
							<stop  offset="0.8658" style="stop-color:#F8924F"/>
							<stop  offset="1" style="stop-color:#F8924F"/>
						</linearGradient>
						<path class="st35" d="M173.9,141.9c0.3-2,2.2-2.7,2-4.6c-0.1-1.1-0.9-2.1-1.8-2.9c-2.9,0.2-5.2,2.4-5.4,5.6
							c-0.2,3.6,2.6,6.7,6,7c0.3,0,0.7,0,1,0C174.4,145.5,173.6,143.5,173.9,141.9z"/>
					</g>
					<g>
						
							<linearGradient id="SVGID_30_" gradientUnits="userSpaceOnUse" x1="560.5045" y1="-271.219" x2="554.4571" y2="-269.2782" gradientTransform="matrix(0.8894 -0.4572 0.4572 0.8894 -207.637 655.3116)">
							<stop  offset="0" style="stop-color:#FCB148"/>
							<stop  offset="5.207239e-02" style="stop-color:#FDBA46"/>
							<stop  offset="0.1424" style="stop-color:#FFC244"/>
							<stop  offset="0.3183" style="stop-color:#FFC444"/>
							<stop  offset="0.4849" style="stop-color:#FDB946"/>
							<stop  offset="0.7754" style="stop-color:#F99C4D"/>
							<stop  offset="0.8658" style="stop-color:#F8924F"/>
							<stop  offset="1" style="stop-color:#F8924F"/>
						</linearGradient>
						<path class="st36" d="M172.9,154.5c1.3,2.5,0.3,5.5-2.2,6.7c-2.6,1.3-6,0.1-7.3-2.5c-1.4-2.7-0.2-5.8,2.5-6.8
							C168.6,150.7,171.7,152,172.9,154.5z"/>
						
							<linearGradient id="SVGID_31_" gradientUnits="userSpaceOnUse" x1="565.3964" y1="-277.2385" x2="559.9977" y2="-265.328" gradientTransform="matrix(0.8894 -0.4572 0.4572 0.8894 -207.637 655.3116)">
							<stop  offset="0" style="stop-color:#FFDB44"/>
							<stop  offset="1" style="stop-color:#FEEF06"/>
						</linearGradient>
						<path class="st37" d="M173.5,153.9c1.3,2.5,0.3,5.5-2.2,6.7c-2.6,1.3-6,0.1-7.3-2.5c-1.4-2.7-0.2-5.8,2.5-6.8
							C169.1,150.2,172.2,151.4,173.5,153.9z"/>
						
							<linearGradient id="SVGID_32_" gradientUnits="userSpaceOnUse" x1="564.4033" y1="-264.6623" x2="563.3616" y2="-270.353" gradientTransform="matrix(0.8894 -0.4572 0.4572 0.8894 -207.637 655.3116)">
							<stop  offset="0" style="stop-color:#FCB148"/>
							<stop  offset="5.207239e-02" style="stop-color:#FDBA46"/>
							<stop  offset="0.1424" style="stop-color:#FFC244"/>
							<stop  offset="0.3183" style="stop-color:#FFC444"/>
							<stop  offset="0.4849" style="stop-color:#FDB946"/>
							<stop  offset="0.7754" style="stop-color:#F99C4D"/>
							<stop  offset="0.8658" style="stop-color:#F8924F"/>
							<stop  offset="1" style="stop-color:#F8924F"/>
						</linearGradient>
						<path class="st38" d="M173.3,154c1.2,2.4,0.3,5.2-2.1,6.4c-2.5,1.2-5.7,0.1-7-2.4c-1.3-2.6-0.2-5.5,2.4-6.5
							C169.1,150.4,172.1,151.6,173.3,154z"/>
						
							<linearGradient id="SVGID_33_" gradientUnits="userSpaceOnUse" x1="562.1948" y1="-273.8734" x2="566.4877" y2="-264.7603" gradientTransform="matrix(0.8894 -0.4572 0.4572 0.8894 -207.637 655.3116)">
							<stop  offset="0" style="stop-color:#FCB148"/>
							<stop  offset="5.207239e-02" style="stop-color:#FDBA46"/>
							<stop  offset="0.1424" style="stop-color:#FFC244"/>
							<stop  offset="0.3183" style="stop-color:#FFC444"/>
							<stop  offset="0.4849" style="stop-color:#FDB946"/>
							<stop  offset="0.7754" style="stop-color:#F99C4D"/>
							<stop  offset="0.8658" style="stop-color:#F8924F"/>
							<stop  offset="1" style="stop-color:#F8924F"/>
						</linearGradient>
						<path class="st39" d="M173.2,154c1.2,2.3,0.3,5-2,6.2c-2.4,1.1-5.5,0.1-6.8-2.4c-1.3-2.5-0.2-5.3,2.3-6.3
							C169.1,150.6,172,151.7,173.2,154z"/>
						<g>
							
								<linearGradient id="SVGID_34_" gradientUnits="userSpaceOnUse" x1="562.0237" y1="-275.8344" x2="564.1824" y2="-267.7442" gradientTransform="matrix(0.8894 -0.4572 0.4572 0.8894 -207.637 655.3116)">
								<stop  offset="0" style="stop-color:#FFDB44"/>
								<stop  offset="1" style="stop-color:#FEEF06"/>
							</linearGradient>
							<path class="st40" d="M167.1,152.4L167.1,152.4c0.1-0.1,0.3,0,0.3,0.1l0.2,0.4c0.3-0.1,0.5-0.2,0.8-0.3
								c0.2-0.1,0.4-0.1,0.6-0.1c0.1,0,0.3,0.1,0.3,0.2l0.2,0.6c0.1,0.1,0,0.3-0.2,0.3c-0.1,0-0.3,0-0.4,0.1c-0.2,0-0.5,0.1-0.7,0.2
								l-0.1,0l0.6,1.2c0.7-0.1,1.3-0.2,1.8,0c0.5,0.1,0.8,0.4,1,0.9c0.3,0.5,0.3,1,0.1,1.4c-0.2,0.5-0.6,0.9-1.2,1.2l0.2,0.5
								c0.1,0.1,0,0.3-0.1,0.3l0,0c-0.1,0.1-0.3,0-0.3-0.1l-0.2-0.5l-0.1,0c-0.3,0.1-0.6,0.2-0.9,0.3c-0.2,0.1-0.4,0.1-0.6,0.2
								c-0.1,0-0.3,0-0.3-0.2l-0.3-0.7c-0.1-0.2,0-0.3,0.2-0.3c0.2,0,0.4-0.1,0.6-0.1c0.3-0.1,0.6-0.2,0.9-0.3l-0.7-1.4
								c-0.7,0.2-1.3,0.2-1.7,0c-0.5-0.1-0.8-0.4-1-0.9c-0.2-0.5-0.3-0.9-0.1-1.4c0.2-0.4,0.6-0.8,1.2-1.1l-0.2-0.4
								C166.9,152.6,166.9,152.4,167.1,152.4z M167.7,154.1c-0.2,0.1-0.3,0.2-0.4,0.4c-0.1,0.1,0,0.3,0,0.4c0.1,0.1,0.2,0.2,0.3,0.3
								c0.1,0,0.3,0,0.6,0L167.7,154.1z M169.3,156.4l0.6,1.2c0.2-0.1,0.3-0.2,0.4-0.4c0.1-0.2,0-0.3,0-0.5
								c-0.1-0.2-0.2-0.3-0.4-0.3C169.8,156.3,169.6,156.3,169.3,156.4z"/>
						</g>
						
							<linearGradient id="SVGID_35_" gradientUnits="userSpaceOnUse" x1="560.9318" y1="-273.2836" x2="565.2161" y2="-264.1889" gradientTransform="matrix(0.8894 -0.4572 0.4572 0.8894 -207.637 655.3116)">
							<stop  offset="0" style="stop-color:#FCB148"/>
							<stop  offset="5.207239e-02" style="stop-color:#FDBA46"/>
							<stop  offset="0.1424" style="stop-color:#FFC244"/>
							<stop  offset="0.3183" style="stop-color:#FFC444"/>
							<stop  offset="0.4849" style="stop-color:#FDB946"/>
							<stop  offset="0.7754" style="stop-color:#F99C4D"/>
							<stop  offset="0.8658" style="stop-color:#F8924F"/>
							<stop  offset="1" style="stop-color:#F8924F"/>
						</linearGradient>
						<path class="st41" d="M168.6,157.1c-0.6-1.4,0.4-2.7-0.4-3.8c-0.5-0.7-1.4-1.1-2.3-1.3c-1.9,1.2-2.6,3.7-1.5,5.8
							c1.3,2.5,4.3,3.5,6.8,2.4c0.2-0.1,0.5-0.2,0.7-0.4C170.4,159.4,169.1,158.3,168.6,157.1z"/>
					</g>
					<g>
						
							<linearGradient id="SVGID_36_" gradientUnits="userSpaceOnUse" x1="-8.3432" y1="697.2894" x2="-17.191" y2="700.1288" gradientTransform="matrix(0.9342 0.3567 -0.3567 0.9342 434.9822 -484.2852)">
							<stop  offset="0" style="stop-color:#FCB148"/>
							<stop  offset="5.207239e-02" style="stop-color:#FDBA46"/>
							<stop  offset="0.1424" style="stop-color:#FFC244"/>
							<stop  offset="0.3183" style="stop-color:#FFC444"/>
							<stop  offset="0.4849" style="stop-color:#FDB946"/>
							<stop  offset="0.7754" style="stop-color:#F99C4D"/>
							<stop  offset="0.8658" style="stop-color:#F8924F"/>
							<stop  offset="1" style="stop-color:#F8924F"/>
						</linearGradient>
						<path class="st42" d="M188.1,167.5c-1.5,3.8-5.6,5.7-9.4,4.1c-3.9-1.6-6-6.4-4.4-10.5c1.6-4.1,6.1-5.8,9.9-3.9
							C187.9,159.1,189.6,163.7,188.1,167.5z"/>
						
							<linearGradient id="SVGID_37_" gradientUnits="userSpaceOnUse" x1="-1.1859" y1="688.4823" x2="-9.0847" y2="705.9084" gradientTransform="matrix(0.9342 0.3567 -0.3567 0.9342 434.9822 -484.2852)">
							<stop  offset="0" style="stop-color:#FFDB44"/>
							<stop  offset="1" style="stop-color:#FEEF06"/>
						</linearGradient>
						<path class="st43" d="M189.3,167.6c-1.5,3.8-5.6,5.7-9.4,4.1c-3.9-1.6-6-6.4-4.4-10.5c1.6-4.1,6.1-5.8,9.9-3.9
							C189,159.2,190.7,163.7,189.3,167.6z"/>
						
							<linearGradient id="SVGID_38_" gradientUnits="userSpaceOnUse" x1="-2.6389" y1="706.8823" x2="-4.163" y2="698.5563" gradientTransform="matrix(0.9342 0.3567 -0.3567 0.9342 434.9822 -484.2852)">
							<stop  offset="0" style="stop-color:#FCB148"/>
							<stop  offset="5.207239e-02" style="stop-color:#FDBA46"/>
							<stop  offset="0.1424" style="stop-color:#FFC244"/>
							<stop  offset="0.3183" style="stop-color:#FFC444"/>
							<stop  offset="0.4849" style="stop-color:#FDB946"/>
							<stop  offset="0.7754" style="stop-color:#F99C4D"/>
							<stop  offset="0.8658" style="stop-color:#F8924F"/>
							<stop  offset="1" style="stop-color:#F8924F"/>
						</linearGradient>
						<path class="st44" d="M189,167.4c-1.4,3.7-5.4,5.4-9,3.9c-3.8-1.6-5.7-6.1-4.2-10s5.8-5.6,9.4-3.7
							C188.8,159.4,190.4,163.8,189,167.4z"/>
						
							<linearGradient id="SVGID_39_" gradientUnits="userSpaceOnUse" x1="-5.8702" y1="693.4058" x2="0.4107" y2="706.739" gradientTransform="matrix(0.9342 0.3567 -0.3567 0.9342 434.9822 -484.2852)">
							<stop  offset="0" style="stop-color:#FCB148"/>
							<stop  offset="5.207239e-02" style="stop-color:#FDBA46"/>
							<stop  offset="0.1424" style="stop-color:#FFC244"/>
							<stop  offset="0.3183" style="stop-color:#FFC444"/>
							<stop  offset="0.4849" style="stop-color:#FDB946"/>
							<stop  offset="0.7754" style="stop-color:#F99C4D"/>
							<stop  offset="0.8658" style="stop-color:#F8924F"/>
							<stop  offset="1" style="stop-color:#F8924F"/>
						</linearGradient>
						<path class="st45" d="M188.8,167.3c-1.4,3.5-5.2,5.3-8.7,3.8c-3.6-1.5-5.5-5.9-4-9.7c1.4-3.8,5.6-5.4,9.1-3.6
							C188.6,159.6,190.1,163.8,188.8,167.3z"/>
						<g>
							
								<linearGradient id="SVGID_40_" gradientUnits="userSpaceOnUse" x1="-6.1205" y1="690.5367" x2="-2.9622" y2="702.3733" gradientTransform="matrix(0.9342 0.3567 -0.3567 0.9342 434.9822 -484.2852)">
								<stop  offset="0" style="stop-color:#FFDB44"/>
								<stop  offset="1" style="stop-color:#FEEF06"/>
							</linearGradient>
							<path class="st46" d="M184.7,159.1L184.7,159.1c0.2,0.1,0.3,0.3,0.2,0.5l-0.2,0.7c0.4,0.2,0.7,0.4,1.1,0.6
								c0.3,0.2,0.5,0.4,0.7,0.6c0.1,0.1,0.2,0.3,0.1,0.5l-0.4,0.8c-0.1,0.2-0.4,0.3-0.5,0.1c-0.2-0.1-0.3-0.3-0.5-0.4
								c-0.3-0.2-0.6-0.4-1-0.6l-0.1,0l-0.7,1.9c0.9,0.6,1.5,1.3,1.7,1.9c0.3,0.6,0.3,1.3,0,2c-0.3,0.7-0.8,1.3-1.5,1.5
								c-0.7,0.3-1.5,0.2-2.5-0.1l-0.3,0.7c-0.1,0.2-0.3,0.3-0.5,0.2l0,0c-0.2-0.1-0.3-0.3-0.2-0.5l0.3-0.7l-0.1-0.1
								c-0.4-0.2-0.8-0.4-1.2-0.6c-0.3-0.2-0.5-0.3-0.8-0.5c-0.2-0.1-0.2-0.3-0.1-0.5l0.5-1c0.1-0.2,0.4-0.3,0.6-0.1
								c0.2,0.2,0.4,0.4,0.7,0.5c0.4,0.3,0.7,0.5,1.1,0.7l0.8-2.1c-0.9-0.6-1.4-1.2-1.7-1.8c-0.3-0.6-0.3-1.3,0-2
								c0.3-0.7,0.8-1.2,1.4-1.4c0.7-0.2,1.4-0.1,2.4,0.2l0.3-0.7C184.3,159,184.5,159,184.7,159.1z M183.4,161.4
								c-0.3-0.1-0.6-0.1-0.8,0c-0.2,0.1-0.4,0.2-0.5,0.5c-0.1,0.2-0.1,0.4,0,0.6c0.1,0.2,0.3,0.4,0.6,0.6L183.4,161.4z
								 M182.5,165.4l-0.7,1.9c0.3,0.1,0.6,0.1,0.8,0.1c0.2-0.1,0.4-0.3,0.5-0.5c0.1-0.3,0.1-0.5,0-0.7
								C183,165.9,182.8,165.7,182.5,165.4z"/>
						</g>
						
							<linearGradient id="SVGID_41_" gradientUnits="userSpaceOnUse" x1="-7.7181" y1="694.2687" x2="-1.4498" y2="707.575" gradientTransform="matrix(0.9342 0.3567 -0.3567 0.9342 434.9822 -484.2852)">
							<stop  offset="0" style="stop-color:#FCB148"/>
							<stop  offset="5.207239e-02" style="stop-color:#FDBA46"/>
							<stop  offset="0.1424" style="stop-color:#FFC244"/>
							<stop  offset="0.3183" style="stop-color:#FFC444"/>
							<stop  offset="0.4849" style="stop-color:#FDB946"/>
							<stop  offset="0.7754" style="stop-color:#F99C4D"/>
							<stop  offset="0.8658" style="stop-color:#F8924F"/>
							<stop  offset="1" style="stop-color:#F8924F"/>
						</linearGradient>
						<path class="st47" d="M181,165.4c1-2,3.3-2.2,3.8-4.2c0.3-1.3-0.2-2.6-0.9-3.8c-3.2-0.8-6.5,0.8-7.8,4.1
							c-1.4,3.8,0.4,8.1,4,9.7c0.4,0.1,0.7,0.3,1.1,0.3C180.2,169.5,180.1,167.1,181,165.4z"/>
					</g>
					<rect x="158.4" y="160.1" class="st28" width="34.6" height="18.5"/>
					<g>
						<g>
							<line class="st48" x1="186.9" y1="178.3" x2="186.4" y2="178.3"/>
							<line class="st49" x1="185.5" y1="178.3" x2="182.3" y2="178.3"/>
							<line class="st50" x1="181.8" y1="178.3" x2="160.1" y2="178.3"/>
							<polyline class="st48" points="159.6,178.3 159.1,178.3 159.1,177.8 							"/>
							<line class="st51" x1="159.1" y1="176.8" x2="159.1" y2="173.4"/>
							<line class="st52" x1="159.1" y1="172.9" x2="159.1" y2="161.5"/>
							<polyline class="st48" points="159.1,161 159.1,160.5 159.6,160.5 							"/>
							<line class="st53" x1="160.3" y1="160.5" x2="162.6" y2="160.5"/>
							<line class="st48" x1="162.9" y1="160.5" x2="163.4" y2="160.5"/>
						</g>
					</g>
					<g>
						<g>
							<line class="st48" x1="192.3" y1="178.3" x2="192.3" y2="177.8"/>
							<line class="st51" x1="192.3" y1="176.8" x2="192.3" y2="173.4"/>
							<line class="st52" x1="192.3" y1="172.9" x2="192.3" y2="161.5"/>
							<polyline class="st48" points="192.3,161 192.3,160.5 191.8,160.5 							"/>
							<line class="st54" x1="191.3" y1="160.5" x2="189.4" y2="160.5"/>
							<line class="st48" x1="189.2" y1="160.5" x2="188.7" y2="160.5"/>
						</g>
					</g>
					<g>
						<path class="st28" d="M197.2,171.8h-20c-0.9,0-1.6,0.8-1.6,1.7l0,0c0,0.9,0.7,1.7,1.6,1.7h-2.6c-0.9,0-1.6,0.8-1.6,1.7l0,0
							c0,0.9,0.7,1.7,1.6,1.7h0.4c-0.9,0-1.6,0.8-1.6,1.7c0,0.2,0,0.5,0.1,0.7h23.6V171.8z"/>
						<path class="st28" d="M175.6,173.5L175.6,173.5c0,0.9,0.7,1.7,1.6,1.7h-2.6c-0.9,0-1.6,0.8-1.6,1.7l0,0c0,0.9,0.7,1.7,1.6,1.7
							h0.4c-0.2,0-0.4,0.1-0.6,0.1H193v-6.9h-15.7C176.4,171.8,175.6,172.5,175.6,173.5z"/>
					</g>
					<g>
						<g>
							<path class="st55" d="M113.8,180.3L113.8,180.3c0,0.3,0.2,0.5,0.5,0.5h86.4c0.3,0,0.5-0.2,0.5-0.5l0,0c0-0.3-0.2-0.5-0.5-0.5
								h-86.4C114,179.8,113.8,180,113.8,180.3z"/>
						</g>
						<path class="st29" d="M197.4,181.9h-20.7c-0.8,0-1.5-0.7-1.5-1.5l0,0c0-0.8,0.7-1.5,1.5-1.5h20.7c0.8,0,1.5,0.7,1.5,1.5l0,0
							C198.9,181.2,198.3,181.9,197.4,181.9z"/>
						<path class="st56" d="M197,178.9h-20.7c-0.8,0-1.5-0.7-1.5-1.5l0,0c0-0.8,0.7-1.5,1.5-1.5H197c0.8,0,1.5,0.7,1.5,1.5l0,0
							C198.5,178.2,197.9,178.9,197,178.9z"/>
						<path class="st29" d="M199.5,175.9h-20.7c-0.8,0-1.5-0.7-1.5-1.5l0,0c0-0.8,0.7-1.5,1.5-1.5h20.7c0.8,0,1.5,0.7,1.5,1.5l0,0
							C201,175.2,200.3,175.9,199.5,175.9z"/>
					</g>
				</g>
				<g>
					<g>
						<path class="st57" d="M173.8,184.1l-154.9-1.3v4c0,1.1,0.7,2,1.6,2.2l43.8,7.8c0.5,0.1,1,0.1,1.6,0.1l106.3-8.9
							c0.9-0.1,1.7-1,1.7-2.1V184.1z"/>
						<g>
							<path class="st57" d="M116.7,177.8L18.3,185c-1.8,0.1-3.2-1.2-3.2-3.1v-73.3c0-1.8,1.4-3.3,3.2-3.3h98.5c1.5,0,2.6,1.3,2.6,3
								v66.3C119.4,176.3,118.2,177.7,116.7,177.8z"/>
							<path class="st58" d="M118.3,177.8L19.9,185c-1.8,0.1-3.2-1.2-3.2-3.1v-73.3c0-1.8,1.4-3.3,3.2-3.3h98.5c1.5,0,2.6,1.3,2.6,3
								v66.3C120.9,176.3,119.8,177.7,118.3,177.8z"/>
							<path class="st59" d="M115.2,173.1l-91.7,6.3c-1.4,0.1-2.6-1-2.6-2.5v-64.2c0-1.5,1.2-2.7,2.6-2.7l91.7-0.4
								c1.2,0,2.2,1.1,2.2,2.5v58.5C117.4,171.9,116.4,173,115.2,173.1z"/>
							<path class="st58" d="M72.6,107.3c0,0.7-0.5,1.2-1.1,1.2c-0.6,0-1.1-0.5-1.1-1.2s0.5-1.2,1.1-1.2
								C72.1,106.1,72.6,106.6,72.6,107.3z"/>
							<path class="st60" d="M19.9,185l98-7.2l0.5,0c0.7,0,1.3-0.4,1.7-0.9c-7-0.4-11.4-2.9-14.3-5.5c-5.7-5.2-4.7-10.3-10.8-13.7
								c-7.6-4.3-13.6,1.1-19.4-4.2c-3.5-3.2-1.8-5.6-6.1-10.5c-4.8-5.3-7.9-3.5-12.7-8.4c-6.1-6.1-3-10.8-8.3-15.2
								c-6.4-5.3-13.2-0.4-19.2-5.5c-2.6-2.2-4-5.4-4.8-8.8h-4.6c-1.8,0-3.2,1.5-3.2,3.3V182C16.7,183.8,18.1,185.2,19.9,185z"/>
						</g>
						<linearGradient id="SVGID_42_" gradientUnits="userSpaceOnUse" x1="18.8367" y1="185.283" x2="173.7561" y2="185.283">
							<stop  offset="0.494" style="stop-color:#EBEFF2"/>
							<stop  offset="1" style="stop-color:#FFFFFF"/>
						</linearGradient>
						<path class="st61" d="M123,177.4L18.8,185l45.4,8.1c0.5,0.1,1,0.1,1.6,0.1l108-9l-49.1-6.7C124.1,177.4,123.5,177.3,123,177.4
							z"/>
						<polygon class="st59" points="34,185.1 120.7,178.6 147.5,182.3 61.6,189.2 						"/>
					</g>
				</g>
				<g>
					<path class="st62" d="M87.7,164.8c0,1.2-1,2.2-2.2,2.3l-30.1,1.7c-1.4,0.1-2.6-0.9-2.6-2.3v-5c0-1.3,1.2-2.4,2.6-2.5l30.1-0.9
						c1.2,0,2.2,0.9,2.2,2.1V164.8z"/>
				</g>
				<g>
					<path class="st62" d="M88,151.7c0,1.2-1,2.2-2.2,2.3l-30.1,1.7c-1.4,0.1-2.6-0.9-2.6-2.3v-5c0-1.3,1.2-2.4,2.6-2.5l30.1-0.9
						c1.2,0,2.2,0.9,2.2,2.1V151.7z"/>
				</g>
				<g>
					<linearGradient id="SVGID_43_" gradientUnits="userSpaceOnUse" x1="87.8612" y1="118.4969" x2="59.2624" y2="127.6751">
						<stop  offset="0" style="stop-color:#FCB148"/>
						<stop  offset="5.207239e-02" style="stop-color:#FDBA46"/>
						<stop  offset="0.1424" style="stop-color:#FFC244"/>
						<stop  offset="0.3183" style="stop-color:#FFC444"/>
						<stop  offset="0.4849" style="stop-color:#FDB946"/>
						<stop  offset="0.7754" style="stop-color:#F99C4D"/>
						<stop  offset="0.8658" style="stop-color:#F8924F"/>
						<stop  offset="1" style="stop-color:#F8924F"/>
					</linearGradient>
					<path class="st63" d="M120.8,117.5c0,13.3-10.4,23.7-23.6,23.3c-13.8-0.4-25.4-12.3-25.4-26.6c0-14.3,11.6-24.6,25.4-23.2
						C110.4,92.4,120.8,104.2,120.8,117.5z"/>
					<linearGradient id="SVGID_44_" gradientUnits="userSpaceOnUse" x1="110.9959" y1="90.0298" x2="85.4647" y2="146.3564">
						<stop  offset="0" style="stop-color:#FFDB44"/>
						<stop  offset="1" style="stop-color:#FEEF06"/>
					</linearGradient>
					<path class="st64" d="M124.4,116.3c0,13.3-10.4,23.7-23.6,23.3c-13.8-0.4-25.4-12.3-25.4-26.6c0-14.3,11.6-24.6,25.4-23.2
						C114,91.2,124.4,103,124.4,116.3z"/>
					<linearGradient id="SVGID_45_" gradientUnits="userSpaceOnUse" x1="106.2994" y1="149.5044" x2="101.3731" y2="122.5923">
						<stop  offset="0" style="stop-color:#FCB148"/>
						<stop  offset="5.207239e-02" style="stop-color:#FDBA46"/>
						<stop  offset="0.1424" style="stop-color:#FFC244"/>
						<stop  offset="0.3183" style="stop-color:#FFC444"/>
						<stop  offset="0.4849" style="stop-color:#FDB946"/>
						<stop  offset="0.7754" style="stop-color:#F99C4D"/>
						<stop  offset="0.8658" style="stop-color:#F8924F"/>
						<stop  offset="1" style="stop-color:#F8924F"/>
					</linearGradient>
					<path class="st65" d="M123.3,116.2c0,12.7-9.9,22.6-22.6,22.2c-13.2-0.4-24.2-11.8-24.2-25.4c0-13.6,11-23.5,24.2-22.1
						C113.4,92.3,123.3,103.6,123.3,116.2z"/>
					<linearGradient id="SVGID_46_" gradientUnits="userSpaceOnUse" x1="95.8547" y1="105.9441" x2="116.1566" y2="149.0412">
						<stop  offset="0" style="stop-color:#FCB148"/>
						<stop  offset="5.207239e-02" style="stop-color:#FDBA46"/>
						<stop  offset="0.1424" style="stop-color:#FFC244"/>
						<stop  offset="0.3183" style="stop-color:#FFC444"/>
						<stop  offset="0.4849" style="stop-color:#FDB946"/>
						<stop  offset="0.7754" style="stop-color:#F99C4D"/>
						<stop  offset="0.8658" style="stop-color:#F8924F"/>
						<stop  offset="1" style="stop-color:#F8924F"/>
					</linearGradient>
					<path class="st66" d="M122.6,116.2c0,12.3-9.6,21.9-21.8,21.5c-12.7-0.4-23.4-11.4-23.4-24.5S88,90.5,100.7,91.8
						C113,93,122.6,103.9,122.6,116.2z"/>
					<g>
						<linearGradient id="SVGID_47_" gradientUnits="userSpaceOnUse" x1="95.0459" y1="96.6702" x2="105.2544" y2="134.9299">
							<stop  offset="0" style="stop-color:#FFDB44"/>
							<stop  offset="1" style="stop-color:#FEEF06"/>
						</linearGradient>
						<path class="st67" d="M100.6,95.9L100.6,95.9c0.7,0.1,1.2,0.6,1.2,1.3v2.3c1.3,0.1,2.6,0.4,3.9,0.7c1,0.2,1.9,0.5,2.9,0.8
							c0.6,0.2,1,0.8,0.9,1.4l-0.3,2.8c-0.1,0.8-0.8,1.2-1.5,0.9c-0.6-0.3-1.3-0.5-1.9-0.7c-1.1-0.3-2.4-0.6-3.6-0.7l-0.3,0v6.5
							c3.4,1,5.9,2.2,7.5,3.8c1.6,1.6,2.4,3.6,2.4,6c0,2.6-0.9,4.7-2.7,6.2c-1.8,1.6-4.3,2.5-7.5,2.6v2.5c0,0.7-0.5,1.2-1.2,1.2l0,0
							c-0.7,0-1.2-0.6-1.2-1.2v-2.5l-0.5,0c-1.5-0.1-3-0.2-4.4-0.5c-1-0.2-2-0.4-3-0.7c-0.6-0.2-1-0.7-0.9-1.3l0.3-3.6
							c0.1-0.8,0.9-1.2,1.6-0.9c0.9,0.3,1.8,0.6,2.6,0.9c1.4,0.4,2.8,0.6,4.2,0.7l0-7.2c-3.3-0.8-5.7-2-7.3-3.6
							c-1.6-1.6-2.4-3.6-2.4-6.1c0-2.6,0.9-4.5,2.6-5.9c1.7-1.4,4.2-2.1,7.4-2.1V97C99.4,96.4,100,95.9,100.6,95.9z M99.4,104.6
							c-1,0.1-1.8,0.4-2.4,0.8c-0.6,0.5-0.8,1.1-0.8,1.9c0,0.8,0.3,1.4,0.8,1.9c0.5,0.5,1.3,0.9,2.4,1.2V104.6z M101.5,117.6v6.6
							c1.1,0,1.9-0.3,2.5-0.8c0.6-0.5,0.9-1.3,0.9-2.2c0-0.9-0.3-1.6-0.8-2.2C103.6,118.5,102.7,118,101.5,117.6z"/>
					</g>
					<linearGradient id="SVGID_48_" gradientUnits="userSpaceOnUse" x1="89.882" y1="108.7332" x2="110.1429" y2="151.7433">
						<stop  offset="0" style="stop-color:#FCB148"/>
						<stop  offset="5.207239e-02" style="stop-color:#FDBA46"/>
						<stop  offset="0.1424" style="stop-color:#FFC244"/>
						<stop  offset="0.3183" style="stop-color:#FFC444"/>
						<stop  offset="0.4849" style="stop-color:#FDB946"/>
						<stop  offset="0.7754" style="stop-color:#F99C4D"/>
						<stop  offset="0.8658" style="stop-color:#F8924F"/>
						<stop  offset="1" style="stop-color:#F8924F"/>
					</linearGradient>
					<path class="st68" d="M96.8,119.2c0.7-7.3,7.4-10.4,6.6-17.1c-0.5-4.1-3.7-7.6-7.2-10.3c-10.6,1.1-18.8,9.9-18.8,21.4
						c0,13.1,10.7,24.1,23.4,24.5c1.2,0,2.4,0,3.6-0.2C99.3,132.5,96.1,125.5,96.8,119.2z"/>
				</g>
				<g>
					<linearGradient id="SVGID_49_" gradientUnits="userSpaceOnUse" x1="70.1564" y1="122.6225" x2="103.9481" y2="76.3109">
						<stop  offset="3.597120e-03" style="stop-color:#6165D7"/>
						<stop  offset="1" style="stop-color:#AA80F9"/>
					</linearGradient>
					<path class="st69" d="M119.6,101.1v0.1c-0.9-1.2-2.5-3-3.5-4c0,0,0-0.1-0.1-0.1c-0.5-1.3-1.3-2.7-2.2-4.1
						c-0.9-1.4-2.2-2.8-3.6-4.1c-0.2-0.2-0.4-0.3-0.5-0.5c-0.1-0.1-0.2-0.2-0.3-0.2l-0.1-0.1c0,0-0.1-0.1-0.1-0.1
						c-0.2-0.1-0.4-0.3-0.6-0.4l-0.1-0.1l-0.2-0.1c-0.1-0.1-0.2-0.1-0.3-0.2c-0.4-0.3-0.8-0.5-1.2-0.8c-0.2-0.1-0.4-0.2-0.7-0.4
						c-0.1-0.1-0.2-0.1-0.3-0.2c-0.1-0.1-0.2-0.1-0.3-0.2c-1.8-0.9-3.8-1.6-5.8-1.9c-0.3,0-0.5-0.1-0.8-0.1c-0.3,0-0.5-0.1-0.8-0.1
						l-0.4,0l-0.4,0l-0.4,0c-0.1,0-0.3,0-0.4,0c-0.3,0-0.5,0-0.8,0c-0.1,0-0.1,0-0.2,0l-0.2,0l-0.3,0l-0.3,0c0,0-0.1,0-0.1,0l-0.3,0
						l-0.5,0l-0.3,0l-0.1,0l0,0c0,0-0.1,0,0.1,0l-0.7,0.1c-0.1,0-0.2,0-0.4,0.1l-0.4,0.1l-0.4,0.1l-0.2,0c-0.1,0-0.1,0-0.2,0
						c-0.2,0.1-0.5,0.1-0.7,0.2c-0.1,0-0.2,0.1-0.4,0.1L90,84.3l-0.3,0.1l-0.3,0.1c-0.2,0.1-0.5,0.2-0.7,0.3
						c-0.2,0.1-0.4,0.2-0.7,0.3c-1.7,0.8-3.3,1.8-4.6,2.9L83,88.1l-0.2,0.2c-0.2,0.1-0.3,0.3-0.5,0.4c0,0,0,0,0,0
						c-0.3,0.3-0.6,0.6-0.9,0.9c-0.1,0.1-0.1,0.2-0.2,0.2l-0.1,0.1l-0.1,0.1c-0.1,0.2-0.3,0.3-0.4,0.5c0,0-0.1,0.1-0.1,0.1l-0.1,0.1
						c-0.1,0.1-0.1,0.2-0.2,0.2c-0.1,0.2-0.2,0.3-0.3,0.5c-0.9,1.3-1.5,2.6-2,3.8c-0.5,1.2-0.7,2.4-0.9,3.4c0,0.1,0,0.3-0.1,0.4
						c0,0.1,0,0.2,0,0.4c0,0.2,0,0.5-0.1,0.7c0,0.2,0,0.4,0,0.6c0,0.1,0,0.2,0,0.3c0,0.1,0,0.2,0,0.3c0,0.2,0,0.4,0,0.5
						c0,0,0,0.1,0,0.1c0,0,0,0.1,0,0.1c0,0.1,0,0,0,0.1c0,0,0,0.1,0,0.1h8.5l-5.2,5.7l-12,13.2l-17.2-18.9h9.1c0,0,0-0.2,0-0.3
						c0-0.3,0.1-0.5,0.1-0.8c0-0.2,0-0.3,0.1-0.5c0-0.1,0-0.2,0-0.2c0-0.1,0-0.2,0-0.2c0.1-0.3,0.1-0.6,0.2-1c0-0.2,0.1-0.4,0.1-0.5
						c0-0.2,0.1-0.4,0.1-0.6c0.1-0.4,0.2-0.8,0.3-1.2c0.1-0.4,0.3-0.8,0.4-1.3c0.1-0.2,0.2-0.4,0.2-0.7c0.1-0.2,0.2-0.5,0.3-0.7
						c0.7-1.8,1.7-3.9,2.9-5.9c1.3-2,2.9-4,4.8-5.9c0.2-0.2,0.5-0.5,0.7-0.7c0.1-0.1,0.3-0.2,0.4-0.3l0.2-0.2l0.2-0.2
						c0.3-0.2,0.5-0.4,0.8-0.7l0.2-0.2l0.2-0.2c0.1-0.1,0.3-0.2,0.4-0.3c0.6-0.4,1.1-0.8,1.7-1.2c0.3-0.2,0.6-0.4,0.9-0.6
						c0.2-0.1,0.3-0.2,0.5-0.3c0.2-0.1,0.3-0.2,0.5-0.3c2.5-1.4,5.3-2.4,8.2-3.1c0.4-0.1,0.7-0.1,1.1-0.2c0.4-0.1,0.7-0.1,1.1-0.2
						l0.5-0.1l0.6-0.1l0.6-0.1c0.2,0,0.4,0,0.6,0c0.4,0,0.7-0.1,1.1-0.1c0.1,0,0.2,0,0.3,0h0.3l0.6,0l0.6,0c0.2,0,0.4,0,0.6,0
						l1.1,0.1c0.2,0,0.1,0,0.1,0l0,0l0.1,0l0.1,0l0.2,0l0.5,0.1l0.2,0l0.1,0l0.1,0l0.6,0.1l0.6,0.1l0.3,0c0.1,0,0.2,0,0.3,0.1
						c0.4,0.1,0.7,0.2,1.1,0.2c0.2,0,0.3,0.1,0.5,0.1l0.5,0.1l0.5,0.1l0.5,0.2c0.3,0.1,0.7,0.2,1,0.3c0.3,0.1,0.7,0.2,1,0.4
						c2.6,1,5,2.4,7.1,4c0.1,0.1,0.3,0.2,0.4,0.3c0.1,0.1,0.2,0.2,0.4,0.3c0.2,0.2,0.5,0.4,0.7,0.6c0.5,0.4,0.9,0.9,1.4,1.3
						c0.1,0.1,0.2,0.2,0.3,0.3l0.2,0.2l0.2,0.2c0.2,0.2,0.4,0.5,0.6,0.7l0.1,0.2l0.1,0.2c0.1,0.1,0.2,0.2,0.3,0.4
						c0.2,0.2,0.4,0.5,0.5,0.7c0.9,1.3,1.7,2.6,2.4,3.8c0.3,0.6,0.6,1.2,0.9,1.8c0.8,1.8,1.3,3.6,1.6,5.2c0,0.2,0.1,0.4,0.1,0.6
						c0,0.2,0.1,0.4,0.1,0.6c0,0.4,0.1,0.7,0.1,1.1c0,0.3,0.1,0.7,0.1,1c0,0.2,0,0.3,0,0.5c0,0.1,0,0.3,0,0.4
						C119.6,100.5,119.6,100.8,119.6,101.1z"/>
					<linearGradient id="SVGID_50_" gradientUnits="userSpaceOnUse" x1="97.4324" y1="99.8552" x2="109.652" y2="83.1082">
						<stop  offset="3.597120e-03" style="stop-color:#6165D7"/>
						<stop  offset="1" style="stop-color:#AA80F9"/>
					</linearGradient>
					<path class="st70" d="M119.6,101.1v0.1c-0.9-1.2-2.5-3-3.5-4c0,0,0-0.1-0.1-0.1c-0.5-1.3-1.3-2.7-2.2-4.1
						c-0.9-1.4-2.2-2.8-3.6-4.1c-0.2-0.2-0.4-0.3-0.5-0.5c-0.1-0.1-0.2-0.2-0.3-0.2l-0.1-0.1c0,0-0.1-0.1-0.1-0.1
						c-0.2-0.1-0.4-0.3-0.6-0.4l-0.1-0.1l-0.2-0.1c-0.1-0.1-0.2-0.1-0.3-0.2c-0.4-0.3-0.8-0.5-1.2-0.8c-0.2-0.1-0.4-0.2-0.7-0.4
						c-0.1-0.1-0.2-0.1-0.3-0.2c-0.1-0.1-0.2-0.1-0.3-0.2c-1.8-0.9-3.8-1.6-5.8-1.9c-0.3,0-0.5-0.1-0.8-0.1c-0.3,0-0.5-0.1-0.8-0.1
						l-0.4,0l-0.4,0l-0.4,0c-0.1,0-0.3,0-0.4,0c-0.3,0-0.5,0-0.8,0c-0.1,0-0.1,0-0.2,0l-0.2,0l-0.3,0l-0.3,0c0,0-0.1,0-0.1,0l-0.3,0
						l-0.5,0l-0.3,0l-0.1,0l0,0c0,0-0.1,0,0.1,0l-0.7,0.1c-0.1,0-0.2,0-0.4,0.1l-0.4,0.1l-0.4,0.1l-0.2,0c-0.1,0-0.1,0-0.2,0
						c-0.2,0.1-0.5,0.1-0.7,0.2c-0.1,0-0.2,0.1-0.4,0.1L90,84.3l-0.3,0.1l-0.3,0.1c-0.2,0.1-0.5,0.2-0.7,0.3
						c-0.2,0.1-0.4,0.2-0.7,0.3c-1.7,0.8-3.3,1.8-4.6,2.9L83,88.1l-0.2,0.2c-0.2,0.1-0.3,0.3-0.5,0.4c0,0,0,0,0,0
						c3.8-4.7,10-7.8,17-7.8c7.2,0,13.5,3.2,17.3,8.2c0.3,0.6,0.6,1.2,0.9,1.8c0.8,1.8,1.3,3.6,1.6,5.2c0,0.2,0.1,0.4,0.1,0.6
						c0,0.2,0.1,0.4,0.1,0.6c0,0.4,0.1,0.7,0.1,1.1c0,0.3,0.1,0.7,0.1,1c0,0.2,0,0.3,0,0.5c0,0.1,0,0.3,0,0.4
						C119.6,100.5,119.6,100.8,119.6,101.1z"/>
				</g>
				<g>
					
						<linearGradient id="SVGID_51_" gradientUnits="userSpaceOnUse" x1="-3041.3281" y1="122.1788" x2="-3040.4648" y2="127.2111" gradientTransform="matrix(-1 0 0 1 -2992.2183 0)">
						<stop  offset="0" style="stop-color:#FFC444"/>
						<stop  offset="0.9964" style="stop-color:#F36F56"/>
					</linearGradient>
					<path class="st71" d="M50.6,124.2c-0.3-0.2-0.7-0.6-0.9-1.2c-0.2-0.6-0.1-0.9-0.4-1.2c-0.4-0.5-1.1-0.7-1.7-0.5
						c-0.1,0-0.2,0.1-0.3,0.3c-0.2,0.4,0.3,1.1,0.7,1.4c0.3,0.3,0.4,0.3,0.8,0.5c0.3,0.2,0.7,0.6,1.1,1.3L50.6,124.2z"/>
					
						<linearGradient id="SVGID_52_" gradientUnits="userSpaceOnUse" x1="822.7472" y1="-684.9042" x2="823.6104" y2="-679.8716" gradientTransform="matrix(0.9207 0.3902 -0.3902 0.9207 -989.236 429.1825)">
						<stop  offset="0" style="stop-color:#FFC444"/>
						<stop  offset="0.9964" style="stop-color:#F36F56"/>
					</linearGradient>
					<path class="st72" d="M33.3,120.9c0.4-0.1,0.9-0.3,1.3-0.7c0.5-0.5,0.4-0.8,0.8-1c0.5-0.3,1.3-0.2,1.7,0.2
						c0.1,0.1,0.2,0.2,0.2,0.4c0.1,0.5-0.7,0.9-1.2,1.1c-0.4,0.1-0.5,0.1-0.9,0.1c-0.4,0.1-0.9,0.3-1.5,0.8L33.3,120.9z"/>
					
						<linearGradient id="SVGID_53_" gradientUnits="userSpaceOnUse" x1="552.2828" y1="-391.1038" x2="559.0619" y2="-351.5766" gradientTransform="matrix(0.9612 0.2758 -0.2758 0.9612 -605.6489 350.1443)">
						<stop  offset="0" style="stop-color:#FF9085"/>
						<stop  offset="1" style="stop-color:#FB6FBB"/>
					</linearGradient>
					<path class="st73" d="M35,121.4c0.2,1.1-1,2.1-1.8,3c-1.7,1.9-3.5,5.3-2.8,8.3c0.4,1.6,1.5,3.3,3.1,4.2
						c1.7,0.9,2.8,0.1,4.6,1.1c0.1,0.1,2.4,1.4,2.5,3.3c0.1,2.3-3.3,4.7-6.1,4.9c-5.2,0.3-11.5-6.6-11.2-13.5
						c0.3-7.5,8.4-13.5,10.7-12.5C34.3,120.4,34.9,120.8,35,121.4z"/>
					
						<linearGradient id="SVGID_54_" gradientUnits="userSpaceOnUse" x1="-661.0997" y1="176.6323" x2="-661.0997" y2="158.0474" gradientTransform="matrix(0.9994 3.520000e-02 -3.520000e-02 0.9994 703.5682 50.1706)">
						<stop  offset="0" style="stop-color:#FFC444"/>
						<stop  offset="0.9964" style="stop-color:#F36F56"/>
					</linearGradient>
					<polygon class="st74" points="37.3,199.2 37.5,201.1 36.6,200.9 36,199.1 					"/>
					
						<linearGradient id="SVGID_55_" gradientUnits="userSpaceOnUse" x1="-662.8345" y1="140.9253" x2="-664.3471" y2="174.9586" gradientTransform="matrix(0.9994 3.520000e-02 -3.520000e-02 0.9994 703.5682 50.1706)">
						<stop  offset="0" style="stop-color:#311944"/>
						<stop  offset="1" style="stop-color:#893976"/>
					</linearGradient>
					<path class="st75" d="M31.9,164c0.1,3.4,0.5,6.3,1,8.6c0.5,2.5,0.8,3,1,4.7c0.4,3.8-0.9,4.4-1.1,8.7c-0.2,4.8,1,8.6,1.5,10
						c0.4,1.3,0.9,2.3,1.2,3c0.4,0.4,1.1,0.2,1.8,0.1c0.3-4.3,0.6-8.4,0.8-12.7c0.8-6.5,1.7-13,2.5-19.5C37.8,166,34.9,165,31.9,164
						z"/>
					
						<linearGradient id="SVGID_56_" gradientUnits="userSpaceOnUse" x1="-662.8345" y1="140.9253" x2="-664.3471" y2="174.9586" gradientTransform="matrix(0.9994 3.520000e-02 -3.520000e-02 0.9994 703.5682 50.1706)">
						<stop  offset="0" style="stop-color:#311944"/>
						<stop  offset="1" style="stop-color:#893976"/>
					</linearGradient>
					<path class="st76" d="M37.4,199.2c0.3-4.3,0.6-8.4,0.8-12.7c0.8-6.5,1.7-13,2.5-19.5c-3-1-5.9-1.9-8.9-2.9c0,0.2,0,0.4,0,0.7
						c4.1,3.6,5,6.4,4.9,8.4c0,2.4-1.3,3.5-1.1,6.9c0.2,2.4,0.9,2.9,0.9,5.1c0,2.8-1.2,4.4-1.8,6.1c-0.6,1.6-0.8,3.8,0.3,7
						c0.1,0.3,0.3,0.6,0.4,0.9C36,199.5,36.7,199.3,37.4,199.2z"/>
					
						<linearGradient id="SVGID_57_" gradientUnits="userSpaceOnUse" x1="-659.5633" y1="176.7282" x2="-662.6726" y2="166.476" gradientTransform="matrix(0.9994 3.520000e-02 -3.520000e-02 0.9994 703.5682 50.1706)">
						<stop  offset="0" style="stop-color:#FF9085"/>
						<stop  offset="1" style="stop-color:#FB6FBB"/>
					</linearGradient>
					<path class="st77" d="M37,201.7c-0.4-0.5-0.8-0.5-0.9-0.8c-0.1-0.3,0.1-0.6,0.4-0.7c0.4-0.2,0.8,0.1,0.9,0.2
						c0.7,0.4,0.5,1.1,1.1,1.4c0.1,0.1,0.3,0.1,0.5,0.3c0.1,0.1,0.3,0.3,0.3,0.4c-0.1,0.2-0.5,0.2-0.8,0.1c-0.5,0-0.7,0-0.9-0.2
						C37.2,202.3,37.3,202.1,37,201.7z"/>
					
						<linearGradient id="SVGID_58_" gradientUnits="userSpaceOnUse" x1="730.5757" y1="-1829.5455" x2="730.5757" y2="-1846.017" gradientTransform="matrix(0.6521 0.7581 -0.7581 0.6521 -1828.8586 826.5609)">
						<stop  offset="0" style="stop-color:#FFC444"/>
						<stop  offset="0.9964" style="stop-color:#F36F56"/>
					</linearGradient>
					<polygon class="st78" points="37.9,185.5 36.2,186.1 35.7,185.3 37,184.5 					"/>
					
						<linearGradient id="SVGID_59_" gradientUnits="userSpaceOnUse" x1="731.7209" y1="-1828.9227" x2="728.6115" y2="-1839.1755" gradientTransform="matrix(0.6521 0.7581 -0.7581 0.6521 -1828.8586 826.5609)">
						<stop  offset="0" style="stop-color:#FF9085"/>
						<stop  offset="1" style="stop-color:#FB6FBB"/>
					</linearGradient>
					<path class="st79" d="M35.3,186.5c0.1-0.7-0.2-0.9,0-1.2c0.2-0.2,0.5-0.3,0.8-0.2c0.4,0.1,0.4,0.7,0.5,0.8
						c0.1,0.8-0.5,1.1-0.3,1.8c0,0.1,0.1,0.3,0.1,0.6c0,0.1,0,0.4-0.2,0.5c-0.2,0.1-0.4-0.2-0.7-0.5c-0.3-0.3-0.4-0.5-0.5-0.8
						C35.1,187.1,35.3,187,35.3,186.5z"/>
					
						<linearGradient id="SVGID_60_" gradientUnits="userSpaceOnUse" x1="-3015.7324" y1="174.4274" x2="-3047.4546" y2="172.9855" gradientTransform="matrix(-1 0 0 1 -2992.2183 0)">
						<stop  offset="0" style="stop-color:#311944"/>
						<stop  offset="1" style="stop-color:#893976"/>
					</linearGradient>
					<path class="st80" d="M45,161c3.1,6.3,4.1,11.5,4.5,15c0.3,2.2,0.2,3.6-0.4,4.9c-2.3,4.9-10.2,5.2-11.4,5.3
						c-0.4-0.8-0.8-1.6-1.2-2.4c0.7-1.4,2-3.2,4.2-4.6c1.7-1.1,2.3-0.8,2.8-1.5c1.7-2.8-7.4-9-6-13.1C37.9,163.1,39.7,161.7,45,161z
						"/>
					
						<linearGradient id="SVGID_61_" gradientUnits="userSpaceOnUse" x1="-3028.3367" y1="124.5706" x2="-3020.4482" y2="170.5665" gradientTransform="matrix(-1 0 0 1 -2992.2183 0)">
						<stop  offset="0" style="stop-color:#FF9085"/>
						<stop  offset="1" style="stop-color:#FB6FBB"/>
					</linearGradient>
					<path class="st81" d="M38.4,138.4c3.3,0.6,5.9,1.2,7,2.9c1.2,1.8-0.7,3.2-1.2,7.3c-0.8,6.2,2.8,8.5,1.7,14.8
						c-0.2,1-0.4,1.9-0.7,2.7c-0.5,1.4-1.4,2.5-2.6,3.3c-0.9,0.6-2,1.2-3.3,1.6c-3.4,1.2-5.1,0.5-9.6,0.8c-7.4,0.4-8.6,2.6-11.9,1.3
						c-3.4-1.3-5.9-5-5.1-6.5c0.4-0.9,1.8-0.3,3.7-1.5c2.5-1.5,2.1-3.5,4.1-5.2c2.9-2.5,5.8,0,8.3-2.1c2.5-2.2,2.8-7.5,1.8-10.6
						c-0.7-2.1-0.7-4.3-1.2-6.4c0-0.2-0.1-0.5,0-0.8c0.4-1.2,2.6-1.4,4.3-1.6C36.1,138,38.1,138.4,38.4,138.4z"/>
					
						<linearGradient id="SVGID_62_" gradientUnits="userSpaceOnUse" x1="-98.2813" y1="162.2445" x2="-82.922" y2="193.8284" gradientTransform="matrix(-0.9781 -0.2085 -0.2085 0.9781 -13.7438 -36.4474)">
						<stop  offset="0" style="stop-color:#FF9085"/>
						<stop  offset="1" style="stop-color:#FB6FBB"/>
					</linearGradient>
					<path class="st82" d="M18.1,170.6c1-0.7,0.5-2.6,2-3.7c1.4-1,2.5,0.3,4.6-0.3c2.7-0.8,2.5-3.4,5.1-4.2c1.8-0.6,2.4,0.6,5.1,0.6
						c2.7,0.1,6.1-1,8.3-3.9c0.9-1.2,1.5-2.5,1.7-3.7c0.7,2.3,1.5,4.5,0.9,7.9c-0.2,1.4-0.6,2.5-1,3.4c-0.3,0.8-0.9,1.6-1.7,2.1
						c-1,0.7-2.4,1.5-4,2.1c-3.4,1.2-5.1,0.5-9.6,0.8c-7.4,0.4-8.6,2.6-11.9,1.3c-2.2-0.9-4-2.6-4.8-4.2
						C15.9,170.9,17.3,171.1,18.1,170.6z"/>
					
						<linearGradient id="SVGID_63_" gradientUnits="userSpaceOnUse" x1="-659.1482" y1="108.162" x2="-662.6954" y2="113.9001" gradientTransform="matrix(0.9994 3.520000e-02 -3.520000e-02 0.9994 703.5682 50.1706)">
						<stop  offset="0" style="stop-color:#FFC444"/>
						<stop  offset="0.9964" style="stop-color:#F36F56"/>
					</linearGradient>
					<path class="st83" d="M40.3,132.6c0,0,0.9,1.7,1,2.9c0.1,1.2-1.3,1.1-1.3,1.1l0.1,0.8c0,0.7,0.5,1.2,1.1,1.4l0.5,0.2
						c0,0-3.5,0.8-5.4-0.6l0.6-0.1c0.8-0.1,1.4-0.7,1.5-1.5l0-0.3C38.3,136.6,37.6,132.9,40.3,132.6z"/>
					
						<linearGradient id="SVGID_64_" gradientUnits="userSpaceOnUse" x1="-3041.6062" y1="129.9521" x2="-3034.8271" y2="169.4788" gradientTransform="matrix(-1 0 0 1 -2992.2183 0)">
						<stop  offset="0" style="stop-color:#FF9085"/>
						<stop  offset="1" style="stop-color:#FB6FBB"/>
					</linearGradient>
					<path class="st84" d="M48.9,124.5c-0.5,1,0.3,2.2,0.9,3.4c1.1,2.3,1.9,6.1,0.5,8.7c-0.8,1.4-2.4,2.8-4.2,3.1
						c-1.9,0.4-2.7-0.7-4.7-0.2c-0.2,0-2.7,0.7-3.3,2.5c-0.7,2.2,1.8,5.4,4.5,6.4c4.9,1.8,12.9-3.2,14.5-9.9
						c1.8-7.3-4.3-15.3-6.9-14.9C49.9,123.7,49.2,124,48.9,124.5z"/>
					
						<linearGradient id="SVGID_65_" gradientUnits="userSpaceOnUse" x1="-678.8491" y1="132.1961" x2="-664.5087" y2="101.554" gradientTransform="matrix(0.9994 3.520000e-02 -3.520000e-02 0.9994 703.5682 50.1706)">
						<stop  offset="0" style="stop-color:#444B8C"/>
						<stop  offset="0.9964" style="stop-color:#26264F"/>
					</linearGradient>
					<path class="st85" d="M39.7,134.4c-0.2,0-0.3-0.2-0.5-0.2c-0.1,0.1-0.1,0.4,0,0.6c0.1,0.2,0.2,0.3,0.3,0.4
						c-0.1,0.2-0.3,0.5-0.4,0.9c-0.2,0.9,0.3,1.6,0.5,2c0.9,1.9-0.5,4.8-2,6.3c-1.2,1.2-1.8,0.7-2.5,1.7c-1.4,1.9,0.5,4-0.2,6.6
						c-1.1,3.9-7.3,5.1-7.5,5.1c-0.1,0-0.2,0-0.3,0c-2.8,0.4-7,1.1-9.9-1.2c-2.2-1.7-3.2-4.7-3.1-7.3c0-0.7,0.3-3.3,2.4-5.4
						c0.3-0.3,2.3-2.3,5-2.4c1.4,0,1.7,0.5,2.8,0.2c1.5-0.4,2.4-1.8,3-2.6c1.1-1.6,0.6-1.9,1.4-2.6c1.5-1.5,3.2-0.3,4.8-1.6
						c1.6-1.3,0.6-3.1,2.1-4.2c1.6-1.2,4.5-0.8,5.2,0.6C41.5,132.4,40.3,134.4,39.7,134.4z"/>
				</g>
				<text transform="matrix(0.9995 -3.289995e-02 3.289995e-02 0.9995 67.2609 151.9291)" class="st86 st87 st88">Option 1</text>
				<text transform="matrix(0.9995 -3.289995e-02 3.289995e-02 0.9995 67.2597 165.2176)" class="st86 st87 st88">Option 2</text>
				<g>
					<g>
						<g>
							<path class="st86" d="M60.6,149.8l-0.7,0.6l0,0l-0.6,0.6v0l-0.2,0.2l0,0l0,0l-0.2,0.2c0,0-0.1,0.1-0.1,0.1c0,0-0.1,0-0.1,0
								c-0.1,0-0.2,0-0.2-0.1l-0.6-0.5c-0.1-0.1-0.1-0.3,0-0.5c0.1-0.1,0.2-0.1,0.2-0.1c0.1,0,0.2,0,0.2,0.1l0.3,0.3l0.1-0.1
								l0.4-0.4l0.2-0.2l0,0l0.6-0.6c0,0,0,0,0,0l0.1-0.1l0.2-0.2c0.1-0.1,0.2-0.1,0.2-0.1c0.1,0,0.2,0,0.2,0.1
								C60.7,149.4,60.7,149.6,60.6,149.8z"/>
						</g>
						<path class="st86" d="M61.6,148.4h-2.4c-0.3,0-0.6,0.3-0.6,0.6v1.6l0.4-0.4V149c0-0.1,0.1-0.1,0.1-0.1h2.4
							c0.1,0,0.1,0.1,0.1,0.1v2.4c0,0.1-0.1,0.1-0.1,0.1h-2.4c0,0-0.1,0-0.1,0l-0.2,0.2c0,0-0.1,0.1-0.1,0.1
							c0.1,0.1,0.3,0.2,0.4,0.2h2.4c0.3,0,0.6-0.3,0.6-0.6V149C62.1,148.7,61.9,148.4,61.6,148.4z"/>
					</g>
				</g>
				<g>
					<g>
						<path class="st86" d="M60.3,162.2c0.1,0,0.1,0.1,0.1,0.1v2.3c0,0.1-0.1,0.1-0.1,0.1h-2.3c-0.1,0-0.1-0.1-0.1-0.1v-2.3
							c0-0.1,0.1-0.1,0.1-0.1H60.3 M60.3,161.7h-2.3c-0.3,0-0.5,0.2-0.5,0.5v2.3c0,0.3,0.2,0.5,0.5,0.5h2.3c0.3,0,0.5-0.2,0.5-0.5
							v-2.3C60.8,162,60.6,161.7,60.3,161.7L60.3,161.7z"/>
					</g>
				</g>
			</g>
		</g>
	</g>
	<g>
		<path class="st58" d="M26.8,30c0,1-0.2,1.9-0.5,2.7c-0.3,0.8-0.8,1.4-1.4,1.9c-0.6,0.5-1.3,0.9-2.1,1.1c-0.8,0.2-1.7,0.4-2.7,0.4
			c-0.5,0-1,0-1.6-0.1c-0.6,0-1.2-0.1-1.7-0.2V24.3c0.5-0.1,1.1-0.2,1.7-0.2c0.6,0,1.2-0.1,1.6-0.1c1,0,1.9,0.1,2.7,0.3
			c0.8,0.2,1.5,0.6,2.1,1.1c0.6,0.5,1,1.1,1.4,1.9C26.7,28.1,26.8,29,26.8,30z M19,34.2c0.1,0,0.3,0,0.5,0s0.5,0,0.8,0
			c1.4,0,2.5-0.4,3.2-1.1c0.7-0.7,1.1-1.8,1.1-3.1c0-1.3-0.3-2.4-1-3.1c-0.7-0.7-1.8-1.1-3.2-1.1c-0.6,0-1.1,0-1.4,0.1V34.2z"/>
		<path class="st58" d="M31.8,26.8c0.7,0,1.3,0.1,1.7,0.3c0.5,0.2,0.8,0.4,1.1,0.7c0.3,0.3,0.5,0.7,0.6,1.1s0.2,0.9,0.2,1.4v5.4
			c-0.3,0.1-0.8,0.2-1.4,0.2s-1.4,0.1-2.2,0.1c-0.5,0-1-0.1-1.5-0.2c-0.4-0.1-0.8-0.3-1.1-0.5c-0.3-0.2-0.6-0.5-0.7-0.9
			c-0.2-0.4-0.3-0.8-0.3-1.3c0-0.5,0.1-0.9,0.3-1.3c0.2-0.4,0.5-0.6,0.8-0.9s0.7-0.4,1.2-0.5c0.4-0.1,0.9-0.1,1.4-0.1
			c0.2,0,0.5,0,0.7,0c0.2,0,0.5,0.1,0.8,0.1v-0.3c0-0.2,0-0.5-0.1-0.7c-0.1-0.2-0.2-0.4-0.3-0.6c-0.1-0.2-0.3-0.3-0.6-0.4
			s-0.5-0.1-0.9-0.1c-0.5,0-0.9,0-1.3,0.1c-0.4,0.1-0.7,0.1-1,0.2l-0.3-1.7c0.3-0.1,0.6-0.2,1.1-0.3C30.7,26.9,31.2,26.8,31.8,26.8z
			 M32,34.5c0.6,0,1.1,0,1.4-0.1v-2.3c-0.1,0-0.3-0.1-0.5-0.1S32.5,32,32.2,32c-0.2,0-0.5,0-0.7,0.1s-0.4,0.1-0.6,0.2
			c-0.2,0.1-0.3,0.2-0.5,0.4c-0.1,0.2-0.2,0.4-0.2,0.6c0,0.5,0.2,0.8,0.5,1C31,34.4,31.5,34.5,32,34.5z"/>
		<path class="st58" d="M40.2,24.4c0,0.4-0.1,0.7-0.4,0.9c-0.3,0.2-0.5,0.3-0.9,0.3c-0.4,0-0.7-0.1-0.9-0.3
			c-0.2-0.2-0.4-0.5-0.4-0.9c0-0.4,0.1-0.7,0.4-0.9s0.6-0.3,0.9-0.3c0.3,0,0.6,0.1,0.9,0.3C40.1,23.7,40.2,24,40.2,24.4z M40,35.9
			H38V27H40V35.9z"/>
		<path class="st58" d="M45.7,36.1c-0.6,0-1.1-0.1-1.5-0.2c-0.4-0.1-0.7-0.3-1-0.5s-0.4-0.5-0.5-0.9c-0.1-0.3-0.1-0.7-0.1-1.2V23.1
			l2.1-0.3v10.2c0,0.2,0,0.5,0.1,0.6c0,0.2,0.1,0.3,0.2,0.4s0.2,0.2,0.4,0.3c0.2,0.1,0.4,0.1,0.7,0.1L45.7,36.1z"/>
		<path class="st58" d="M55,27c-0.9,3.4-2,6.4-3.2,9.2c-0.2,0.5-0.5,0.9-0.7,1.3c-0.2,0.4-0.5,0.7-0.8,0.9c-0.3,0.2-0.6,0.4-1,0.5
			s-0.8,0.2-1.3,0.2c-0.3,0-0.6,0-0.9-0.1c-0.3-0.1-0.5-0.1-0.7-0.2l0.4-1.6c0.4,0.2,0.8,0.2,1.2,0.2c0.5,0,1-0.1,1.3-0.4
			c0.3-0.3,0.6-0.6,0.8-1.2c-0.6-1.2-1.3-2.6-1.9-4.1c-0.6-1.5-1.1-3-1.6-4.7h2.2c0.1,0.5,0.3,1,0.4,1.5c0.2,0.6,0.3,1.1,0.5,1.7
			c0.2,0.6,0.4,1.1,0.6,1.7c0.2,0.6,0.4,1.1,0.6,1.6c0.4-1,0.7-2.1,1-3.2c0.3-1.1,0.6-2.2,0.9-3.3H55z"/>
		<path class="st58" d="M63.9,24c1.7,0,3,0.3,3.9,0.9c0.9,0.6,1.4,1.6,1.4,2.9c0,0.7-0.1,1.3-0.4,1.8c-0.2,0.5-0.6,0.9-1.1,1.2
			c-0.5,0.3-1,0.5-1.7,0.7c-0.7,0.1-1.4,0.2-2.3,0.2h-1.1v4.2h-2.1V24.3c0.5-0.1,1.1-0.2,1.7-0.2C62.8,24,63.4,24,63.9,24z
			 M64.1,25.9c-0.5,0-1,0-1.3,0.1v4h1c1,0,1.8-0.1,2.4-0.4s0.8-0.8,0.8-1.6c0-0.4-0.1-0.7-0.2-1c-0.1-0.3-0.4-0.5-0.6-0.6
			c-0.3-0.1-0.6-0.3-0.9-0.3C64.9,25.9,64.5,25.9,64.1,25.9z"/>
		<path class="st58" d="M78.8,31.5c0,0.7-0.1,1.3-0.3,1.9c-0.2,0.6-0.5,1.1-0.9,1.5c-0.4,0.4-0.8,0.7-1.4,1s-1.1,0.3-1.7,0.3
			s-1.2-0.1-1.7-0.3c-0.5-0.2-1-0.5-1.3-1c-0.4-0.4-0.7-0.9-0.9-1.5c-0.2-0.6-0.3-1.2-0.3-1.9s0.1-1.3,0.3-1.9
			c0.2-0.6,0.5-1.1,0.9-1.5c0.4-0.4,0.8-0.7,1.4-0.9s1.1-0.3,1.7-0.3s1.2,0.1,1.7,0.3c0.5,0.2,1,0.5,1.4,0.9
			c0.4,0.4,0.7,0.9,0.9,1.5C78.7,30.1,78.8,30.8,78.8,31.5z M76.7,31.5c0-0.9-0.2-1.6-0.6-2.1c-0.4-0.5-0.9-0.8-1.6-0.8
			c-0.7,0-1.2,0.3-1.6,0.8c-0.4,0.5-0.6,1.2-0.6,2.1c0,0.9,0.2,1.6,0.6,2.1c0.4,0.5,0.9,0.8,1.6,0.8c0.7,0,1.2-0.3,1.6-0.8
			C76.5,33.1,76.7,32.4,76.7,31.5z"/>
		<path class="st58" d="M84,36.1c-0.6,0-1.1-0.1-1.5-0.2c-0.4-0.1-0.7-0.3-1-0.5s-0.4-0.5-0.5-0.9c-0.1-0.3-0.1-0.7-0.1-1.2V23.1
			l2.1-0.3v10.2c0,0.2,0,0.5,0.1,0.6c0,0.2,0.1,0.3,0.2,0.4s0.2,0.2,0.4,0.3c0.2,0.1,0.4,0.1,0.7,0.1L84,36.1z"/>
		<path class="st58" d="M89.1,36.1c-0.6,0-1.1-0.1-1.5-0.2c-0.4-0.1-0.7-0.3-1-0.5s-0.4-0.5-0.5-0.9C86,34.1,86,33.8,86,33.3V23.1
			l2.1-0.3v10.2c0,0.2,0,0.5,0.1,0.6c0,0.2,0.1,0.3,0.2,0.4s0.2,0.2,0.4,0.3c0.2,0.1,0.4,0.1,0.7,0.1L89.1,36.1z"/>
	</g>
	<g>
		
			<image style="overflow:visible;opacity:0.15;" width="169" height="41" xlink:href="E2D0B755.png"  transform="matrix(1 0 0 1 13.3486 39.0361)">
		</image>
		<g>
			<g>
				<path class="st58" d="M21.4,43.4v0.9H19v6.6h-1.1v-6.6h-2.4v-0.9H21.4z"/>
				<path class="st58" d="M27,48.1c0,0.4-0.1,0.9-0.2,1.2s-0.3,0.7-0.5,0.9s-0.5,0.5-0.8,0.6C25.1,51,24.7,51,24.3,51
					c-0.4,0-0.7-0.1-1.1-0.2c-0.3-0.1-0.6-0.3-0.8-0.6c-0.2-0.3-0.4-0.6-0.5-0.9s-0.2-0.8-0.2-1.2c0-0.4,0.1-0.8,0.2-1.2
					c0.1-0.4,0.3-0.7,0.5-0.9c0.2-0.3,0.5-0.5,0.8-0.6c0.3-0.1,0.7-0.2,1.1-0.2c0.4,0,0.7,0.1,1.1,0.2s0.6,0.3,0.8,0.6
					s0.4,0.6,0.5,0.9C26.9,47.2,27,47.6,27,48.1z M25.9,48.1c0-0.6-0.1-1.1-0.4-1.5c-0.3-0.4-0.7-0.6-1.2-0.6s-0.9,0.2-1.2,0.6
					c-0.3,0.4-0.4,0.9-0.4,1.5c0,0.6,0.1,1.1,0.4,1.5s0.7,0.6,1.2,0.6s0.9-0.2,1.2-0.6S25.9,48.7,25.9,48.1z"/>
				<path class="st58" d="M34.9,50.3c-0.1,0.1-0.3,0.1-0.5,0.2c-0.3,0.1-0.5,0.1-0.9,0.1c-0.3,0-0.7-0.1-1-0.2
					c-0.3-0.1-0.6-0.3-0.8-0.5c-0.2-0.2-0.4-0.5-0.5-0.9C31.1,48.8,31,48.4,31,48c0-0.4,0.1-0.8,0.2-1.1c0.1-0.3,0.3-0.6,0.5-0.9
					s0.5-0.4,0.9-0.6c0.3-0.1,0.7-0.2,1.2-0.2c0.5,0,0.9,0,1.2,0.1s0.6,0.1,0.9,0.2v5c0,0.9-0.2,1.5-0.7,1.9c-0.4,0.4-1.1,0.6-2,0.6
					c-0.4,0-0.7,0-1-0.1s-0.6-0.1-0.8-0.2l0.2-0.9c0.2,0.1,0.5,0.1,0.7,0.2c0.3,0.1,0.6,0.1,0.9,0.1c0.6,0,1-0.1,1.3-0.4
					c0.3-0.2,0.4-0.6,0.4-1.1V50.3z M34.9,46.1c-0.1,0-0.2-0.1-0.4-0.1c-0.2,0-0.4,0-0.7,0c-0.5,0-1,0.2-1.3,0.5
					c-0.3,0.4-0.4,0.8-0.4,1.4c0,0.3,0,0.6,0.1,0.8c0.1,0.2,0.2,0.4,0.3,0.6s0.3,0.3,0.5,0.3c0.2,0.1,0.4,0.1,0.6,0.1
					c0.3,0,0.5,0,0.7-0.1c0.2-0.1,0.4-0.2,0.5-0.3V46.1z"/>
				<path class="st58" d="M37.5,48.1c0-0.5,0.1-0.9,0.2-1.3c0.1-0.4,0.3-0.7,0.6-0.9c0.2-0.2,0.5-0.4,0.8-0.6c0.3-0.1,0.6-0.2,1-0.2
					c0.8,0,1.3,0.2,1.7,0.7s0.6,1.2,0.6,2.2c0,0,0,0.1,0,0.2s0,0.1,0,0.2h-3.9c0,0.6,0.2,1,0.5,1.3s0.8,0.5,1.4,0.5
					c0.4,0,0.7,0,0.9-0.1s0.4-0.1,0.5-0.2l0.1,0.8c-0.1,0.1-0.3,0.1-0.6,0.2c-0.3,0.1-0.7,0.1-1,0.1c-0.5,0-0.9-0.1-1.3-0.2
					c-0.4-0.1-0.7-0.4-0.9-0.6s-0.4-0.6-0.5-0.9C37.5,48.9,37.5,48.5,37.5,48.1z M41.4,47.5c0-0.5-0.1-0.8-0.3-1.1
					c-0.2-0.3-0.6-0.4-1-0.4c-0.2,0-0.4,0-0.6,0.1c-0.2,0.1-0.3,0.2-0.5,0.4c-0.1,0.1-0.2,0.3-0.3,0.5s-0.1,0.4-0.1,0.6H41.4z"/>
				<path class="st58" d="M45,45.3h2.1v0.8H45v2.6c0,0.3,0,0.5,0.1,0.7c0,0.2,0.1,0.3,0.2,0.4s0.2,0.2,0.3,0.2s0.3,0.1,0.5,0.1
					c0.3,0,0.5,0,0.7-0.1c0.2-0.1,0.3-0.1,0.4-0.1l0.2,0.8c-0.1,0.1-0.3,0.1-0.5,0.2S46.3,51,46,51c-0.4,0-0.7,0-1-0.1
					c-0.3-0.1-0.5-0.2-0.6-0.4c-0.2-0.2-0.3-0.4-0.3-0.7s-0.1-0.6-0.1-1v-5l1-0.2V45.3z"/>
				<path class="st58" d="M55,42.6l1-0.2v8.3c-0.2,0.1-0.5,0.1-0.9,0.2C54.7,51,54.3,51,53.9,51c-0.4,0-0.8-0.1-1.2-0.2
					c-0.3-0.1-0.6-0.3-0.9-0.6c-0.2-0.3-0.4-0.6-0.6-0.9c-0.1-0.4-0.2-0.8-0.2-1.2c0-0.4,0.1-0.8,0.2-1.2s0.3-0.7,0.5-0.9
					s0.5-0.5,0.8-0.6c0.3-0.1,0.7-0.2,1.1-0.2c0.3,0,0.6,0,0.9,0.1s0.4,0.2,0.6,0.3V42.6z M55,46.4c-0.1-0.1-0.3-0.2-0.5-0.3
					S54,46,53.7,46c-0.3,0-0.5,0.1-0.7,0.2s-0.4,0.3-0.5,0.4c-0.1,0.2-0.2,0.4-0.3,0.7s-0.1,0.5-0.1,0.8c0,0.7,0.2,1.2,0.5,1.5
					c0.3,0.4,0.8,0.5,1.3,0.5c0.3,0,0.5,0,0.7,0c0.2,0,0.3-0.1,0.4-0.1V46.4z"/>
				<path class="st58" d="M59.8,45.1c0.4,0,0.7,0.1,1,0.2s0.5,0.3,0.7,0.4c0.2,0.2,0.3,0.4,0.4,0.7c0.1,0.3,0.1,0.6,0.1,0.9v3.5
					c-0.1,0-0.2,0-0.4,0.1c-0.2,0-0.3,0-0.5,0.1c-0.2,0-0.4,0-0.6,0.1s-0.5,0-0.7,0c-0.3,0-0.6,0-0.9-0.1c-0.3-0.1-0.5-0.2-0.7-0.3
					c-0.2-0.1-0.3-0.3-0.5-0.6c-0.1-0.2-0.2-0.5-0.2-0.8c0-0.3,0.1-0.6,0.2-0.8c0.1-0.2,0.3-0.4,0.5-0.5c0.2-0.1,0.5-0.2,0.8-0.3
					c0.3-0.1,0.6-0.1,0.9-0.1c0.1,0,0.2,0,0.3,0c0.1,0,0.2,0,0.3,0s0.2,0,0.3,0c0.1,0,0.1,0,0.2,0v-0.3c0-0.2,0-0.3-0.1-0.5
					c0-0.2-0.1-0.3-0.2-0.4c-0.1-0.1-0.2-0.2-0.4-0.3S59.9,46,59.7,46c-0.3,0-0.6,0-0.9,0.1c-0.3,0-0.4,0.1-0.6,0.1l-0.1-0.8
					c0.1-0.1,0.3-0.1,0.7-0.2C59.1,45.1,59.4,45.1,59.8,45.1z M59.8,50.2c0.2,0,0.5,0,0.6,0c0.2,0,0.3,0,0.5-0.1v-1.7
					c-0.1,0-0.2-0.1-0.4-0.1c-0.2,0-0.4,0-0.6,0c-0.2,0-0.3,0-0.5,0c-0.2,0-0.3,0.1-0.5,0.1s-0.3,0.2-0.4,0.3
					c-0.1,0.1-0.1,0.3-0.1,0.5c0,0.4,0.1,0.6,0.3,0.8C59.1,50.1,59.4,50.2,59.8,50.2z"/>
				<path class="st58" d="M64.3,44.2c-0.2,0-0.3-0.1-0.5-0.2c-0.1-0.1-0.2-0.3-0.2-0.5c0-0.2,0.1-0.4,0.2-0.5
					c0.1-0.1,0.3-0.2,0.5-0.2s0.3,0.1,0.5,0.2c0.1,0.1,0.2,0.3,0.2,0.5c0,0.2-0.1,0.4-0.2,0.5C64.6,44.2,64.5,44.2,64.3,44.2z
					 M64.8,50.9h-1v-5.7h1V50.9z"/>
				<path class="st58" d="M68.4,51c-0.6,0-1.1-0.1-1.3-0.4c-0.3-0.3-0.4-0.6-0.4-1.2v-6.8l1-0.2v6.8c0,0.2,0,0.3,0,0.4
					s0.1,0.2,0.1,0.3c0.1,0.1,0.2,0.1,0.3,0.1c0.1,0,0.2,0.1,0.4,0.1L68.4,51z"/>
				<path class="st58" d="M69.2,52c0.1,0,0.2,0.1,0.3,0.1c0.1,0,0.3,0,0.4,0c0.4,0,0.7-0.1,0.9-0.3s0.4-0.5,0.6-0.9
					c-0.5-0.9-0.9-1.8-1.3-2.8c-0.4-1-0.7-2-1-3h1.1c0.1,0.3,0.2,0.7,0.3,1.1c0.1,0.4,0.2,0.8,0.4,1.2s0.3,0.8,0.4,1.2
					c0.2,0.4,0.3,0.8,0.5,1.2c0.3-0.8,0.5-1.5,0.7-2.3c0.2-0.7,0.4-1.5,0.6-2.3h1c-0.3,1.1-0.6,2.1-0.9,3.1c-0.3,1-0.7,1.9-1,2.8
					c-0.1,0.3-0.3,0.6-0.5,0.8s-0.3,0.4-0.5,0.6c-0.2,0.2-0.4,0.3-0.6,0.3c-0.2,0.1-0.5,0.1-0.8,0.1c-0.1,0-0.2,0-0.3,0
					s-0.2,0-0.3,0c-0.1,0-0.2,0-0.2-0.1c-0.1,0-0.1,0-0.1-0.1L69.2,52z"/>
				<path class="st58" d="M80.3,45.1c0.1,0,0.2,0,0.3,0s0.2,0,0.3,0c0.1,0,0.2,0,0.3,0.1c0.1,0,0.2,0,0.2,0l-0.2,0.9
					c-0.1,0-0.2-0.1-0.4-0.1c-0.2,0-0.4-0.1-0.7-0.1c-0.2,0-0.4,0-0.6,0.1c-0.2,0-0.3,0.1-0.4,0.1v4.7h-1v-5.4
					c0.2-0.1,0.5-0.2,0.9-0.2C79.5,45.2,79.9,45.1,80.3,45.1z"/>
				<path class="st58" d="M82.3,48.1c0-0.5,0.1-0.9,0.2-1.3c0.1-0.4,0.3-0.7,0.6-0.9c0.2-0.2,0.5-0.4,0.8-0.6c0.3-0.1,0.6-0.2,1-0.2
					c0.8,0,1.3,0.2,1.7,0.7s0.6,1.2,0.6,2.2c0,0,0,0.1,0,0.2s0,0.1,0,0.2h-3.9c0,0.6,0.2,1,0.5,1.3s0.8,0.5,1.4,0.5
					c0.4,0,0.7,0,0.9-0.1s0.4-0.1,0.5-0.2l0.1,0.8c-0.1,0.1-0.3,0.1-0.6,0.2c-0.3,0.1-0.7,0.1-1,0.1c-0.5,0-0.9-0.1-1.3-0.2
					c-0.4-0.1-0.7-0.4-0.9-0.6s-0.4-0.6-0.5-0.9C82.3,48.9,82.3,48.5,82.3,48.1z M86.2,47.5c0-0.5-0.1-0.8-0.3-1.1
					c-0.2-0.3-0.6-0.4-1-0.4c-0.2,0-0.4,0-0.6,0.1c-0.2,0.1-0.3,0.2-0.5,0.4c-0.1,0.1-0.2,0.3-0.3,0.5s-0.1,0.4-0.1,0.6H86.2z"/>
				<path class="st58" d="M93.5,50.9c-0.2-0.5-0.4-1.1-0.6-1.8c-0.2-0.7-0.4-1.4-0.6-2.1c-0.2,0.7-0.4,1.4-0.6,2.1
					c-0.2,0.7-0.4,1.3-0.6,1.8h-0.9c-0.3-0.7-0.7-1.6-1-2.6c-0.3-1-0.6-2-0.9-3.1h1.1c0.1,0.3,0.2,0.7,0.3,1.1
					c0.1,0.4,0.2,0.8,0.3,1.2s0.2,0.8,0.4,1.2c0.1,0.4,0.2,0.7,0.3,1c0.1-0.3,0.2-0.7,0.4-1.1s0.2-0.8,0.3-1.2
					c0.1-0.4,0.2-0.8,0.3-1.1c0.1-0.4,0.2-0.7,0.3-1h0.8c0.1,0.3,0.1,0.7,0.2,1c0.1,0.4,0.2,0.8,0.3,1.1c0.1,0.4,0.2,0.8,0.3,1.2
					c0.1,0.4,0.2,0.7,0.4,1.1c0.1-0.3,0.2-0.6,0.3-1s0.2-0.8,0.4-1.2c0.1-0.4,0.2-0.8,0.3-1.2s0.2-0.8,0.3-1.1h1
					c-0.3,1.1-0.6,2.1-0.9,3.1c-0.3,1-0.6,1.8-1,2.6H93.5z"/>
				<path class="st58" d="M99.3,45.1c0.4,0,0.7,0.1,1,0.2s0.5,0.3,0.7,0.4c0.2,0.2,0.3,0.4,0.4,0.7c0.1,0.3,0.1,0.6,0.1,0.9v3.5
					c-0.1,0-0.2,0-0.4,0.1c-0.2,0-0.3,0-0.5,0.1c-0.2,0-0.4,0-0.6,0.1s-0.5,0-0.7,0c-0.3,0-0.6,0-0.9-0.1c-0.3-0.1-0.5-0.2-0.7-0.3
					c-0.2-0.1-0.3-0.3-0.5-0.6c-0.1-0.2-0.2-0.5-0.2-0.8c0-0.3,0.1-0.6,0.2-0.8c0.1-0.2,0.3-0.4,0.5-0.5c0.2-0.1,0.5-0.2,0.8-0.3
					c0.3-0.1,0.6-0.1,0.9-0.1c0.1,0,0.2,0,0.3,0c0.1,0,0.2,0,0.3,0s0.2,0,0.3,0c0.1,0,0.1,0,0.2,0v-0.3c0-0.2,0-0.3-0.1-0.5
					c0-0.2-0.1-0.3-0.2-0.4c-0.1-0.1-0.2-0.2-0.4-0.3S99.5,46,99.3,46c-0.3,0-0.6,0-0.9,0.1c-0.3,0-0.4,0.1-0.6,0.1l-0.1-0.8
					c0.1-0.1,0.3-0.1,0.7-0.2C98.7,45.1,99,45.1,99.3,45.1z M99.4,50.2c0.2,0,0.5,0,0.6,0c0.2,0,0.3,0,0.5-0.1v-1.7
					c-0.1,0-0.2-0.1-0.4-0.1c-0.2,0-0.4,0-0.6,0c-0.2,0-0.3,0-0.5,0c-0.2,0-0.3,0.1-0.5,0.1s-0.3,0.2-0.4,0.3
					c-0.1,0.1-0.1,0.3-0.1,0.5c0,0.4,0.1,0.6,0.3,0.8C98.7,50.1,99,50.2,99.4,50.2z"/>
				<path class="st58" d="M105.5,45.1c0.1,0,0.2,0,0.3,0s0.2,0,0.3,0c0.1,0,0.2,0,0.3,0.1c0.1,0,0.2,0,0.2,0l-0.2,0.9
					c-0.1,0-0.2-0.1-0.4-0.1c-0.2,0-0.4-0.1-0.7-0.1c-0.2,0-0.4,0-0.6,0.1c-0.2,0-0.3,0.1-0.4,0.1v4.7h-1v-5.4
					c0.2-0.1,0.5-0.2,0.9-0.2C104.6,45.2,105,45.1,105.5,45.1z"/>
				<path class="st58" d="M111.4,42.6l1-0.2v8.3c-0.2,0.1-0.5,0.1-0.9,0.2c-0.4,0.1-0.8,0.1-1.3,0.1c-0.4,0-0.8-0.1-1.2-0.2
					c-0.3-0.1-0.6-0.3-0.9-0.6c-0.2-0.3-0.4-0.6-0.6-0.9c-0.1-0.4-0.2-0.8-0.2-1.2c0-0.4,0.1-0.8,0.2-1.2s0.3-0.7,0.5-0.9
					s0.5-0.5,0.8-0.6c0.3-0.1,0.7-0.2,1.1-0.2c0.3,0,0.6,0,0.9,0.1s0.4,0.2,0.6,0.3V42.6z M111.4,46.4c-0.1-0.1-0.3-0.2-0.5-0.3
					c-0.2-0.1-0.5-0.1-0.8-0.1c-0.3,0-0.5,0.1-0.7,0.2c-0.2,0.1-0.4,0.3-0.5,0.4c-0.1,0.2-0.2,0.4-0.3,0.7s-0.1,0.5-0.1,0.8
					c0,0.7,0.2,1.2,0.5,1.5c0.3,0.4,0.8,0.5,1.3,0.5c0.3,0,0.5,0,0.7,0s0.3-0.1,0.4-0.1V46.4z"/>
				<path class="st58" d="M115.7,50.2c0.4,0,0.7-0.1,0.9-0.2c0.2-0.1,0.3-0.3,0.3-0.5c0-0.2-0.1-0.4-0.3-0.6c-0.2-0.1-0.5-0.3-1-0.5
					c-0.2-0.1-0.4-0.2-0.6-0.3s-0.4-0.2-0.5-0.3c-0.1-0.1-0.3-0.3-0.3-0.4S114,47,114,46.7c0-0.5,0.2-0.9,0.6-1.2
					c0.4-0.3,0.9-0.4,1.5-0.4c0.2,0,0.3,0,0.5,0s0.3,0,0.4,0.1c0.1,0,0.3,0.1,0.4,0.1c0.1,0,0.2,0.1,0.2,0.1l-0.2,0.9
					c-0.1-0.1-0.3-0.1-0.5-0.2c-0.2-0.1-0.5-0.1-0.8-0.1c-0.3,0-0.5,0.1-0.7,0.2s-0.3,0.3-0.3,0.5c0,0.1,0,0.2,0.1,0.3
					c0,0.1,0.1,0.2,0.2,0.3s0.2,0.1,0.4,0.2c0.1,0.1,0.3,0.1,0.5,0.2c0.3,0.1,0.5,0.2,0.7,0.3c0.2,0.1,0.4,0.2,0.5,0.3
					s0.3,0.3,0.3,0.5c0.1,0.2,0.1,0.4,0.1,0.7c0,0.5-0.2,0.9-0.6,1.2s-0.9,0.4-1.7,0.4c-0.5,0-0.9,0-1.2-0.1
					c-0.3-0.1-0.5-0.1-0.6-0.2l0.2-0.9c0.1,0,0.3,0.1,0.6,0.2C114.9,50.1,115.3,50.2,115.7,50.2z"/>
				<path class="st58" d="M127.1,48.1c0,0.4-0.1,0.8-0.2,1.2c-0.1,0.4-0.3,0.7-0.5,0.9c-0.2,0.3-0.5,0.5-0.8,0.6
					c-0.3,0.1-0.7,0.2-1.1,0.2c-0.3,0-0.6,0-0.9-0.1s-0.4-0.2-0.6-0.3v2.3h-1v-7.5c0.2-0.1,0.5-0.1,0.9-0.2c0.4-0.1,0.8-0.1,1.2-0.1
					c0.4,0,0.8,0.1,1.2,0.2c0.3,0.1,0.6,0.3,0.9,0.6c0.2,0.3,0.4,0.6,0.6,0.9C127,47.2,127.1,47.6,127.1,48.1z M126,48.1
					c0-0.7-0.2-1.2-0.5-1.5c-0.3-0.4-0.8-0.5-1.3-0.5c-0.3,0-0.5,0-0.7,0c-0.2,0-0.3,0-0.4,0.1v3.6c0.1,0.1,0.3,0.2,0.5,0.3
					c0.2,0.1,0.5,0.1,0.8,0.1c0.3,0,0.5-0.1,0.7-0.2c0.2-0.1,0.4-0.3,0.5-0.4c0.1-0.2,0.2-0.4,0.3-0.7C126,48.6,126,48.4,126,48.1z"
					/>
				<path class="st58" d="M130.5,45.1c0.4,0,0.7,0.1,1,0.2c0.3,0.1,0.5,0.3,0.7,0.4c0.2,0.2,0.3,0.4,0.4,0.7
					c0.1,0.3,0.1,0.6,0.1,0.9v3.5c-0.1,0-0.2,0-0.4,0.1c-0.2,0-0.3,0-0.5,0.1c-0.2,0-0.4,0-0.6,0.1s-0.5,0-0.7,0
					c-0.3,0-0.6,0-0.9-0.1c-0.3-0.1-0.5-0.2-0.7-0.3c-0.2-0.1-0.3-0.3-0.5-0.6c-0.1-0.2-0.2-0.5-0.2-0.8c0-0.3,0.1-0.6,0.2-0.8
					s0.3-0.4,0.5-0.5c0.2-0.1,0.5-0.2,0.8-0.3c0.3-0.1,0.6-0.1,0.9-0.1c0.1,0,0.2,0,0.3,0c0.1,0,0.2,0,0.3,0c0.1,0,0.2,0,0.3,0
					c0.1,0,0.1,0,0.2,0v-0.3c0-0.2,0-0.3-0.1-0.5s-0.1-0.3-0.2-0.4c-0.1-0.1-0.2-0.2-0.4-0.3s-0.4-0.1-0.6-0.1c-0.3,0-0.6,0-0.9,0.1
					c-0.3,0-0.4,0.1-0.6,0.1l-0.1-0.8c0.1-0.1,0.3-0.1,0.7-0.2C129.9,45.1,130.2,45.1,130.5,45.1z M130.6,50.2c0.2,0,0.5,0,0.6,0
					c0.2,0,0.3,0,0.5-0.1v-1.7c-0.1,0-0.2-0.1-0.4-0.1s-0.4,0-0.6,0c-0.2,0-0.3,0-0.5,0c-0.2,0-0.3,0.1-0.5,0.1s-0.3,0.2-0.4,0.3
					c-0.1,0.1-0.1,0.3-0.1,0.5c0,0.4,0.1,0.6,0.3,0.8C129.9,50.1,130.2,50.2,130.6,50.2z"/>
				<path class="st58" d="M136.7,45.1c0.1,0,0.2,0,0.3,0s0.2,0,0.3,0c0.1,0,0.2,0,0.3,0.1c0.1,0,0.2,0,0.2,0l-0.2,0.9
					c-0.1,0-0.2-0.1-0.4-0.1c-0.2,0-0.4-0.1-0.7-0.1c-0.2,0-0.4,0-0.6,0.1c-0.2,0-0.3,0.1-0.4,0.1v4.7h-1v-5.4
					c0.2-0.1,0.5-0.2,0.9-0.2C135.8,45.2,136.2,45.1,136.7,45.1z"/>
				<path class="st58" d="M139.9,45.3h2.1v0.8h-2.1v2.6c0,0.3,0,0.5,0.1,0.7c0,0.2,0.1,0.3,0.2,0.4s0.2,0.2,0.3,0.2
					c0.1,0,0.3,0.1,0.5,0.1c0.3,0,0.5,0,0.7-0.1c0.2-0.1,0.3-0.1,0.4-0.1l0.2,0.8c-0.1,0.1-0.3,0.1-0.5,0.2s-0.5,0.1-0.9,0.1
					c-0.4,0-0.7,0-1-0.1c-0.3-0.1-0.5-0.2-0.6-0.4c-0.2-0.2-0.3-0.4-0.3-0.7s-0.1-0.6-0.1-1v-5l1-0.2V45.3z"/>
				<path class="st58" d="M144,44.2c-0.2,0-0.3-0.1-0.5-0.2s-0.2-0.3-0.2-0.5c0-0.2,0.1-0.4,0.2-0.5s0.3-0.2,0.5-0.2
					c0.2,0,0.3,0.1,0.5,0.2s0.2,0.3,0.2,0.5c0,0.2-0.1,0.4-0.2,0.5S144.2,44.2,144,44.2z M144.5,50.9h-1v-5.7h1V50.9z"/>
				<path class="st58" d="M148.9,51c-0.5,0-0.9-0.1-1.2-0.2c-0.3-0.1-0.6-0.3-0.9-0.6c-0.2-0.3-0.4-0.6-0.5-0.9
					c-0.1-0.4-0.2-0.8-0.2-1.2c0-0.4,0.1-0.8,0.2-1.2s0.3-0.7,0.5-0.9c0.2-0.3,0.5-0.5,0.9-0.6c0.3-0.1,0.7-0.2,1.1-0.2
					c0.3,0,0.5,0,0.8,0.1c0.3,0,0.5,0.1,0.7,0.2l-0.2,0.9c-0.2-0.1-0.3-0.1-0.5-0.2S149.2,46,149,46c-0.6,0-1,0.2-1.3,0.5
					s-0.5,0.9-0.5,1.6c0,0.3,0,0.6,0.1,0.8c0.1,0.3,0.2,0.5,0.3,0.7c0.1,0.2,0.3,0.3,0.6,0.4c0.2,0.1,0.5,0.1,0.8,0.1
					c0.3,0,0.5,0,0.7-0.1c0.2-0.1,0.4-0.1,0.5-0.2l0.1,0.8c-0.1,0-0.1,0.1-0.3,0.1c-0.1,0-0.2,0.1-0.4,0.1s-0.3,0-0.4,0.1
					C149.2,51,149.1,51,148.9,51z"/>
				<path class="st58" d="M152.2,44.2c-0.2,0-0.3-0.1-0.5-0.2s-0.2-0.3-0.2-0.5c0-0.2,0.1-0.4,0.2-0.5s0.3-0.2,0.5-0.2
					c0.2,0,0.3,0.1,0.5,0.2s0.2,0.3,0.2,0.5c0,0.2-0.1,0.4-0.2,0.5S152.4,44.2,152.2,44.2z M152.7,50.9h-1v-5.7h1V50.9z"/>
				<path class="st58" d="M159.7,48.1c0,0.4-0.1,0.8-0.2,1.2c-0.1,0.4-0.3,0.7-0.5,0.9c-0.2,0.3-0.5,0.5-0.8,0.6
					c-0.3,0.1-0.7,0.2-1.1,0.2c-0.3,0-0.6,0-0.9-0.1s-0.4-0.2-0.6-0.3v2.3h-1v-7.5c0.2-0.1,0.5-0.1,0.9-0.2c0.4-0.1,0.8-0.1,1.2-0.1
					c0.4,0,0.8,0.1,1.2,0.2c0.3,0.1,0.6,0.3,0.9,0.6c0.2,0.3,0.4,0.6,0.6,0.9C159.6,47.2,159.7,47.6,159.7,48.1z M158.6,48.1
					c0-0.7-0.2-1.2-0.5-1.5c-0.3-0.4-0.8-0.5-1.3-0.5c-0.3,0-0.5,0-0.7,0c-0.2,0-0.3,0-0.4,0.1v3.6c0.1,0.1,0.3,0.2,0.5,0.3
					c0.2,0.1,0.5,0.1,0.8,0.1c0.3,0,0.5-0.1,0.7-0.2c0.2-0.1,0.4-0.3,0.5-0.4c0.1-0.2,0.2-0.4,0.3-0.7
					C158.6,48.6,158.6,48.4,158.6,48.1z"/>
				<path class="st58" d="M163.1,45.1c0.4,0,0.7,0.1,1,0.2c0.3,0.1,0.5,0.3,0.7,0.4c0.2,0.2,0.3,0.4,0.4,0.7
					c0.1,0.3,0.1,0.6,0.1,0.9v3.5c-0.1,0-0.2,0-0.4,0.1c-0.2,0-0.3,0-0.5,0.1c-0.2,0-0.4,0-0.6,0.1s-0.5,0-0.7,0
					c-0.3,0-0.6,0-0.9-0.1c-0.3-0.1-0.5-0.2-0.7-0.3c-0.2-0.1-0.3-0.3-0.5-0.6c-0.1-0.2-0.2-0.5-0.2-0.8c0-0.3,0.1-0.6,0.2-0.8
					s0.3-0.4,0.5-0.5c0.2-0.1,0.5-0.2,0.8-0.3c0.3-0.1,0.6-0.1,0.9-0.1c0.1,0,0.2,0,0.3,0c0.1,0,0.2,0,0.3,0c0.1,0,0.2,0,0.3,0
					c0.1,0,0.1,0,0.2,0v-0.3c0-0.2,0-0.3-0.1-0.5s-0.1-0.3-0.2-0.4c-0.1-0.1-0.2-0.2-0.4-0.3S163.3,46,163,46c-0.3,0-0.6,0-0.9,0.1
					c-0.3,0-0.4,0.1-0.6,0.1l-0.1-0.8c0.1-0.1,0.3-0.1,0.7-0.2C162.4,45.1,162.7,45.1,163.1,45.1z M163.2,50.2c0.2,0,0.5,0,0.6,0
					c0.2,0,0.3,0,0.5-0.1v-1.7c-0.1,0-0.2-0.1-0.4-0.1s-0.4,0-0.6,0c-0.2,0-0.3,0-0.5,0c-0.2,0-0.3,0.1-0.5,0.1s-0.3,0.2-0.4,0.3
					c-0.1,0.1-0.1,0.3-0.1,0.5c0,0.4,0.1,0.6,0.3,0.8C162.5,50.1,162.8,50.2,163.2,50.2z"/>
				<path class="st58" d="M168.1,45.3h2.1v0.8h-2.1v2.6c0,0.3,0,0.5,0.1,0.7c0,0.2,0.1,0.3,0.2,0.4s0.2,0.2,0.3,0.2
					c0.1,0,0.3,0.1,0.5,0.1c0.3,0,0.5,0,0.7-0.1c0.2-0.1,0.3-0.1,0.4-0.1l0.2,0.8c-0.1,0.1-0.3,0.1-0.5,0.2S169.4,51,169,51
					c-0.4,0-0.7,0-1-0.1c-0.3-0.1-0.5-0.2-0.6-0.4c-0.2-0.2-0.3-0.4-0.3-0.7s-0.1-0.6-0.1-1v-5l1-0.2V45.3z"/>
				<path class="st58" d="M171.3,48.1c0-0.5,0.1-0.9,0.2-1.3c0.1-0.4,0.3-0.7,0.6-0.9c0.2-0.2,0.5-0.4,0.8-0.6
					c0.3-0.1,0.6-0.2,1-0.2c0.8,0,1.3,0.2,1.8,0.7c0.4,0.5,0.6,1.2,0.6,2.2c0,0,0,0.1,0,0.2s0,0.1,0,0.2h-3.9c0,0.6,0.2,1,0.5,1.3
					s0.8,0.5,1.4,0.5c0.4,0,0.7,0,0.9-0.1c0.2-0.1,0.4-0.1,0.5-0.2l0.1,0.8c-0.1,0.1-0.3,0.1-0.6,0.2c-0.3,0.1-0.7,0.1-1,0.1
					c-0.5,0-0.9-0.1-1.3-0.2c-0.4-0.1-0.7-0.4-0.9-0.6c-0.2-0.3-0.4-0.6-0.5-0.9C171.3,48.9,171.3,48.5,171.3,48.1z M175.2,47.5
					c0-0.5-0.1-0.8-0.3-1.1s-0.6-0.4-1-0.4c-0.2,0-0.4,0-0.6,0.1c-0.2,0.1-0.3,0.2-0.5,0.4s-0.2,0.3-0.3,0.5
					c-0.1,0.2-0.1,0.4-0.1,0.6H175.2z"/>
				<path class="st58" d="M16.8,59c-0.2,0-0.3-0.1-0.5-0.2c-0.1-0.1-0.2-0.3-0.2-0.5c0-0.2,0.1-0.4,0.2-0.5c0.1-0.1,0.3-0.2,0.5-0.2
					s0.3,0.1,0.5,0.2c0.1,0.1,0.2,0.3,0.2,0.5c0,0.2-0.1,0.4-0.2,0.5C17.1,59,16.9,59,16.8,59z M17.3,65.7h-1v-5.7h1V65.7z"/>
				<path class="st58" d="M19.2,60.2c0.2-0.1,0.5-0.1,0.9-0.2C20.5,60,21,60,21.5,60c0.4,0,0.8,0.1,1.1,0.2c0.3,0.1,0.5,0.3,0.7,0.5
					c0.2,0.2,0.3,0.5,0.4,0.8c0.1,0.3,0.1,0.7,0.1,1.1v3.2h-1v-3c0-0.3,0-0.6-0.1-0.9c0-0.2-0.1-0.4-0.2-0.6
					c-0.1-0.2-0.3-0.3-0.4-0.3s-0.4-0.1-0.7-0.1c-0.1,0-0.2,0-0.3,0s-0.2,0-0.3,0c-0.1,0-0.2,0-0.3,0c-0.1,0-0.1,0-0.2,0v4.8h-1
					V60.2z"/>
				<path class="st58" d="M32,57.5l1-0.2v8.3c-0.2,0.1-0.5,0.1-0.9,0.2c-0.4,0.1-0.8,0.1-1.3,0.1c-0.4,0-0.8-0.1-1.2-0.2
					c-0.3-0.1-0.6-0.3-0.9-0.6c-0.2-0.3-0.4-0.6-0.6-0.9c-0.1-0.4-0.2-0.8-0.2-1.2c0-0.4,0.1-0.8,0.2-1.2s0.3-0.7,0.5-0.9
					s0.5-0.5,0.8-0.6c0.3-0.1,0.7-0.2,1.1-0.2c0.3,0,0.6,0,0.9,0.1s0.4,0.2,0.6,0.3V57.5z M32,61.3c-0.1-0.1-0.3-0.2-0.5-0.3
					s-0.5-0.1-0.8-0.1c-0.3,0-0.5,0.1-0.7,0.2s-0.4,0.3-0.5,0.4c-0.1,0.2-0.2,0.4-0.3,0.7s-0.1,0.5-0.1,0.8c0,0.7,0.2,1.2,0.5,1.5
					c0.3,0.4,0.8,0.5,1.3,0.5c0.3,0,0.5,0,0.7,0c0.2,0,0.3-0.1,0.4-0.1V61.3z"/>
				<path class="st58" d="M36.8,59.9c0.4,0,0.7,0.1,1,0.2s0.5,0.3,0.7,0.4c0.2,0.2,0.3,0.4,0.4,0.7c0.1,0.3,0.1,0.6,0.1,0.9v3.5
					c-0.1,0-0.2,0-0.4,0.1c-0.2,0-0.3,0-0.5,0.1c-0.2,0-0.4,0-0.6,0.1s-0.5,0-0.7,0c-0.3,0-0.6,0-0.9-0.1c-0.3-0.1-0.5-0.2-0.7-0.3
					c-0.2-0.1-0.3-0.3-0.5-0.6c-0.1-0.2-0.2-0.5-0.2-0.8c0-0.3,0.1-0.6,0.2-0.8c0.1-0.2,0.3-0.4,0.5-0.5c0.2-0.1,0.5-0.2,0.8-0.3
					c0.3-0.1,0.6-0.1,0.9-0.1c0.1,0,0.2,0,0.3,0c0.1,0,0.2,0,0.3,0s0.2,0,0.3,0c0.1,0,0.1,0,0.2,0v-0.3c0-0.2,0-0.3-0.1-0.5
					c0-0.2-0.1-0.3-0.2-0.4c-0.1-0.1-0.2-0.2-0.4-0.3s-0.4-0.1-0.6-0.1c-0.3,0-0.6,0-0.9,0.1c-0.3,0-0.4,0.1-0.6,0.1l-0.1-0.8
					c0.1-0.1,0.3-0.1,0.7-0.2C36.1,60,36.4,59.9,36.8,59.9z M36.9,65c0.2,0,0.5,0,0.6,0c0.2,0,0.3,0,0.5-0.1v-1.7
					c-0.1,0-0.2-0.1-0.4-0.1c-0.2,0-0.4,0-0.6,0c-0.2,0-0.3,0-0.5,0c-0.2,0-0.3,0.1-0.5,0.1s-0.3,0.2-0.4,0.3
					c-0.1,0.1-0.1,0.3-0.1,0.5c0,0.4,0.1,0.6,0.3,0.8C36.1,64.9,36.5,65,36.9,65z"/>
				<path class="st58" d="M41.3,59c-0.2,0-0.3-0.1-0.5-0.2c-0.1-0.1-0.2-0.3-0.2-0.5c0-0.2,0.1-0.4,0.2-0.5c0.1-0.1,0.3-0.2,0.5-0.2
					s0.3,0.1,0.5,0.2c0.1,0.1,0.2,0.3,0.2,0.5c0,0.2-0.1,0.4-0.2,0.5C41.7,59,41.5,59,41.3,59z M41.8,65.7h-1v-5.7h1V65.7z"/>
				<path class="st58" d="M45.5,65.8c-0.6,0-1.1-0.1-1.3-0.4c-0.3-0.3-0.4-0.6-0.4-1.2v-6.8l1-0.2v6.8c0,0.2,0,0.3,0,0.4
					s0.1,0.2,0.1,0.3c0.1,0.1,0.2,0.1,0.3,0.1c0.1,0,0.2,0.1,0.4,0.1L45.5,65.8z"/>
				<path class="st58" d="M46.3,66.8c0.1,0,0.2,0.1,0.3,0.1c0.1,0,0.3,0,0.4,0c0.4,0,0.7-0.1,0.9-0.3s0.4-0.5,0.6-0.9
					C48,64.9,47.6,64,47.2,63c-0.4-1-0.7-2-1-3h1.1c0.1,0.3,0.2,0.7,0.3,1.1c0.1,0.4,0.2,0.8,0.4,1.2s0.3,0.8,0.4,1.2
					c0.2,0.4,0.3,0.8,0.5,1.2c0.3-0.8,0.5-1.5,0.7-2.3c0.2-0.7,0.4-1.5,0.6-2.3h1c-0.3,1.1-0.6,2.1-0.9,3.1c-0.3,1-0.7,1.9-1,2.8
					c-0.1,0.3-0.3,0.6-0.5,0.8s-0.3,0.4-0.5,0.6c-0.2,0.2-0.4,0.3-0.6,0.3c-0.2,0.1-0.5,0.1-0.8,0.1c-0.1,0-0.2,0-0.3,0
					s-0.2,0-0.3,0c-0.1,0-0.2,0-0.2-0.1c-0.1,0-0.1,0-0.1-0.1L46.3,66.8z"/>
				<path class="st58" d="M60.2,62.9c0,0.4-0.1,0.8-0.2,1.2c-0.1,0.4-0.3,0.7-0.5,0.9c-0.2,0.3-0.5,0.5-0.8,0.6
					c-0.3,0.1-0.7,0.2-1.1,0.2c-0.3,0-0.6,0-0.9-0.1s-0.4-0.2-0.6-0.3v2.3h-1v-7.5c0.2-0.1,0.5-0.1,0.9-0.2c0.4-0.1,0.8-0.1,1.2-0.1
					c0.4,0,0.8,0.1,1.2,0.2c0.3,0.1,0.6,0.3,0.9,0.6c0.2,0.3,0.4,0.6,0.6,0.9C60.1,62,60.2,62.5,60.2,62.9z M59.2,62.9
					c0-0.7-0.2-1.2-0.5-1.5c-0.3-0.4-0.8-0.5-1.3-0.5c-0.3,0-0.5,0-0.7,0c-0.2,0-0.3,0-0.4,0.1v3.6c0.1,0.1,0.3,0.2,0.5,0.3
					s0.5,0.1,0.8,0.1c0.3,0,0.5-0.1,0.7-0.2c0.2-0.1,0.4-0.3,0.5-0.4s0.2-0.4,0.3-0.7C59.1,63.5,59.2,63.2,59.2,62.9z"/>
				<path class="st58" d="M66.8,62.9c0,0.4-0.1,0.9-0.2,1.2s-0.3,0.7-0.5,0.9s-0.5,0.5-0.8,0.6c-0.3,0.1-0.7,0.2-1.1,0.2
					c-0.4,0-0.7-0.1-1.1-0.2c-0.3-0.1-0.6-0.3-0.8-0.6c-0.2-0.3-0.4-0.6-0.5-0.9s-0.2-0.8-0.2-1.2c0-0.4,0.1-0.8,0.2-1.2
					c0.1-0.4,0.3-0.7,0.5-0.9c0.2-0.3,0.5-0.5,0.8-0.6c0.3-0.1,0.7-0.2,1.1-0.2c0.4,0,0.7,0.1,1.1,0.2s0.6,0.3,0.8,0.6
					s0.4,0.6,0.5,0.9C66.7,62.1,66.8,62.5,66.8,62.9z M65.8,62.9c0-0.6-0.1-1.1-0.4-1.5c-0.3-0.4-0.7-0.6-1.2-0.6S63.3,61,63,61.4
					c-0.3,0.4-0.4,0.9-0.4,1.5c0,0.6,0.1,1.1,0.4,1.5s0.7,0.6,1.2,0.6s0.9-0.2,1.2-0.6S65.8,63.5,65.8,62.9z"/>
				<path class="st58" d="M70.1,65.8c-0.6,0-1.1-0.1-1.3-0.4c-0.3-0.3-0.4-0.6-0.4-1.2v-6.8l1-0.2v6.8c0,0.2,0,0.3,0,0.4
					s0.1,0.2,0.1,0.3c0.1,0.1,0.2,0.1,0.3,0.1c0.1,0,0.2,0.1,0.4,0.1L70.1,65.8z"/>
				<path class="st58" d="M73.3,65.8c-0.6,0-1.1-0.1-1.3-0.4c-0.3-0.3-0.4-0.6-0.4-1.2v-6.8l1-0.2v6.8c0,0.2,0,0.3,0,0.4
					s0.1,0.2,0.1,0.3c0.1,0.1,0.2,0.1,0.3,0.1c0.1,0,0.2,0.1,0.4,0.1L73.3,65.8z"/>
				<path class="st58" d="M76,65.1c0,0.2-0.1,0.4-0.2,0.5c-0.1,0.1-0.3,0.2-0.5,0.2c-0.2,0-0.4-0.1-0.5-0.2
					c-0.1-0.1-0.2-0.3-0.2-0.5s0.1-0.4,0.2-0.5s0.3-0.2,0.5-0.2c0.2,0,0.4,0.1,0.5,0.2S76,64.9,76,65.1z"/>
			</g>
		</g>
	</g>
</g>
</svg>
