<?xml version="1.0" encoding="utf-8"?>
<!-- Generator: Adobe Illustrator 22.0.0, SVG Export Plug-In . SVG Version: 6.00 Build 0)  -->
<svg version="1.1" id="Layer_1" xmlns="http://www.w3.org/2000/svg" xmlns:xlink="http://www.w3.org/1999/xlink" x="0px" y="0px"
	 viewBox="0 0 408 164.5" style="enable-background:new 0 0 408 164.5;" xml:space="preserve">
<style type="text/css">
	.st0{fill:#202020;}
	.st1{fill:#054B84;}
</style>
<title>Artboard 9 copy 32</title>
<g>
	<g>
		<path class="st0" d="M131.3,115.7l-1.9-8.8h-0.5c-3.2,3.9-6.3,6.5-9.5,7.9c-3.1,1.4-7.1,2.1-11.8,2.1c-6.3,0-11.2-1.6-14.8-4.8
			c-3.6-3.2-5.4-7.7-5.4-13.5c0-12.5,10.2-19.1,30.7-19.7l10.8-0.3v-3.8c0-4.9-1.1-8.5-3.2-10.8s-5.6-3.5-10.3-3.5
			c-5.3,0-11.3,1.6-17.9,4.8l-3-7.2c3.1-1.7,6.5-3,10.3-3.9c3.7-0.9,7.5-1.4,11.2-1.4c7.6,0,13.2,1.6,16.8,4.9s5.5,8.5,5.5,15.8
			v42.3H131.3z M109.5,109.1c6,0,10.7-1.6,14.1-4.8c3.4-3.2,5.1-7.7,5.1-13.5v-5.6l-9.6,0.4c-7.6,0.3-13.1,1.4-16.5,3.5
			c-3.4,2.1-5.1,5.3-5.1,9.6c0,3.4,1.1,6,3.2,7.8C102.8,108.2,105.8,109.1,109.5,109.1z"/>
		<path class="st0" d="M201.6,115.7V75.6c0-5.1-1.2-8.8-3.5-11.3c-2.4-2.5-6-3.7-11.1-3.7c-6.6,0-11.5,1.8-14.6,5.3
			s-4.6,9.3-4.6,17.4v32.5h-9.6v-62h7.8l1.6,8.5h0.5c2-3.1,4.7-5.4,8.3-7.1s7.5-2.5,11.9-2.5c7.6,0,13.4,1.8,17.2,5.4
			c3.9,3.6,5.8,9.4,5.8,17.3v40.5H201.6z"/>
		<path class="st0" d="M269.9,115.7l-1.9-8.8h-0.5c-3.2,3.9-6.3,6.5-9.5,7.9c-3.1,1.4-7.1,2.1-11.8,2.1c-6.3,0-11.2-1.6-14.8-4.8
			c-3.6-3.2-5.4-7.7-5.4-13.5c0-12.5,10.2-19.1,30.7-19.7l10.8-0.3v-3.8c0-4.9-1.1-8.5-3.2-10.8s-5.6-3.5-10.3-3.5
			c-5.3,0-11.3,1.6-17.9,4.8l-3-7.2c3.1-1.7,6.5-3,10.3-3.9c3.7-0.9,7.5-1.4,11.2-1.4c7.6,0,13.2,1.6,16.8,4.9s5.5,8.5,5.5,15.8
			v42.3H269.9z M248.2,109.1c6,0,10.7-1.6,14.1-4.8c3.4-3.2,5.1-7.7,5.1-13.5v-5.6l-9.6,0.4c-7.6,0.3-13.1,1.4-16.5,3.5
			c-3.4,2.1-5.1,5.3-5.1,9.6c0,3.4,1.1,6,3.2,7.8C241.5,108.2,244.4,109.1,248.2,109.1z"/>
		<path class="st0" d="M306.3,83.9c1.7-2.3,4.2-5.3,7.6-9.1l20.5-21.2h11.4l-25.7,26.4l27.5,35.6H336l-22.4-29.3l-7.2,6.1v23.2h-9.5
			V27.6h9.5v46.7c0,2.1-0.2,5.3-0.5,9.6H306.3z"/>
		<path class="st0" d="M398.1,115.7l-1.9-8.8h-0.5c-3.2,3.9-6.3,6.5-9.5,7.9c-3.1,1.4-7.1,2.1-11.8,2.1c-6.3,0-11.2-1.6-14.8-4.8
			c-3.6-3.2-5.4-7.7-5.4-13.5c0-12.5,10.2-19.1,30.7-19.7l10.8-0.3v-3.8c0-4.9-1.1-8.5-3.2-10.8s-5.6-3.5-10.3-3.5
			c-5.3,0-11.3,1.6-17.9,4.8l-3-7.2c3.1-1.7,6.5-3,10.3-3.9c3.7-0.9,7.5-1.4,11.2-1.4c7.6,0,13.2,1.6,16.8,4.9s5.5,8.5,5.5,15.8
			v42.3H398.1z M376.4,109.1c6,0,10.7-1.6,14.1-4.8c3.4-3.2,5.1-7.7,5.1-13.5v-5.6l-9.6,0.4c-7.6,0.3-13.1,1.4-16.5,3.5
			c-3.4,2.1-5.1,5.3-5.1,9.6c0,3.4,1.1,6,3.2,7.8C369.6,108.2,372.6,109.1,376.4,109.1z"/>
	</g>
	<g>
		<path class="st1" d="M323.4,133.4c2.6,1.9,4.3,4.6,5.3,7.9h-4.4c-0.8-2.1-2.1-3.8-4-5.1c-1.8-1.3-4.1-1.9-6.7-1.9
			c-2.1,0-4,0.5-5.6,1.5c-1.7,1-3,2.5-3.9,4.4c-1,1.9-1.4,4.1-1.4,6.7c0,2.5,0.5,4.7,1.4,6.6c1,1.9,2.3,3.3,3.9,4.4
			c1.7,1,3.5,1.5,5.6,1.5c2.6,0,4.9-0.6,6.7-1.9c1.8-1.3,3.1-3,4-5.1h4.4c-1,3.3-2.7,6-5.3,7.9c-2.6,1.9-5.8,2.9-9.7,2.9
			c-3,0-5.7-0.7-8-2.1c-2.3-1.4-4.1-3.3-5.4-5.8c-1.3-2.5-1.9-5.3-1.9-8.5c0-3.2,0.6-6,1.9-8.5c1.3-2.5,3.1-4.4,5.4-5.8
			c2.3-1.4,5-2.1,8-2.1C317.6,130.5,320.8,131.5,323.4,133.4z"/>
		<path class="st1" d="M340.2,129.2V163h-4.1v-33.7H340.2z"/>
		<path class="st1" d="M371,137.9v25h-4.1v-5.9c-0.6,2-1.8,3.6-3.4,4.7s-3.5,1.6-5.7,1.6c-2.9,0-5.2-0.9-7-2.8s-2.7-4.5-2.7-8v-14.6
			h4.1v14.2c0,2.5,0.6,4.4,1.9,5.8c1.3,1.4,3,2,5.2,2c2.3,0,4.1-0.7,5.5-2.2c1.4-1.5,2-3.6,2-6.4v-13.3H371z"/>
		<path class="st1" d="M399.2,139.2c1.7,1,3.1,2.5,4.1,4.5c1,1.9,1.5,4.2,1.5,6.8s-0.5,4.9-1.5,6.8c-1,1.9-2.3,3.4-4.1,4.4
			c-1.7,1-3.7,1.5-5.9,1.5c-2.4,0-4.5-0.6-6.2-1.8c-1.7-1.2-2.8-2.8-3.5-4.9v6.4h-4.1v-33.7h4.1v15.1c0.6-2,1.8-3.6,3.5-4.9
			c1.7-1.2,3.7-1.8,6.2-1.8C395.5,137.6,397.5,138.1,399.2,139.2z M387.7,142.4c-1.3,0.7-2.3,1.8-3.1,3.2c-0.7,1.4-1.1,3-1.1,4.8
			s0.4,3.4,1.1,4.8c0.7,1.4,1.7,2.5,3.1,3.2c1.3,0.8,2.8,1.1,4.4,1.1c2.6,0,4.6-0.8,6.2-2.4c1.5-1.6,2.3-3.9,2.3-6.7
			s-0.8-5.1-2.3-6.7c-1.5-1.6-3.6-2.4-6.2-2.4C390.5,141.3,389,141.7,387.7,142.4z"/>
	</g>
	<g>
		<g>
			<g>
				<path class="st0" d="M75.4,53.2l-16,21.7c-4.1,0.1-8,0.9-11.5,2.4c-7.7,3.1-14.1,8.9-17.8,16.3c-2.3,4.6-3.6,9.8-3.6,15.2
					c0,3.7,0.6,7.2,1.7,10.6H3.8c-0.6-3.4-1-7-1-10.6c0-5.5,0.8-10.8,2.2-15.9c3.8-13.4,12.4-24.8,23.8-32.3
					c9.1-5.9,19.9-9.4,31.6-9.4C65.6,51.2,70.6,51.9,75.4,53.2z"/>
			</g>
		</g>
		<g>
			<path class="st1" d="M28.8,1.1v50.3C19.1,56.8,11,64.5,5.1,73.9l0.1-40.7L28.8,1.1z"/>
		</g>
		<g>
			<path class="st1" d="M79.1,119.3H49.4l-13.8-18.5v0c2.6-8.1,9-14.5,17.2-17L79.1,119.3z"/>
		</g>
	</g>
</g>
</svg>
